999
"DXF R12 Output" (www.mydxf.blogspot.com)
 0 
SECTION
 2 
HEADER
 9 
$ACADVER
 1 
AC1009
 9 
$EXTMIN
 10 
 0 
 20 
 0 
 9 
$EXTMAX
 10 
 8.5 
 20 
 11 
 0 
ENDSEC
 0 
SECTION
 2 
ENTITIES
0
LINE
8
Layer 1
10
3.081320
20
48.740400
11
2.995299
21
46.546860
0
LINE
8
Layer 1
10
2.995299
20
46.546860
11
2.780246
21
44.597040
0
LINE
8
Layer 1
10
2.780246
20
44.597040
11
2.049060
21
44.597100
0
LINE
8
Layer 1
10
2.049060
20
44.597100
11
1.834007
21
46.546920
0
LINE
8
Layer 1
10
1.834007
20
46.546920
11
1.747986
21
48.740460
0
LINE
8
Layer 1
10
1.747986
20
48.740460
11
1.747990
21
51.435800
0
LINE
8
Layer 1
10
1.747990
20
51.435800
11
3.081320
21
51.435800
0
LINE
8
Layer 1
10
3.081320
20
51.435800
11
3.081320
21
48.740400
0
LINE
8
Layer 1
10
3.267699
20
42.159770
11
3.023972
21
41.571958
0
LINE
8
Layer 1
10
3.023972
20
41.571958
11
2.407486
21
41.313894
0
LINE
8
Layer 1
10
2.407486
20
41.313894
11
1.791000
21
41.571958
0
LINE
8
Layer 1
10
1.791000
20
41.571958
11
1.561610
21
42.159770
0
LINE
8
Layer 1
10
1.561610
20
42.159770
11
1.791000
21
42.761919
0
LINE
8
Layer 1
10
1.791000
20
42.761919
11
2.407486
21
43.019983
0
LINE
8
Layer 1
10
2.407486
20
43.019983
11
3.023972
21
42.761919
0
LINE
8
Layer 1
10
3.023972
20
42.761919
11
3.267699
21
42.159770
0
LINE
8
Layer 1
10
3.267699
20
42.159770
11
3.267699
21
42.159770
0
LINE
8
Layer 1
10
158.617000
20
52.396300
11
158.617000
21
51.679500
0
LINE
8
Layer 1
10
158.617000
20
51.679500
11
158.545316
21
50.217140
0
LINE
8
Layer 1
10
158.545316
20
50.217140
11
158.344600
21
48.683090
0
LINE
8
Layer 1
10
158.344600
20
48.683090
11
157.714000
21
48.683100
0
LINE
8
Layer 1
10
157.714000
20
48.683100
11
157.513284
21
50.202810
0
LINE
8
Layer 1
10
157.513284
20
50.202810
11
157.441600
21
51.693850
0
LINE
8
Layer 1
10
157.441600
20
51.693850
11
157.441000
21
52.396300
0
LINE
8
Layer 1
10
157.441000
20
52.396300
11
158.617000
21
52.396300
0
LINE
8
Layer 1
10
160.853550
20
52.396300
11
160.854000
21
51.679500
0
LINE
8
Layer 1
10
160.854000
20
51.679500
11
160.782316
21
50.217140
0
LINE
8
Layer 1
10
160.782316
20
50.217140
11
160.581600
21
48.683090
0
LINE
8
Layer 1
10
160.581600
20
48.683090
11
159.950000
21
48.683100
0
LINE
8
Layer 1
10
159.950000
20
48.683100
11
159.749284
21
50.202810
0
LINE
8
Layer 1
10
159.749284
20
50.202810
11
159.677600
21
51.693850
0
LINE
8
Layer 1
10
159.677600
20
51.693850
11
159.678000
21
52.396300
0
LINE
8
Layer 1
10
159.678000
20
52.396300
11
160.853550
21
52.396300
0
LINE
8
Layer 1
10
315.959000
20
45.084500
11
316.331759
21
47.851520
0
LINE
8
Layer 1
10
316.331759
20
47.851520
11
314.669000
21
47.851500
0
LINE
8
Layer 1
10
314.669000
20
47.851500
11
314.669000
21
48.797800
0
LINE
8
Layer 1
10
314.669000
20
48.797800
11
316.461000
21
48.797800
0
LINE
8
Layer 1
10
316.461000
20
48.797800
11
316.819422
21
51.435790
0
LINE
8
Layer 1
10
316.819422
20
51.435790
11
317.852000
21
51.435800
0
LINE
8
Layer 1
10
317.852000
20
51.435800
11
317.479241
21
48.797810
0
LINE
8
Layer 1
10
317.479241
20
48.797810
11
319.257000
21
48.797800
0
LINE
8
Layer 1
10
319.257000
20
48.797800
11
319.629759
21
51.435790
0
LINE
8
Layer 1
10
319.629759
20
51.435790
11
320.662000
21
51.435800
0
LINE
8
Layer 1
10
320.662000
20
51.435800
11
320.289241
21
48.797810
0
LINE
8
Layer 1
10
320.289241
20
48.797810
11
321.450000
21
48.797800
0
LINE
8
Layer 1
10
321.450000
20
48.797800
11
321.450000
21
47.851500
0
LINE
8
Layer 1
10
321.450000
20
47.851500
11
320.160000
21
47.851500
0
LINE
8
Layer 1
10
320.160000
20
47.851500
11
319.787241
21
45.084480
0
LINE
8
Layer 1
10
319.787241
20
45.084480
11
321.450000
21
45.084500
0
LINE
8
Layer 1
10
321.450000
20
45.084500
11
321.450000
21
44.138300
0
LINE
8
Layer 1
10
321.450000
20
44.138300
11
319.658000
21
44.138300
0
LINE
8
Layer 1
10
319.658000
20
44.138300
11
319.299578
21
41.500310
0
LINE
8
Layer 1
10
319.299578
20
41.500310
11
318.268000
21
41.500300
0
LINE
8
Layer 1
10
318.268000
20
41.500300
11
318.626422
21
44.138290
0
LINE
8
Layer 1
10
318.626422
20
44.138290
11
316.848000
21
44.138300
0
LINE
8
Layer 1
10
316.848000
20
44.138300
11
316.489578
21
41.500310
0
LINE
8
Layer 1
10
316.489578
20
41.500310
11
315.472000
21
41.500300
0
LINE
8
Layer 1
10
315.472000
20
41.500300
11
315.830422
21
44.138290
0
LINE
8
Layer 1
10
315.830422
20
44.138290
11
314.669000
21
44.138300
0
LINE
8
Layer 1
10
314.669000
20
44.138300
11
314.669000
21
45.084500
0
LINE
8
Layer 1
10
314.669000
20
45.084500
11
315.959000
21
45.084500
0
LINE
8
Layer 1
10
316.976920
20
45.084500
11
318.755000
21
45.084500
0
LINE
8
Layer 1
10
318.755000
20
45.084500
11
319.127759
21
47.851520
0
LINE
8
Layer 1
10
319.127759
20
47.851520
11
317.350000
21
47.851500
0
LINE
8
Layer 1
10
317.350000
20
47.851500
11
316.976920
21
45.084500
0
LINE
8
Layer 1
10
479.639000
20
44.123900
11
479.531473
21
43.356878
0
LINE
8
Layer 1
10
479.531473
20
43.356878
11
479.208894
21
42.661540
0
LINE
8
Layer 1
10
479.208894
20
42.661540
11
478.678429
21
42.127492
0
LINE
8
Layer 1
10
478.678429
20
42.127492
11
477.918574
21
41.815664
0
LINE
8
Layer 1
10
477.918574
20
41.815664
11
477.918000
21
39.937600
0
LINE
8
Layer 1
10
477.918000
20
39.937600
11
476.814000
21
39.937600
0
LINE
8
Layer 1
10
476.814000
20
39.937600
11
476.814000
21
41.744000
0
LINE
8
Layer 1
10
476.814000
20
41.744000
11
475.796080
21
41.959053
0
LINE
8
Layer 1
10
475.796080
20
41.959053
11
475.050562
21
42.360486
0
LINE
8
Layer 1
10
475.050562
20
42.360486
11
475.408984
21
43.321057
0
LINE
8
Layer 1
10
475.408984
20
43.321057
11
476.168839
21
42.933961
0
LINE
8
Layer 1
10
476.168839
20
42.933961
11
477.086399
21
42.790592
0
LINE
8
Layer 1
10
477.086399
20
42.790592
11
477.634785
21
42.880197
0
LINE
8
Layer 1
10
477.634785
20
42.880197
11
478.018296
21
43.149014
0
LINE
8
Layer 1
10
478.018296
20
43.149014
11
478.244101
21
43.575536
0
LINE
8
Layer 1
10
478.244101
20
43.575536
11
478.319370
21
44.109585
0
LINE
8
Layer 1
10
478.319370
20
44.109585
11
478.204675
21
44.726071
0
LINE
8
Layer 1
10
478.204675
20
44.726071
11
477.917937
21
45.213525
0
LINE
8
Layer 1
10
477.917937
20
45.213525
11
477.487831
21
45.600621
0
LINE
8
Layer 1
10
477.487831
20
45.600621
11
477.000377
21
45.959043
0
LINE
8
Layer 1
10
477.000377
20
45.959043
11
476.340881
21
46.403486
0
LINE
8
Layer 1
10
476.340881
20
46.403486
11
475.767406
21
46.933950
0
LINE
8
Layer 1
10
475.767406
20
46.933950
11
475.337300
21
47.650794
0
LINE
8
Layer 1
10
475.337300
20
47.650794
11
475.179594
21
48.640039
0
LINE
8
Layer 1
10
475.179594
20
48.640039
11
475.279952
21
49.356883
0
LINE
8
Layer 1
10
475.279952
20
49.356883
11
475.595363
21
50.030716
0
LINE
8
Layer 1
10
475.595363
20
50.030716
11
476.111491
21
50.575517
0
LINE
8
Layer 1
10
476.111491
20
50.575517
11
476.813998
21
50.933939
0
LINE
8
Layer 1
10
476.813998
20
50.933939
11
476.814000
21
52.625700
0
LINE
8
Layer 1
10
476.814000
20
52.625700
11
477.918000
21
52.625700
0
LINE
8
Layer 1
10
477.918000
20
52.625700
11
477.918000
21
51.034300
0
LINE
8
Layer 1
10
477.918000
20
51.034300
11
478.649181
21
50.876594
0
LINE
8
Layer 1
10
478.649181
20
50.876594
11
479.294340
21
50.618530
0
LINE
8
Layer 1
10
479.294340
20
50.618530
11
478.950255
21
49.643622
0
LINE
8
Layer 1
10
478.950255
20
49.643622
11
478.348106
21
49.901686
0
LINE
8
Layer 1
10
478.348106
20
49.901686
11
477.702947
21
50.016381
0
LINE
8
Layer 1
10
477.702947
20
50.016381
11
477.226246
21
49.933944
0
LINE
8
Layer 1
10
477.226246
20
49.933944
11
476.828397
21
49.686633
0
LINE
8
Layer 1
10
476.828397
20
49.686633
11
476.570333
21
49.260111
0
LINE
8
Layer 1
10
476.570333
20
49.260111
11
476.484312
21
48.640043
0
LINE
8
Layer 1
10
476.484312
20
48.640043
11
476.613344
21
48.037894
0
LINE
8
Layer 1
10
476.613344
20
48.037894
11
476.957429
21
47.564777
0
LINE
8
Layer 1
10
476.957429
20
47.564777
11
477.444883
21
47.163344
0
LINE
8
Layer 1
10
477.444883
20
47.163344
11
478.018358
21
46.790585
0
LINE
8
Layer 1
10
478.018358
20
46.790585
11
478.606170
21
46.346142
0
LINE
8
Layer 1
10
478.606170
20
46.346142
11
479.136634
21
45.801341
0
LINE
8
Layer 1
10
479.136634
20
45.801341
11
479.495056
21
45.084497
0
LINE
8
Layer 1
10
479.495056
20
45.084497
11
479.638425
21
44.123926
0
LINE
8
Layer 1
10
479.638425
20
44.123926
11
479.639000
21
44.123900
0
LINE
8
Layer 1
10
637.769000
20
43.923200
11
637.872942
21
45.059398
0
LINE
8
Layer 1
10
637.872942
20
45.059398
11
638.184769
21
45.887350
0
LINE
8
Layer 1
10
638.184769
20
45.887350
11
638.715235
21
46.392725
0
LINE
8
Layer 1
10
638.715235
20
46.392725
11
639.446419
21
46.561183
0
LINE
8
Layer 1
10
639.446419
20
46.561183
11
640.174016
21
46.392725
0
LINE
8
Layer 1
10
640.174016
20
46.392725
11
640.693729
21
45.887350
0
LINE
8
Layer 1
10
640.693729
20
45.887350
11
641.016309
21
45.059396
0
LINE
8
Layer 1
10
641.016309
20
45.059396
11
641.123835
21
43.923200
0
LINE
8
Layer 1
10
641.123835
20
43.923200
11
641.016309
21
42.787002
0
LINE
8
Layer 1
10
641.016309
20
42.787002
11
640.693729
21
41.959050
0
LINE
8
Layer 1
10
640.693729
20
41.959050
11
640.174017
21
41.453675
0
LINE
8
Layer 1
10
640.174017
20
41.453675
11
639.446419
21
41.285217
0
LINE
8
Layer 1
10
639.446419
20
41.285217
11
638.715237
21
41.453675
0
LINE
8
Layer 1
10
638.715237
20
41.453675
11
638.184769
21
41.959050
0
LINE
8
Layer 1
10
638.184769
20
41.959050
11
637.872942
21
42.787004
0
LINE
8
Layer 1
10
637.872942
20
42.787004
11
637.769000
21
43.923200
0
LINE
8
Layer 1
10
637.769000
20
43.923200
11
637.769000
21
43.923200
0
LINE
8
Layer 1
10
640.077240
20
43.923200
11
639.919534
21
45.270870
0
LINE
8
Layer 1
10
639.919534
20
45.270870
11
639.722402
21
45.561192
0
LINE
8
Layer 1
10
639.722402
20
45.561192
11
639.446417
21
45.657966
0
LINE
8
Layer 1
10
639.446417
20
45.657966
11
639.170432
21
45.561192
0
LINE
8
Layer 1
10
639.170432
20
45.561192
11
638.973300
21
45.270870
0
LINE
8
Layer 1
10
638.973300
20
45.270870
11
638.815594
21
43.923200
0
LINE
8
Layer 1
10
638.815594
20
43.923200
11
638.973300
21
42.575530
0
LINE
8
Layer 1
10
638.973300
20
42.575530
11
639.170432
21
42.285208
0
LINE
8
Layer 1
10
639.170432
20
42.285208
11
639.446417
21
42.188434
0
LINE
8
Layer 1
10
639.446417
20
42.188434
11
639.722402
21
42.285208
0
LINE
8
Layer 1
10
639.722402
20
42.285208
11
639.919534
21
42.575530
0
LINE
8
Layer 1
10
639.919534
20
42.575530
11
640.077240
21
43.923200
0
LINE
8
Layer 1
10
640.077240
20
43.923200
11
640.077240
21
43.923200
0
LINE
8
Layer 1
10
639.704481
20
51.435720
11
635.704491
21
41.500260
0
LINE
8
Layer 1
10
635.704491
20
41.500260
11
634.586000
21
41.500300
0
LINE
8
Layer 1
10
634.586000
20
41.500300
11
638.585990
21
51.435760
0
LINE
8
Layer 1
10
638.585990
20
51.435760
11
639.704481
21
51.435720
0
LINE
8
Layer 1
10
633.252891
20
48.998450
11
633.356833
21
50.134647
0
LINE
8
Layer 1
10
633.356833
20
50.134647
11
633.668660
21
50.962600
0
LINE
8
Layer 1
10
633.668660
20
50.962600
11
634.199125
21
51.467975
0
LINE
8
Layer 1
10
634.199125
20
51.467975
11
634.930310
21
51.636433
0
LINE
8
Layer 1
10
634.930310
20
51.636433
11
635.657907
21
51.467975
0
LINE
8
Layer 1
10
635.657907
20
51.467975
11
636.177620
21
50.962600
0
LINE
8
Layer 1
10
636.177620
20
50.962600
11
636.500199
21
50.134646
0
LINE
8
Layer 1
10
636.500199
20
50.134646
11
636.607726
21
48.998450
0
LINE
8
Layer 1
10
636.607726
20
48.998450
11
636.500199
21
47.862252
0
LINE
8
Layer 1
10
636.500199
20
47.862252
11
636.177620
21
47.034300
0
LINE
8
Layer 1
10
636.177620
20
47.034300
11
635.657908
21
46.528925
0
LINE
8
Layer 1
10
635.657908
20
46.528925
11
634.930310
21
46.360467
0
LINE
8
Layer 1
10
634.930310
20
46.360467
11
634.199128
21
46.528925
0
LINE
8
Layer 1
10
634.199128
20
46.528925
11
633.668660
21
47.034300
0
LINE
8
Layer 1
10
633.668660
20
47.034300
11
633.356833
21
47.862254
0
LINE
8
Layer 1
10
633.356833
20
47.862254
11
633.252891
21
48.998450
0
LINE
8
Layer 1
10
633.252891
20
48.998450
11
633.252891
21
48.998450
0
LINE
8
Layer 1
10
635.561131
20
48.998450
11
635.403425
21
50.346120
0
LINE
8
Layer 1
10
635.403425
20
50.346120
11
635.206293
21
50.636442
0
LINE
8
Layer 1
10
635.206293
20
50.636442
11
634.930308
21
50.733216
0
LINE
8
Layer 1
10
634.930308
20
50.733216
11
634.654323
21
50.636442
0
LINE
8
Layer 1
10
634.654323
20
50.636442
11
634.457191
21
50.346120
0
LINE
8
Layer 1
10
634.457191
20
50.346120
11
634.299485
21
48.998450
0
LINE
8
Layer 1
10
634.299485
20
48.998450
11
634.457191
21
47.650780
0
LINE
8
Layer 1
10
634.457191
20
47.650780
11
634.654323
21
47.360458
0
LINE
8
Layer 1
10
634.654323
20
47.360458
11
634.930308
21
47.263684
0
LINE
8
Layer 1
10
634.930308
20
47.263684
11
635.206293
21
47.360458
0
LINE
8
Layer 1
10
635.206293
20
47.360458
11
635.403425
21
47.650780
0
LINE
8
Layer 1
10
635.403425
20
47.650780
11
635.561131
21
48.998450
0
LINE
8
Layer 1
10
635.561131
20
48.998450
11
635.561131
21
48.998450
0
LINE
8
Layer 1
10
800.875000
20
46.561200
11
800.602599
21
44.883790
0
LINE
8
Layer 1
10
800.602599
20
44.883790
11
800.086471
21
43.507450
0
LINE
8
Layer 1
10
800.086471
20
43.507450
11
800.688620
21
42.489530
0
LINE
8
Layer 1
10
800.688620
20
42.489530
11
801.147400
21
41.500285
0
LINE
8
Layer 1
10
801.147400
20
41.500285
11
799.900000
21
41.500300
0
LINE
8
Layer 1
10
799.900000
20
41.500300
11
799.412546
21
42.503880
0
LINE
8
Layer 1
10
799.412546
20
42.503880
11
798.394626
21
41.658004
0
LINE
8
Layer 1
10
798.394626
20
41.658004
11
797.262016
21
41.371266
0
LINE
8
Layer 1
10
797.262016
20
41.371266
11
796.029046
21
41.600656
0
LINE
8
Layer 1
10
796.029046
20
41.600656
11
795.197507
21
42.188468
0
LINE
8
Layer 1
10
795.197507
20
42.188468
11
794.724390
21
43.020007
0
LINE
8
Layer 1
10
794.724390
20
43.020007
11
794.581021
21
43.923230
0
LINE
8
Layer 1
10
794.581021
20
43.923230
11
794.710053
21
44.926810
0
LINE
8
Layer 1
10
794.710053
20
44.926810
11
795.068475
21
45.744012
0
LINE
8
Layer 1
10
795.068475
20
45.744012
11
795.584603
21
46.403508
0
LINE
8
Layer 1
10
795.584603
20
46.403508
11
796.215426
21
46.962646
0
LINE
8
Layer 1
10
796.215426
20
46.962646
11
795.555930
21
48.109596
0
LINE
8
Layer 1
10
795.555930
20
48.109596
11
795.283529
21
49.442926
0
LINE
8
Layer 1
10
795.283529
20
49.442926
11
795.423313
21
50.346148
0
LINE
8
Layer 1
10
795.423313
20
50.346148
11
795.842667
21
51.048656
0
LINE
8
Layer 1
10
795.842667
20
51.048656
11
796.498579
21
51.511020
0
LINE
8
Layer 1
10
796.498579
20
51.511020
11
797.348037
21
51.665142
0
LINE
8
Layer 1
10
797.348037
20
51.665142
11
798.236923
21
51.493099
0
LINE
8
Layer 1
10
798.236923
20
51.493099
11
798.839072
21
51.048656
0
LINE
8
Layer 1
10
798.839072
20
51.048656
11
799.183157
21
50.389160
0
LINE
8
Layer 1
10
799.183157
20
50.389160
11
799.297852
21
49.600632
0
LINE
8
Layer 1
10
799.297852
20
49.600632
11
799.154483
21
48.711746
0
LINE
8
Layer 1
10
799.154483
20
48.711746
11
798.796061
21
47.994902
0
LINE
8
Layer 1
10
798.796061
20
47.994902
11
798.279933
21
47.392753
0
LINE
8
Layer 1
10
798.279933
20
47.392753
11
797.692121
21
46.876625
0
LINE
8
Layer 1
10
797.692121
20
46.876625
11
799.398211
21
44.468025
0
LINE
8
Layer 1
10
799.398211
20
44.468025
11
799.670612
21
45.485945
0
LINE
8
Layer 1
10
799.670612
20
45.485945
11
799.842655
21
46.704575
0
LINE
8
Layer 1
10
799.842655
20
46.704575
11
800.875000
21
46.561200
0
LINE
8
Layer 1
10
797.305120
20
42.417840
11
798.107985
21
42.647230
0
LINE
8
Layer 1
10
798.107985
20
42.647230
11
798.839166
21
43.364074
0
LINE
8
Layer 1
10
798.839166
20
43.364074
11
796.803326
21
46.159764
0
LINE
8
Layer 1
10
796.803326
20
46.159764
11
796.100819
21
45.270878
0
LINE
8
Layer 1
10
796.100819
20
45.270878
11
795.896518
21
44.708155
0
LINE
8
Layer 1
10
795.896518
20
44.708155
11
795.828418
21
44.023568
0
LINE
8
Layer 1
10
795.828418
20
44.023568
11
795.921608
21
43.392746
0
LINE
8
Layer 1
10
795.921608
20
43.392746
11
796.201177
21
42.876618
0
LINE
8
Layer 1
10
796.201177
20
42.876618
11
796.663541
21
42.532533
0
LINE
8
Layer 1
10
796.663541
20
42.532533
11
797.305117
21
42.417838
0
LINE
8
Layer 1
10
797.305117
20
42.417838
11
797.305120
21
42.417840
0
LINE
8
Layer 1
10
796.401897
20
49.457250
11
796.602613
21
48.539690
0
LINE
8
Layer 1
10
796.602613
20
48.539690
11
797.118741
21
47.693814
0
LINE
8
Layer 1
10
797.118741
20
47.693814
11
797.864259
21
48.511016
0
LINE
8
Layer 1
10
797.864259
20
48.511016
11
798.100817
21
49.005638
0
LINE
8
Layer 1
10
798.100817
20
49.005638
11
798.179670
21
49.600616
0
LINE
8
Layer 1
10
798.179670
20
49.600616
11
798.118738
21
50.077317
0
LINE
8
Layer 1
10
798.118738
20
50.077317
11
797.935943
21
50.417818
0
LINE
8
Layer 1
10
797.935943
20
50.417818
11
797.667126
21
50.622119
0
LINE
8
Layer 1
10
797.667126
20
50.622119
11
797.319457
21
50.690219
0
LINE
8
Layer 1
10
797.319457
20
50.690219
11
796.918024
21
50.607782
0
LINE
8
Layer 1
10
796.918024
20
50.607782
11
796.631287
21
50.360471
0
LINE
8
Layer 1
10
796.631287
20
50.360471
11
796.401897
21
49.457248
0
LINE
8
Layer 1
10
796.401897
20
49.457248
11
796.401897
21
49.457250
0
LINE
8
Layer 1
10
955.594000
20
52.396300
11
955.594000
21
51.679500
0
LINE
8
Layer 1
10
955.594000
20
51.679500
11
955.522316
21
50.217140
0
LINE
8
Layer 1
10
955.522316
20
50.217140
11
955.321600
21
48.683090
0
LINE
8
Layer 1
10
955.321600
20
48.683090
11
954.690000
21
48.683100
0
LINE
8
Layer 1
10
954.690000
20
48.683100
11
954.489284
21
50.202810
0
LINE
8
Layer 1
10
954.489284
20
50.202810
11
954.417600
21
51.693850
0
LINE
8
Layer 1
10
954.417600
20
51.693850
11
954.418000
21
52.396300
0
LINE
8
Layer 1
10
954.418000
20
52.396300
11
955.594000
21
52.396300
0
LINE
8
Layer 1
10
1111.060000
20
45.787000
11
1111.171111
21
44.005642
0
LINE
8
Layer 1
10
1111.171111
20
44.005642
11
1111.504443
21
42.331810
0
LINE
8
Layer 1
10
1111.504443
20
42.331810
11
1112.038492
21
40.779842
0
LINE
8
Layer 1
10
1112.038492
20
40.779842
11
1112.751753
21
39.364080
0
LINE
8
Layer 1
10
1112.751753
20
39.364080
11
1111.762508
21
38.819279
0
LINE
8
Layer 1
10
1111.762508
20
38.819279
11
1110.963227
21
40.303146
0
LINE
8
Layer 1
10
1110.963227
20
40.303146
11
1110.343158
21
41.973389
0
LINE
8
Layer 1
10
1110.343158
20
41.973389
11
1109.956062
21
43.808511
0
LINE
8
Layer 1
10
1109.956062
20
43.808511
11
1109.827030
21
45.786999
0
LINE
8
Layer 1
10
1109.827030
20
45.786999
11
1109.956062
21
47.765486
0
LINE
8
Layer 1
10
1109.956062
20
47.765486
11
1110.343158
21
49.600609
0
LINE
8
Layer 1
10
1110.343158
20
49.600609
11
1110.963227
21
51.270856
0
LINE
8
Layer 1
10
1110.963227
20
51.270856
11
1111.762508
21
52.754719
0
LINE
8
Layer 1
10
1111.762508
20
52.754719
11
1112.751753
21
52.209918
0
LINE
8
Layer 1
10
1112.751753
20
52.209918
11
1112.038493
21
50.794150
0
LINE
8
Layer 1
10
1112.038493
20
50.794150
11
1111.504443
21
49.242188
0
LINE
8
Layer 1
10
1111.504443
20
49.242188
11
1111.171111
21
47.568355
0
LINE
8
Layer 1
10
1111.171111
20
47.568355
11
1111.060000
21
45.786998
0
LINE
8
Layer 1
10
1111.060000
20
45.786998
11
1111.060000
21
45.787000
0
LINE
8
Layer 1
10
1266.720000
20
45.787000
11
1266.608889
21
47.568357
0
LINE
8
Layer 1
10
1266.608889
20
47.568357
11
1266.275557
21
49.242190
0
LINE
8
Layer 1
10
1266.275557
20
49.242190
11
1265.741508
21
50.794157
0
LINE
8
Layer 1
10
1265.741508
20
50.794157
11
1265.028247
21
52.209920
0
LINE
8
Layer 1
10
1265.028247
20
52.209920
11
1266.017492
21
52.754721
0
LINE
8
Layer 1
10
1266.017492
20
52.754721
11
1266.813187
21
51.270854
0
LINE
8
Layer 1
10
1266.813187
20
51.270854
11
1267.422502
21
49.600611
0
LINE
8
Layer 1
10
1267.422502
20
49.600611
11
1267.820350
21
47.765488
0
LINE
8
Layer 1
10
1267.820350
20
47.765488
11
1267.952966
21
45.787001
0
LINE
8
Layer 1
10
1267.952966
20
45.787001
11
1267.820350
21
43.808513
0
LINE
8
Layer 1
10
1267.820350
20
43.808513
11
1267.422502
21
41.973391
0
LINE
8
Layer 1
10
1267.422502
20
41.973391
11
1266.813186
21
40.303144
0
LINE
8
Layer 1
10
1266.813186
20
40.303144
11
1266.017492
21
38.819281
0
LINE
8
Layer 1
10
1266.017492
20
38.819281
11
1265.028247
21
39.364082
0
LINE
8
Layer 1
10
1265.028247
20
39.364082
11
1265.741507
21
40.779850
0
LINE
8
Layer 1
10
1265.741507
20
40.779850
11
1266.275557
21
42.331812
0
LINE
8
Layer 1
10
1266.275557
20
42.331812
11
1266.608889
21
44.005645
0
LINE
8
Layer 1
10
1266.608889
20
44.005645
11
1266.720000
21
45.787002
0
LINE
8
Layer 1
10
1266.720000
20
45.787002
11
1266.720000
21
45.787000
0
LINE
8
Layer 1
10
1422.130000
20
50.690200
11
1422.947202
21
50.288767
0
LINE
8
Layer 1
10
1422.947202
20
50.288767
11
1423.678383
21
49.801313
0
LINE
8
Layer 1
10
1423.678383
20
49.801313
11
1423.448993
21
50.632852
0
LINE
8
Layer 1
10
1423.448993
20
50.632852
11
1423.334298
21
51.536075
0
LINE
8
Layer 1
10
1423.334298
20
51.536075
11
1423.330000
21
51.636500
0
LINE
8
Layer 1
10
1423.330000
20
51.636500
11
1424.600000
21
51.636500
0
LINE
8
Layer 1
10
1424.600000
20
51.636500
11
1424.600000
21
51.536100
0
LINE
8
Layer 1
10
1424.600000
20
51.536100
11
1424.470968
21
50.632877
0
LINE
8
Layer 1
10
1424.470968
20
50.632877
11
1424.241578
21
49.801338
0
LINE
8
Layer 1
10
1424.241578
20
49.801338
11
1424.958422
21
50.274455
0
LINE
8
Layer 1
10
1424.958422
20
50.274455
11
1425.761287
21
50.675888
0
LINE
8
Layer 1
10
1425.761287
20
50.675888
11
1425.861645
21
50.704562
0
LINE
8
Layer 1
10
1425.861645
20
50.704562
11
1426.234404
21
49.500262
0
LINE
8
Layer 1
10
1426.234404
20
49.500262
11
1426.162720
21
49.471588
0
LINE
8
Layer 1
10
1426.162720
20
49.471588
11
1425.273834
21
49.313882
0
LINE
8
Layer 1
10
1425.273834
20
49.313882
11
1424.427958
21
49.256535
0
LINE
8
Layer 1
10
1424.427958
20
49.256535
11
1425.073117
21
48.711734
0
LINE
8
Layer 1
10
1425.073117
20
48.711734
11
1425.689603
21
48.080911
0
LINE
8
Layer 1
10
1425.689603
20
48.080911
11
1425.746950
21
48.009226
0
LINE
8
Layer 1
10
1425.746950
20
48.009226
11
1424.729030
21
47.263708
0
LINE
8
Layer 1
10
1424.729030
20
47.263708
11
1424.686019
21
47.349729
0
LINE
8
Layer 1
10
1424.686019
20
47.349729
11
1424.255913
21
48.138257
0
LINE
8
Layer 1
10
1424.255913
20
48.138257
11
1423.940502
21
48.941122
0
LINE
8
Layer 1
10
1423.940502
20
48.941122
11
1423.625091
21
48.138257
0
LINE
8
Layer 1
10
1423.625091
20
48.138257
11
1423.209322
21
47.364066
0
LINE
8
Layer 1
10
1423.209322
20
47.364066
11
1423.151975
21
47.278045
0
LINE
8
Layer 1
10
1423.151975
20
47.278045
11
1422.134055
21
48.023563
0
LINE
8
Layer 1
10
1422.134055
20
48.023563
11
1422.205739
21
48.095248
0
LINE
8
Layer 1
10
1422.205739
20
48.095248
11
1422.822225
21
48.740407
0
LINE
8
Layer 1
10
1422.822225
20
48.740407
11
1423.496058
21
49.285208
0
LINE
8
Layer 1
10
1423.496058
20
49.285208
11
1422.635845
21
49.328218
0
LINE
8
Layer 1
10
1422.635845
20
49.328218
11
1421.746959
21
49.500261
0
LINE
8
Layer 1
10
1421.746959
20
49.500261
11
1421.689612
21
49.543272
0
LINE
8
Layer 1
10
1421.689612
20
49.543272
11
1422.048034
21
50.718892
0
LINE
8
Layer 1
10
1422.048034
20
50.718892
11
1422.130000
21
50.690200
0
LINE
8
Layer 1
10
1579.490000
20
46.317500
11
1581.420000
21
46.317500
0
LINE
8
Layer 1
10
1581.420000
20
46.317500
11
1581.420000
21
48.382000
0
LINE
8
Layer 1
10
1581.420000
20
48.382000
11
1582.480000
21
48.382000
0
LINE
8
Layer 1
10
1582.480000
20
48.382000
11
1582.480000
21
46.317500
0
LINE
8
Layer 1
10
1582.480000
20
46.317500
11
1584.420000
21
46.317500
0
LINE
8
Layer 1
10
1584.420000
20
46.317500
11
1584.420000
21
45.270900
0
LINE
8
Layer 1
10
1584.420000
20
45.270900
11
1582.480000
21
45.270900
0
LINE
8
Layer 1
10
1582.480000
20
45.270900
11
1582.480000
21
43.192100
0
LINE
8
Layer 1
10
1582.480000
20
43.192100
11
1581.420000
21
43.192100
0
LINE
8
Layer 1
10
1581.420000
20
43.192100
11
1581.420000
21
45.270900
0
LINE
8
Layer 1
10
1581.420000
20
45.270900
11
1579.490000
21
45.270900
0
LINE
8
Layer 1
10
1579.490000
20
45.270900
11
1579.490000
21
46.317500
0
LINE
8
Layer 1
10
1739.540000
20
43.134700
11
1739.554393
21
42.905310
0
LINE
8
Layer 1
10
1739.554393
20
42.905310
11
1739.554393
21
42.690257
0
LINE
8
Layer 1
10
1739.554393
20
42.690257
11
1739.296329
21
40.926817
0
LINE
8
Layer 1
10
1739.296329
20
40.926817
11
1738.593822
21
39.292417
0
LINE
8
Layer 1
10
1738.593822
20
39.292417
11
1737.719272
21
39.550481
0
LINE
8
Layer 1
10
1737.719272
20
39.550481
11
1738.192389
21
41.041521
0
LINE
8
Layer 1
10
1738.192389
20
41.041521
11
1738.307084
21
42.446531
0
LINE
8
Layer 1
10
1738.307084
20
42.446531
11
1738.292691
21
42.804953
0
LINE
8
Layer 1
10
1738.292691
20
42.804953
11
1738.278298
21
43.134701
0
LINE
8
Layer 1
10
1738.278298
20
43.134701
11
1739.540000
21
43.134700
0
LINE
8
Layer 1
10
1892.980000
20
46.374800
11
1895.630000
21
46.374800
0
LINE
8
Layer 1
10
1895.630000
20
46.374800
11
1895.630000
21
45.213600
0
LINE
8
Layer 1
10
1895.630000
20
45.213600
11
1892.980000
21
45.213600
0
LINE
8
Layer 1
10
1892.980000
20
45.213600
11
1892.980000
21
46.374800
0
LINE
8
Layer 1
10
2050.640000
20
42.159800
11
2050.396273
21
41.571988
0
LINE
8
Layer 1
10
2050.396273
20
41.571988
11
2049.779787
21
41.313924
0
LINE
8
Layer 1
10
2049.779787
20
41.313924
11
2049.163301
21
41.571988
0
LINE
8
Layer 1
10
2049.163301
20
41.571988
11
2048.933911
21
42.159800
0
LINE
8
Layer 1
10
2048.933911
20
42.159800
11
2049.163301
21
42.761949
0
LINE
8
Layer 1
10
2049.163301
20
42.761949
11
2049.779787
21
43.020013
0
LINE
8
Layer 1
10
2049.779787
20
43.020013
11
2050.396273
21
42.761949
0
LINE
8
Layer 1
10
2050.396273
20
42.761949
11
2050.640000
21
42.159800
0
LINE
8
Layer 1
10
2050.640000
20
42.159800
11
2050.640000
21
42.159800
0
LINE
8
Layer 1
10
2204.350000
20
38.848000
11
2203.210000
21
38.848000
0
LINE
8
Layer 1
10
2203.210000
20
38.848000
11
2206.679520
21
52.726100
0
LINE
8
Layer 1
10
2206.679520
20
52.726100
11
2207.820000
21
52.726100
0
LINE
8
Layer 1
10
2207.820000
20
52.726100
11
2204.350000
21
38.848000
0
LINE
8
Layer 1
10
2360.330000
20
46.475200
11
2360.459032
21
48.926810
0
LINE
8
Layer 1
10
2360.459032
20
48.926810
11
2360.874801
21
50.532540
0
LINE
8
Layer 1
10
2360.874801
20
50.532540
11
2361.197381
21
51.048668
0
LINE
8
Layer 1
10
2361.197381
20
51.048668
11
2361.591645
21
51.392753
0
LINE
8
Layer 1
10
2361.591645
20
51.392753
11
2362.082684
21
51.597054
0
LINE
8
Layer 1
10
2362.082684
20
51.597054
11
2362.666915
21
51.665154
0
LINE
8
Layer 1
10
2362.666915
20
51.665154
11
2363.240391
21
51.597054
0
LINE
8
Layer 1
10
2363.240391
20
51.597054
11
2363.727845
21
51.392753
0
LINE
8
Layer 1
10
2363.727845
20
51.392753
11
2364.132862
21
51.048668
0
LINE
8
Layer 1
10
2364.132862
20
51.048668
11
2364.459026
21
50.532540
0
LINE
8
Layer 1
10
2364.459026
20
50.532540
11
2364.874795
21
48.926810
0
LINE
8
Layer 1
10
2364.874795
20
48.926810
11
2365.003827
21
46.475200
0
LINE
8
Layer 1
10
2365.003827
20
46.475200
11
2364.874795
21
44.009260
0
LINE
8
Layer 1
10
2364.874795
20
44.009260
11
2364.459026
21
42.417870
0
LINE
8
Layer 1
10
2364.459026
20
42.417870
11
2364.132862
21
41.898158
0
LINE
8
Layer 1
10
2364.132862
20
41.898158
11
2363.727845
21
41.543320
0
LINE
8
Layer 1
10
2363.727845
20
41.543320
11
2362.666915
21
41.285256
0
LINE
8
Layer 1
10
2362.666915
20
41.285256
11
2361.591645
21
41.543320
0
LINE
8
Layer 1
10
2361.591645
20
41.543320
11
2361.197381
21
41.898158
0
LINE
8
Layer 1
10
2361.197381
20
41.898158
11
2360.874801
21
42.417870
0
LINE
8
Layer 1
10
2360.874801
20
42.417870
11
2360.459032
21
44.009260
0
LINE
8
Layer 1
10
2360.459032
20
44.009260
11
2360.330000
21
46.475200
0
LINE
8
Layer 1
10
2360.330000
20
46.475200
11
2360.330000
21
46.475200
0
LINE
8
Layer 1
10
2363.713500
20
46.475200
11
2363.656152
21
48.439350
0
LINE
8
Layer 1
10
2363.656152
20
48.439350
11
2363.469773
21
49.701000
0
LINE
8
Layer 1
10
2363.469773
20
49.701000
11
2363.154362
21
50.374833
0
LINE
8
Layer 1
10
2363.154362
20
50.374833
11
2362.666908
21
50.575549
0
LINE
8
Layer 1
10
2362.666908
20
50.575549
11
2362.179454
21
50.374833
0
LINE
8
Layer 1
10
2362.179454
20
50.374833
11
2361.849706
21
49.701000
0
LINE
8
Layer 1
10
2361.849706
20
49.701000
11
2361.677663
21
48.439350
0
LINE
8
Layer 1
10
2361.677663
20
48.439350
11
2361.620316
21
46.475200
0
LINE
8
Layer 1
10
2361.620316
20
46.475200
11
2361.677663
21
44.511050
0
LINE
8
Layer 1
10
2361.677663
20
44.511050
11
2361.849706
21
43.249400
0
LINE
8
Layer 1
10
2361.849706
20
43.249400
11
2362.179454
21
42.575567
0
LINE
8
Layer 1
10
2362.179454
20
42.575567
11
2362.666908
21
42.374851
0
LINE
8
Layer 1
10
2362.666908
20
42.374851
11
2363.154362
21
42.575567
0
LINE
8
Layer 1
10
2363.154362
20
42.575567
11
2363.469773
21
43.249400
0
LINE
8
Layer 1
10
2363.469773
20
43.249400
11
2363.656152
21
44.511050
0
LINE
8
Layer 1
10
2363.656152
20
44.511050
11
2363.713500
21
46.475200
0
LINE
8
Layer 1
10
2363.713500
20
46.475200
11
2363.713500
21
46.475200
0
LINE
8
Layer 1
10
2518.890000
20
49.457300
11
2519.449138
21
49.844396
0
LINE
8
Layer 1
10
2519.449138
20
49.844396
11
2520.022613
21
50.331850
0
LINE
8
Layer 1
10
2520.022613
20
50.331850
11
2520.524404
21
50.876651
0
LINE
8
Layer 1
10
2520.524404
20
50.876651
11
2520.925837
21
51.435789
0
LINE
8
Layer 1
10
2520.925837
20
51.435789
11
2521.880000
21
51.435800
0
LINE
8
Layer 1
10
2521.880000
20
51.435800
11
2521.880000
21
41.500300
0
LINE
8
Layer 1
10
2521.880000
20
41.500300
11
2520.640000
21
41.500300
0
LINE
8
Layer 1
10
2520.640000
20
41.500300
11
2520.640000
21
49.485900
0
LINE
8
Layer 1
10
2520.640000
20
49.485900
11
2520.066525
21
48.998446
0
LINE
8
Layer 1
10
2520.066525
20
48.998446
11
2519.392692
21
48.568340
0
LINE
8
Layer 1
10
2519.392692
20
48.568340
11
2518.890000
21
49.457300
0
LINE
8
Layer 1
10
2676.820000
20
50.819300
11
2677.759066
21
51.453707
0
LINE
8
Layer 1
10
2677.759066
20
51.453707
11
2678.884510
21
51.665176
0
LINE
8
Layer 1
10
2678.884510
20
51.665176
11
2679.909598
21
51.511054
0
LINE
8
Layer 1
10
2679.909598
20
51.511054
11
2680.662280
21
51.048690
0
LINE
8
Layer 1
10
2680.662280
20
51.048690
11
2681.124645
21
50.274498
0
LINE
8
Layer 1
10
2681.124645
20
50.274498
11
2681.278766
21
49.156220
0
LINE
8
Layer 1
10
2681.278766
20
49.156220
11
2681.078050
21
48.009270
0
LINE
8
Layer 1
10
2681.078050
20
48.009270
11
2680.576259
21
46.948340
0
LINE
8
Layer 1
10
2680.576259
20
46.948340
11
2679.916763
21
45.944760
0
LINE
8
Layer 1
10
2679.916763
20
45.944760
11
2679.228593
21
44.912500
0
LINE
8
Layer 1
10
2679.228593
20
44.912500
11
2678.655118
21
43.822900
0
LINE
8
Layer 1
10
2678.655118
20
43.822900
11
2678.354044
21
42.618600
0
LINE
8
Layer 1
10
2678.354044
20
42.618600
11
2681.480000
21
42.618600
0
LINE
8
Layer 1
10
2681.480000
20
42.618600
11
2681.480000
21
41.500300
0
LINE
8
Layer 1
10
2681.480000
20
41.500300
11
2677.040000
21
41.500300
0
LINE
8
Layer 1
10
2677.040000
20
41.500300
11
2677.040000
21
41.772700
0
LINE
8
Layer 1
10
2677.040000
20
41.772700
11
2677.255053
21
43.478790
0
LINE
8
Layer 1
10
2677.255053
20
43.478790
11
2677.799854
21
44.826460
0
LINE
8
Layer 1
10
2677.799854
20
44.826460
11
2678.516698
21
45.944740
0
LINE
8
Layer 1
10
2678.516698
20
45.944740
11
2679.219205
21
46.948320
0
LINE
8
Layer 1
10
2679.219205
20
46.948320
11
2679.764006
21
47.966240
0
LINE
8
Layer 1
10
2679.764006
20
47.966240
11
2679.993396
21
49.127530
0
LINE
8
Layer 1
10
2679.993396
20
49.127530
11
2679.918128
21
49.779857
0
LINE
8
Layer 1
10
2679.918128
20
49.779857
11
2679.692322
21
50.217130
0
LINE
8
Layer 1
10
2679.692322
20
50.217130
11
2679.315979
21
50.475194
0
LINE
8
Layer 1
10
2679.315979
20
50.475194
11
2678.789099
21
50.561215
0
LINE
8
Layer 1
10
2678.789099
20
50.561215
11
2678.029244
21
50.389172
0
LINE
8
Layer 1
10
2678.029244
20
50.389172
11
2677.427095
21
49.973403
0
LINE
8
Layer 1
10
2677.427095
20
49.973403
11
2676.820000
21
50.819300
0
LINE
8
Layer 1
10
2838.180000
20
46.848000
11
2838.814434
21
46.489578
0
LINE
8
Layer 1
10
2838.814434
20
46.489578
11
2839.284050
21
45.930440
0
LINE
8
Layer 1
10
2839.284050
20
45.930440
11
2839.585040
21
45.188508
0
LINE
8
Layer 1
10
2839.585040
20
45.188508
11
2839.685370
21
44.253030
0
LINE
8
Layer 1
10
2839.685370
20
44.253030
11
2839.516954
21
43.020057
0
LINE
8
Layer 1
10
2839.516954
20
43.020057
11
2839.011706
21
42.073820
0
LINE
8
Layer 1
10
2839.011706
20
42.073820
11
2838.180139
21
41.482424
0
LINE
8
Layer 1
10
2838.180139
20
41.482424
11
2837.004546
21
41.285292
0
LINE
8
Layer 1
10
2837.004546
20
41.285292
11
2835.972176
21
41.442998
0
LINE
8
Layer 1
10
2835.972176
20
41.442998
11
2835.097570
21
41.858767
0
LINE
8
Layer 1
10
2835.097570
20
41.858767
11
2835.427488
21
42.862347
0
LINE
8
Layer 1
10
2835.427488
20
42.862347
11
2836.115545
21
42.518262
0
LINE
8
Layer 1
10
2836.115545
20
42.518262
11
2836.889680
21
42.374893
0
LINE
8
Layer 1
10
2836.889680
20
42.374893
11
2837.538508
21
42.486004
0
LINE
8
Layer 1
10
2837.538508
20
42.486004
11
2838.022520
21
42.819336
0
LINE
8
Layer 1
10
2838.022520
20
42.819336
11
2838.334305
21
43.410731
0
LINE
8
Layer 1
10
2838.334305
20
43.410731
11
2838.438233
21
44.267356
0
LINE
8
Layer 1
10
2838.438233
20
44.267356
11
2838.323510
21
45.134738
0
LINE
8
Layer 1
10
2838.323510
20
45.134738
11
2837.979340
21
45.758396
0
LINE
8
Layer 1
10
2837.979340
20
45.758396
11
2837.398667
21
46.134739
0
LINE
8
Layer 1
10
2837.398667
20
46.134739
11
2836.545650
21
46.260187
0
LINE
8
Layer 1
10
2836.545650
20
46.260187
11
2836.170000
21
46.260100
0
LINE
8
Layer 1
10
2836.170000
20
46.260100
11
2836.170000
21
47.306700
0
LINE
8
Layer 1
10
2836.170000
20
47.306700
11
2836.490000
21
47.306700
0
LINE
8
Layer 1
10
2836.490000
20
47.306700
11
2837.239089
21
47.421395
0
LINE
8
Layer 1
10
2837.239089
20
47.421395
11
2837.765930
21
47.765480
0
LINE
8
Layer 1
10
2837.765930
20
47.765480
11
2838.077715
21
48.313865
0
LINE
8
Layer 1
10
2838.077715
20
48.313865
11
2838.181643
21
49.041460
0
LINE
8
Layer 1
10
2838.181643
20
49.041460
11
2838.099234
21
49.715293
0
LINE
8
Layer 1
10
2838.099234
20
49.715293
11
2837.852008
21
50.188410
0
LINE
8
Layer 1
10
2837.852008
20
50.188410
11
2837.468539
21
50.478732
0
LINE
8
Layer 1
10
2837.468539
20
50.478732
11
2836.977402
21
50.575506
0
LINE
8
Layer 1
10
2836.977402
20
50.575506
11
2836.260558
21
50.432137
0
LINE
8
Layer 1
10
2836.260558
20
50.432137
11
2835.687083
21
50.073715
0
LINE
8
Layer 1
10
2835.687083
20
50.073715
11
2835.199686
21
50.976938
0
LINE
8
Layer 1
10
2835.199686
20
50.976938
11
2836.074292
21
51.493066
0
LINE
8
Layer 1
10
2836.074292
20
51.493066
11
2837.092262
21
51.665109
0
LINE
8
Layer 1
10
2837.092262
20
51.665109
11
2838.081449
21
51.489482
0
LINE
8
Layer 1
10
2838.081449
20
51.489482
11
2838.812692
21
50.962602
0
LINE
8
Layer 1
10
2838.812692
20
50.962602
11
2839.264177
21
50.145401
0
LINE
8
Layer 1
10
2839.264177
20
50.145401
11
2839.414672
21
49.098812
0
LINE
8
Layer 1
10
2839.414672
20
49.098812
11
2839.332263
21
48.342541
0
LINE
8
Layer 1
10
2839.332263
20
48.342541
11
2839.085037
21
47.708132
0
LINE
8
Layer 1
10
2839.085037
20
47.708132
11
2838.701427
21
47.213510
0
LINE
8
Layer 1
10
2838.701427
20
47.213510
11
2838.181644
21
46.847919
0
LINE
8
Layer 1
10
2838.181644
20
46.847919
11
2838.180000
21
46.848000
0
LINE
8
Layer 1
10
2993.400000
20
44.826500
11
2994.059553
21
46.704630
0
LINE
8
Layer 1
10
2994.059553
20
46.704630
11
2994.891261
21
48.611430
0
LINE
8
Layer 1
10
2994.891261
20
48.611430
11
2995.708294
21
50.274510
0
LINE
8
Layer 1
10
2995.708294
20
50.274510
11
2996.353453
21
51.435800
0
LINE
8
Layer 1
10
2996.353453
20
51.435800
11
2997.620000
21
51.435800
0
LINE
8
Layer 1
10
2997.620000
20
51.435800
11
2997.620000
21
44.941200
0
LINE
8
Layer 1
10
2997.620000
20
44.941200
11
2998.590000
21
44.941200
0
LINE
8
Layer 1
10
2998.590000
20
44.941200
11
2998.590000
21
43.923200
0
LINE
8
Layer 1
10
2998.590000
20
43.923200
11
2997.620000
21
43.923200
0
LINE
8
Layer 1
10
2997.620000
20
43.923200
11
2997.620000
21
41.500300
0
LINE
8
Layer 1
10
2997.620000
20
41.500300
11
2996.480000
21
41.500300
0
LINE
8
Layer 1
10
2996.480000
20
41.500300
11
2996.480000
21
43.923200
0
LINE
8
Layer 1
10
2996.480000
20
43.923200
11
2993.400000
21
43.923200
0
LINE
8
Layer 1
10
2993.400000
20
43.923200
11
2993.400000
21
44.826500
0
LINE
8
Layer 1
10
2996.482430
20
44.941195
11
2996.480000
21
49.787000
0
LINE
8
Layer 1
10
2996.480000
20
49.787000
11
2995.978209
21
48.769080
0
LINE
8
Layer 1
10
2995.978209
20
48.769080
11
2995.419127
21
47.550450
0
LINE
8
Layer 1
10
2995.419127
20
47.550450
11
2994.888832
21
46.231460
0
LINE
8
Layer 1
10
2994.888832
20
46.231460
11
2994.444332
21
44.941140
0
LINE
8
Layer 1
10
2994.444332
20
44.941140
11
2996.482430
21
44.941195
0
LINE
8
Layer 1
10
3153.840000
20
50.360500
11
3153.739529
21
48.640070
0
LINE
8
Layer 1
10
3153.739529
20
48.640070
11
3153.682238
21
47.550470
0
LINE
8
Layer 1
10
3153.682238
20
47.550470
11
3154.850638
21
47.213554
0
LINE
8
Layer 1
10
3154.850638
20
47.213554
11
3155.660618
21
46.575562
0
LINE
8
Layer 1
10
3155.660618
20
46.575562
11
3156.133692
21
45.647250
0
LINE
8
Layer 1
10
3156.133692
20
45.647250
11
3156.291384
21
44.439372
0
LINE
8
Layer 1
10
3156.291384
20
44.439372
11
3156.076331
21
43.091702
0
LINE
8
Layer 1
10
3156.076331
20
43.091702
11
3155.474351
21
42.102457
0
LINE
8
Layer 1
10
3155.474351
20
42.102457
11
3154.585352
21
41.500308
0
LINE
8
Layer 1
10
3154.585352
20
41.500308
11
3153.467192
21
41.285255
0
LINE
8
Layer 1
10
3153.467192
20
41.285255
11
3152.621373
21
41.399950
0
LINE
8
Layer 1
10
3152.621373
20
41.399950
11
3151.818451
21
41.729698
0
LINE
8
Layer 1
10
3151.818451
20
41.729698
11
3152.162480
21
42.747618
0
LINE
8
Layer 1
10
3152.162480
20
42.747618
11
3152.786049
21
42.489554
0
LINE
8
Layer 1
10
3152.786049
20
42.489554
11
3153.424010
21
42.403533
0
LINE
8
Layer 1
10
3153.424010
20
42.403533
11
3154.058514
21
42.528981
0
LINE
8
Layer 1
10
3154.058514
20
42.528981
11
3154.585350
21
42.905324
0
LINE
8
Layer 1
10
3154.585350
20
42.905324
11
3154.940314
21
43.539732
0
LINE
8
Layer 1
10
3154.940314
20
43.539732
11
3155.058636
21
44.439374
0
LINE
8
Layer 1
10
3155.058636
20
44.439374
11
3154.897346
21
45.410697
0
LINE
8
Layer 1
10
3154.897346
20
45.410697
11
3154.413477
21
46.059444
0
LINE
8
Layer 1
10
3154.413477
20
46.059444
11
3153.614083
21
46.450124
0
LINE
8
Layer 1
10
3153.614083
20
46.450124
11
3152.477997
21
46.618582
0
LINE
8
Layer 1
10
3152.477997
20
46.618582
11
3152.592579
21
47.923242
0
LINE
8
Layer 1
10
3152.592579
20
47.923242
11
3152.664263
21
49.084532
0
LINE
8
Layer 1
10
3152.664263
20
49.084532
11
3152.707161
21
50.217142
0
LINE
8
Layer 1
10
3152.707161
20
50.217142
11
3152.750341
21
51.435772
0
LINE
8
Layer 1
10
3152.750341
20
51.435772
11
3156.110000
21
51.435800
0
LINE
8
Layer 1
10
3156.110000
20
51.435800
11
3156.110000
21
50.360500
0
LINE
8
Layer 1
10
3156.110000
20
50.360500
11
3153.840000
21
50.360500
0
LINE
8
Layer 1
10
3314.390000
20
50.460800
11
3313.386420
21
50.217073
0
LINE
8
Layer 1
10
3313.386420
20
50.217073
11
3312.583498
21
49.700945
0
LINE
8
Layer 1
10
3312.583498
20
49.700945
11
3311.981518
21
48.783385
0
LINE
8
Layer 1
10
3311.981518
20
48.783385
11
3311.637489
21
47.349695
0
LINE
8
Layer 1
10
3311.637489
20
47.349695
11
3312.210964
21
47.536074
0
LINE
8
Layer 1
10
3312.210964
20
47.536074
11
3312.741259
21
47.593421
0
LINE
8
Layer 1
10
3312.741259
20
47.593421
11
3313.655306
21
47.389121
0
LINE
8
Layer 1
10
3313.655306
20
47.389121
11
3314.332709
21
46.776219
0
LINE
8
Layer 1
10
3314.332709
20
46.776219
11
3314.762815
21
45.819232
0
LINE
8
Layer 1
10
3314.762815
20
45.819232
11
3314.906184
21
44.553999
0
LINE
8
Layer 1
10
3314.906184
20
44.553999
11
3314.770012
21
43.195580
0
LINE
8
Layer 1
10
3314.770012
20
43.195580
11
3314.361496
21
42.159739
0
LINE
8
Layer 1
10
3314.361496
20
42.159739
11
3313.673228
21
41.503827
0
LINE
8
Layer 1
10
3313.673228
20
41.503827
11
3312.669576
21
41.285189
0
LINE
8
Layer 1
10
3312.669576
20
41.285189
11
3311.637486
21
41.514579
0
LINE
8
Layer 1
10
3311.637486
20
41.514579
11
3311.228828
21
41.815654
0
LINE
8
Layer 1
10
3311.228828
20
41.815654
11
3310.891855
21
42.260097
0
LINE
8
Layer 1
10
3310.891855
20
42.260097
11
3310.447355
21
43.636437
0
LINE
8
Layer 1
10
3310.447355
20
43.636437
11
3310.303986
21
45.729617
0
LINE
8
Layer 1
10
3310.303986
20
45.729617
11
3310.504646
21
47.822797
0
LINE
8
Layer 1
10
3310.504646
20
47.822797
11
3310.780659
21
48.783370
0
LINE
8
Layer 1
10
3310.780659
20
48.783370
11
3311.178592
21
49.629247
0
LINE
8
Layer 1
10
3311.178592
20
49.629247
11
3311.719752
21
50.356845
0
LINE
8
Layer 1
10
3311.719752
20
50.356845
11
3312.397222
21
50.933907
0
LINE
8
Layer 1
10
3312.397222
20
50.933907
11
3313.243040
21
51.321003
0
LINE
8
Layer 1
10
3313.243040
20
51.321003
11
3314.261012
21
51.478708
0
LINE
8
Layer 1
10
3314.261012
20
51.478708
11
3314.390000
21
50.460800
0
LINE
8
Layer 1
10
3312.440130
20
46.589840
11
3311.981519
21
46.503819
0
LINE
8
Layer 1
10
3311.981519
20
46.503819
11
3311.551413
21
46.317440
0
LINE
8
Layer 1
10
3311.551413
20
46.317440
11
3311.537302
21
45.959018
0
LINE
8
Layer 1
10
3311.537302
20
45.959018
11
3311.537302
21
45.600596
0
LINE
8
Layer 1
10
3311.537302
20
45.600596
11
3311.566089
21
44.338946
0
LINE
8
Layer 1
10
3311.566089
20
44.338946
11
3311.723569
21
43.292356
0
LINE
8
Layer 1
10
3311.723569
20
43.292356
11
3312.053486
21
42.575512
0
LINE
8
Layer 1
10
3312.053486
20
42.575512
11
3312.655466
21
42.317448
0
LINE
8
Layer 1
10
3312.655466
20
42.317448
11
3313.128753
21
42.464401
0
LINE
8
Layer 1
10
3313.128753
20
42.464401
11
3313.429883
21
42.905260
0
LINE
8
Layer 1
10
3313.429883
20
42.905260
11
3313.659047
21
44.496650
0
LINE
8
Layer 1
10
3313.659047
20
44.496650
11
3313.583835
21
45.428550
0
LINE
8
Layer 1
10
3313.583835
20
45.428550
11
3313.358198
21
46.073710
0
LINE
8
Layer 1
10
3313.358198
20
46.073710
11
3312.985383
21
46.460806
0
LINE
8
Layer 1
10
3312.985383
20
46.460806
11
3312.440412
21
46.589838
0
LINE
8
Layer 1
10
3312.440412
20
46.589838
11
3312.440130
21
46.589840
0
LINE
8
Layer 1
10
3469.360000
20
41.500300
11
3469.503369
21
42.977000
0
LINE
8
Layer 1
10
3469.503369
20
42.977000
11
3469.818611
21
44.597070
0
LINE
8
Layer 1
10
3469.818611
20
44.597070
11
3470.220213
21
46.231470
0
LINE
8
Layer 1
10
3470.220213
20
46.231470
11
3470.707610
21
47.808530
0
LINE
8
Layer 1
10
3470.707610
20
47.808530
11
3471.223794
21
49.213540
0
LINE
8
Layer 1
10
3471.223794
20
49.213540
11
3471.739978
21
50.346150
0
LINE
8
Layer 1
10
3471.739978
20
50.346150
11
3468.350000
21
50.346200
0
LINE
8
Layer 1
10
3468.350000
20
50.346200
11
3468.350000
21
51.435800
0
LINE
8
Layer 1
10
3468.350000
20
51.435800
11
3473.130000
21
51.435800
0
LINE
8
Layer 1
10
3473.130000
20
51.435800
11
3473.130000
21
50.475200
0
LINE
8
Layer 1
10
3473.130000
20
50.475200
11
3472.370258
21
48.941150
0
LINE
8
Layer 1
10
3472.370258
20
48.941150
11
3471.581730
21
46.761940
0
LINE
8
Layer 1
10
3471.581730
20
46.761940
11
3470.950964
21
44.195640
0
LINE
8
Layer 1
10
3470.950964
20
44.195640
11
3470.621046
21
41.500310
0
LINE
8
Layer 1
10
3470.621046
20
41.500310
11
3469.360000
21
41.500300
0
LINE
8
Layer 1
10
3631.360000
20
49.242200
11
3631.256072
21
48.446503
0
LINE
8
Layer 1
10
3631.256072
20
48.446503
11
3630.944287
21
47.722490
0
LINE
8
Layer 1
10
3630.944287
20
47.722490
11
3629.997997
21
46.546870
0
LINE
8
Layer 1
10
3629.997997
20
46.546870
11
3631.044757
21
45.471600
0
LINE
8
Layer 1
10
3631.044757
20
45.471600
11
3631.377920
21
44.794182
0
LINE
8
Layer 1
10
3631.377920
20
44.794182
11
3631.488974
21
43.994900
0
LINE
8
Layer 1
10
3631.488974
20
43.994900
11
3631.273921
21
42.804940
0
LINE
8
Layer 1
10
3631.273921
20
42.804940
11
3630.729233
21
41.959064
0
LINE
8
Layer 1
10
3630.729233
20
41.959064
11
3629.969491
21
41.457273
0
LINE
8
Layer 1
10
3629.969491
20
41.457273
11
3629.080492
21
41.285230
0
LINE
8
Layer 1
10
3629.080492
20
41.285230
11
3628.105697
21
41.485946
0
LINE
8
Layer 1
10
3628.105697
20
41.485946
11
3627.345673
21
42.002074
0
LINE
8
Layer 1
10
3627.345673
20
42.002074
11
3626.858276
21
42.819276
0
LINE
8
Layer 1
10
3626.858276
20
42.819276
11
3626.686121
21
43.851536
0
LINE
8
Layer 1
10
3626.686121
20
43.851536
11
3626.782923
21
44.690244
0
LINE
8
Layer 1
10
3626.782923
20
44.690244
11
3627.073330
21
45.428596
0
LINE
8
Layer 1
10
3627.073330
20
45.428596
11
3627.539207
21
46.088092
0
LINE
8
Layer 1
10
3627.539207
20
46.088092
11
3628.134200
21
46.661566
0
LINE
8
Layer 1
10
3628.134200
20
46.661566
11
3627.245483
21
47.708156
0
LINE
8
Layer 1
10
3627.245483
20
47.708156
11
3626.987250
21
48.407078
0
LINE
8
Layer 1
10
3626.987250
20
48.407078
11
3626.901172
21
49.213526
0
LINE
8
Layer 1
10
3626.901172
20
49.213526
11
3627.102114
21
50.317466
0
LINE
8
Layer 1
10
3627.102114
20
50.317466
11
3627.618016
21
51.091657
0
LINE
8
Layer 1
10
3627.618016
20
51.091657
11
3628.349253
21
51.521763
0
LINE
8
Layer 1
10
3628.349253
20
51.521763
11
3629.166568
21
51.665132
0
LINE
8
Layer 1
10
3629.166568
20
51.665132
11
3629.955096
21
51.521763
0
LINE
8
Layer 1
10
3629.955096
20
51.521763
11
3630.671940
21
51.091657
0
LINE
8
Layer 1
10
3630.671940
20
51.091657
11
3631.173731
21
50.346139
0
LINE
8
Layer 1
10
3631.173731
20
50.346139
11
3631.359998
21
49.242199
0
LINE
8
Layer 1
10
3631.359998
20
49.242199
11
3631.360000
21
49.242200
0
LINE
8
Layer 1
10
3630.284730
20
43.908880
11
3630.155755
21
44.597050
0
LINE
8
Layer 1
10
3630.155755
20
44.597050
11
3629.840231
21
45.199199
0
LINE
8
Layer 1
10
3629.840231
20
45.199199
11
3629.381620
21
45.715327
0
LINE
8
Layer 1
10
3629.381620
20
45.715327
11
3628.865436
21
46.145433
0
LINE
8
Layer 1
10
3628.865436
20
46.145433
11
3628.177379
21
45.242210
0
LINE
8
Layer 1
10
3628.177379
20
45.242210
11
3627.972909
21
44.661566
0
LINE
8
Layer 1
10
3627.972909
20
44.661566
11
3627.904753
21
43.951890
0
LINE
8
Layer 1
10
3627.904753
20
43.951890
11
3627.983634
21
43.252967
0
LINE
8
Layer 1
10
3627.983634
20
43.252967
11
3628.220277
21
42.704580
0
LINE
8
Layer 1
10
3628.220277
20
42.704580
11
3628.607344
21
42.360495
0
LINE
8
Layer 1
10
3628.607344
20
42.360495
11
3629.109276
21
42.245800
0
LINE
8
Layer 1
10
3629.109276
20
42.245800
11
3629.550036
21
42.349742
0
LINE
8
Layer 1
10
3629.550036
20
42.349742
11
3629.926309
21
42.661569
0
LINE
8
Layer 1
10
3629.926309
20
42.661569
11
3630.195125
21
43.188449
0
LINE
8
Layer 1
10
3630.195125
20
43.188449
11
3630.284731
21
43.908879
0
LINE
8
Layer 1
10
3630.284731
20
43.908879
11
3630.284730
21
43.908880
0
LINE
8
Layer 1
10
3628.105690
20
49.371230
11
3628.177374
21
48.554028
0
LINE
8
Layer 1
10
3628.177374
20
48.554028
11
3628.392427
21
47.937542
0
LINE
8
Layer 1
10
3628.392427
20
47.937542
11
3628.736456
21
47.464425
0
LINE
8
Layer 1
10
3628.736456
20
47.464425
11
3629.223853
21
47.062992
0
LINE
8
Layer 1
10
3629.223853
20
47.062992
11
3629.869012
21
47.937542
0
LINE
8
Layer 1
10
3629.869012
20
47.937542
11
3630.062476
21
48.478758
0
LINE
8
Layer 1
10
3630.062476
20
48.478758
11
3630.126963
21
49.156172
0
LINE
8
Layer 1
10
3630.126963
20
49.156172
11
3630.055279
21
49.894522
0
LINE
8
Layer 1
10
3630.055279
20
49.894522
11
3629.840225
21
50.360472
0
LINE
8
Layer 1
10
3629.840225
20
50.360472
11
3629.521244
21
50.618536
0
LINE
8
Layer 1
10
3629.521244
20
50.618536
11
3629.137774
21
50.704557
0
LINE
8
Layer 1
10
3629.137774
20
50.704557
11
3628.793745
21
50.647209
0
LINE
8
Layer 1
10
3628.793745
20
50.647209
11
3628.449716
21
50.432156
0
LINE
8
Layer 1
10
3628.449716
20
50.432156
11
3628.205876
21
50.030723
0
LINE
8
Layer 1
10
3628.205876
20
50.030723
11
3628.105687
21
49.371227
0
LINE
8
Layer 1
10
3628.105687
20
49.371227
11
3628.105690
21
49.371230
0
LINE
8
Layer 1
10
3785.560000
20
42.518200
11
3786.563580
21
42.733253
0
LINE
8
Layer 1
10
3786.563580
20
42.733253
11
3787.395288
21
43.249381
0
LINE
8
Layer 1
10
3787.395288
20
43.249381
11
3787.997268
21
44.152604
0
LINE
8
Layer 1
10
3787.997268
20
44.152604
11
3788.370083
21
45.586294
0
LINE
8
Layer 1
10
3788.370083
20
45.586294
11
3787.323603
21
45.356904
0
LINE
8
Layer 1
10
3787.323603
20
45.356904
11
3786.402358
21
45.557620
0
LINE
8
Layer 1
10
3786.402358
20
45.557620
11
3785.703363
21
46.159769
0
LINE
8
Layer 1
10
3785.703363
20
46.159769
11
3785.273257
21
47.127507
0
LINE
8
Layer 1
10
3785.273257
20
47.127507
11
3785.129888
21
48.396319
0
LINE
8
Layer 1
10
3785.129888
20
48.396319
11
3785.262532
21
49.754739
0
LINE
8
Layer 1
10
3785.262532
20
49.754739
11
3785.660465
21
50.790579
0
LINE
8
Layer 1
10
3785.660465
20
50.790579
11
3786.359316
21
51.446491
0
LINE
8
Layer 1
10
3786.359316
20
51.446491
11
3787.366495
21
51.665129
0
LINE
8
Layer 1
10
3787.366495
20
51.665129
11
3788.398865
21
51.435739
0
LINE
8
Layer 1
10
3788.398865
20
51.435739
11
3788.803924
21
51.131080
0
LINE
8
Layer 1
10
3788.803924
20
51.131080
11
3789.130102
21
50.675884
0
LINE
8
Layer 1
10
3789.130102
20
50.675884
11
3789.574319
21
49.299544
0
LINE
8
Layer 1
10
3789.574319
20
49.299544
11
3789.732081
21
47.220694
0
LINE
8
Layer 1
10
3789.732081
20
47.220694
11
3789.517028
21
45.113174
0
LINE
8
Layer 1
10
3789.517028
20
45.113174
11
3789.248282
21
44.149019
0
LINE
8
Layer 1
10
3789.248282
20
44.149019
11
3788.843364
21
43.292394
0
LINE
8
Layer 1
10
3788.843364
20
43.292394
11
3788.294866
21
42.575550
0
LINE
8
Layer 1
10
3788.294866
20
42.575550
11
3787.595944
21
42.002074
0
LINE
8
Layer 1
10
3787.595944
20
42.002074
11
3786.732204
21
41.625731
0
LINE
8
Layer 1
10
3786.732204
20
41.625731
11
3785.689254
21
41.471610
0
LINE
8
Layer 1
10
3785.689254
20
41.471610
11
3785.560000
21
42.518200
0
LINE
8
Layer 1
10
3787.624740
20
46.360480
11
3788.470559
21
46.618544
0
LINE
8
Layer 1
10
3788.470559
20
46.618544
11
3788.470559
21
46.962629
0
LINE
8
Layer 1
10
3788.470559
20
46.962629
11
3788.484670
21
47.349725
0
LINE
8
Layer 1
10
3788.484670
20
47.349725
11
3788.455883
21
48.597035
0
LINE
8
Layer 1
10
3788.455883
20
48.597035
11
3788.312514
21
49.643625
0
LINE
8
Layer 1
10
3788.312514
20
49.643625
11
3787.968486
21
50.360469
0
LINE
8
Layer 1
10
3787.968486
20
50.360469
11
3787.713992
21
50.564770
0
LINE
8
Layer 1
10
3787.713992
20
50.564770
11
3787.380617
21
50.632870
0
LINE
8
Layer 1
10
3787.380617
20
50.632870
11
3786.903944
21
50.482333
0
LINE
8
Layer 1
10
3786.903944
20
50.482333
11
3786.592089
21
50.030721
0
LINE
8
Layer 1
10
3786.592089
20
50.030721
11
3786.377037
21
48.453661
0
LINE
8
Layer 1
10
3786.377037
20
48.453661
11
3786.452319
21
47.518179
0
LINE
8
Layer 1
10
3786.452319
20
47.518179
11
3786.678168
21
46.862271
0
LINE
8
Layer 1
10
3786.678168
20
46.862271
11
3787.072361
21
46.485928
0
LINE
8
Layer 1
10
3787.072361
20
46.485928
11
3787.624458
21
46.360480
0
LINE
8
Layer 1
10
3787.624458
20
46.360480
11
3787.624740
21
46.360480
0
LINE
8
Layer 1
10
3945.140000
20
42.174100
11
3944.896160
21
41.586288
0
LINE
8
Layer 1
10
3944.896160
20
41.586288
11
3944.279787
21
41.328224
0
LINE
8
Layer 1
10
3944.279787
20
41.328224
11
3943.663132
21
41.586288
0
LINE
8
Layer 1
10
3943.663132
20
41.586288
11
3943.433686
21
42.174100
0
LINE
8
Layer 1
10
3943.433686
20
42.174100
11
3943.663132
21
42.776249
0
LINE
8
Layer 1
10
3943.663132
20
42.776249
11
3944.279787
21
43.034313
0
LINE
8
Layer 1
10
3944.279787
20
43.034313
11
3944.896160
21
42.776249
0
LINE
8
Layer 1
10
3944.896160
20
42.776249
11
3945.140000
21
42.174100
0
LINE
8
Layer 1
10
3945.140000
20
42.174100
11
3945.140000
21
42.174100
0
LINE
8
Layer 1
10
3945.140000
20
48.353290
11
3944.896160
21
47.765478
0
LINE
8
Layer 1
10
3944.896160
20
47.765478
11
3944.279787
21
47.507414
0
LINE
8
Layer 1
10
3944.279787
20
47.507414
11
3943.663132
21
47.765478
0
LINE
8
Layer 1
10
3943.663132
20
47.765478
11
3943.433686
21
48.353290
0
LINE
8
Layer 1
10
3943.433686
20
48.353290
11
3943.663132
21
48.955439
0
LINE
8
Layer 1
10
3943.663132
20
48.955439
11
3944.279787
21
49.213503
0
LINE
8
Layer 1
10
3944.279787
20
49.213503
11
3944.896160
21
48.955439
0
LINE
8
Layer 1
10
3944.896160
20
48.955439
11
3945.140000
21
48.353290
0
LINE
8
Layer 1
10
3945.140000
20
48.353290
11
3945.140000
21
48.353290
0
LINE
8
Layer 1
10
4100.290000
20
43.134700
11
4100.304111
21
42.905310
0
LINE
8
Layer 1
10
4100.304111
20
42.905310
11
4100.304111
21
42.690257
0
LINE
8
Layer 1
10
4100.304111
20
42.690257
11
4100.046160
21
40.926817
0
LINE
8
Layer 1
10
4100.046160
20
40.926817
11
4099.343709
21
39.292417
0
LINE
8
Layer 1
10
4099.343709
20
39.292417
11
4098.469103
21
39.550481
0
LINE
8
Layer 1
10
4098.469103
20
39.550481
11
4098.942107
21
41.041521
0
LINE
8
Layer 1
10
4098.942107
20
41.041521
11
4099.056971
21
42.446531
0
LINE
8
Layer 1
10
4099.056971
20
42.446531
11
4099.042860
21
42.804953
0
LINE
8
Layer 1
10
4099.042860
20
42.804953
11
4099.028749
21
43.134701
0
LINE
8
Layer 1
10
4099.028749
20
43.134701
11
4100.290000
21
43.134700
0
LINE
8
Layer 1
10
4100.605524
20
48.353320
11
4100.361684
21
47.765508
0
LINE
8
Layer 1
10
4100.361684
20
47.765508
11
4099.745311
21
47.507444
0
LINE
8
Layer 1
10
4099.745311
20
47.507444
11
4099.128938
21
47.765508
0
LINE
8
Layer 1
10
4099.128938
20
47.765508
11
4098.899492
21
48.353320
0
LINE
8
Layer 1
10
4098.899492
20
48.353320
11
4099.128938
21
48.955469
0
LINE
8
Layer 1
10
4099.128938
20
48.955469
11
4099.745311
21
49.213533
0
LINE
8
Layer 1
10
4099.745311
20
49.213533
11
4100.361684
21
48.955469
0
LINE
8
Layer 1
10
4100.361684
20
48.955469
11
4100.605524
21
48.353320
0
LINE
8
Layer 1
10
4100.605524
20
48.353320
11
4100.605524
21
48.353320
0
LINE
8
Layer 1
10
4254.200000
20
45.270900
11
4254.200000
21
46.159800
0
LINE
8
Layer 1
10
4254.200000
20
46.159800
11
4258.515460
21
48.797790
0
LINE
8
Layer 1
10
4258.515460
20
48.797790
11
4259.046037
21
47.865893
0
LINE
8
Layer 1
10
4259.046037
20
47.865893
11
4255.390137
21
45.715363
0
LINE
8
Layer 1
10
4255.390137
20
45.715363
11
4259.046037
21
43.564833
0
LINE
8
Layer 1
10
4259.046037
20
43.564833
11
4258.515460
21
42.632936
0
LINE
8
Layer 1
10
4258.515460
20
42.632936
11
4254.200000
21
45.270900
0
LINE
8
Layer 1
10
4412.460000
20
47.693800
11
4417.400000
21
47.693800
0
LINE
8
Layer 1
10
4417.400000
20
47.693800
11
4417.400000
21
46.647200
0
LINE
8
Layer 1
10
4417.400000
20
46.647200
11
4412.460000
21
46.647200
0
LINE
8
Layer 1
10
4412.460000
20
46.647200
11
4412.460000
21
47.693800
0
LINE
8
Layer 1
10
4412.460000
20
44.926780
11
4417.400000
21
44.926800
0
LINE
8
Layer 1
10
4417.400000
20
44.926800
11
4417.400000
21
43.880200
0
LINE
8
Layer 1
10
4417.400000
20
43.880200
11
4412.460000
21
43.880200
0
LINE
8
Layer 1
10
4412.460000
20
43.880200
11
4412.460000
21
44.926780
0
LINE
8
Layer 1
10
4571.340000
20
42.632900
11
4570.809705
21
43.564797
0
LINE
8
Layer 1
10
4570.809705
20
43.564797
11
4574.465605
21
45.715327
0
LINE
8
Layer 1
10
4574.465605
20
45.715327
11
4570.809705
21
47.865857
0
LINE
8
Layer 1
10
4570.809705
20
47.865857
11
4571.340000
21
48.797754
0
LINE
8
Layer 1
10
4571.340000
20
48.797754
11
4575.655460
21
46.159764
0
LINE
8
Layer 1
10
4575.655460
20
46.159764
11
4575.660000
21
45.270900
0
LINE
8
Layer 1
10
4575.660000
20
45.270900
11
4571.340000
21
42.632900
0
LINE
8
Layer 1
10
4730.490000
20
50.575500
11
4729.787549
21
50.446468
0
LINE
8
Layer 1
10
4729.787549
20
50.446468
11
4729.242861
21
50.116720
0
LINE
8
Layer 1
10
4729.242861
20
50.116720
11
4728.755464
21
51.062954
0
LINE
8
Layer 1
10
4728.755464
20
51.062954
11
4729.615677
21
51.493060
0
LINE
8
Layer 1
10
4729.615677
20
51.493060
11
4730.633367
21
51.665103
0
LINE
8
Layer 1
10
4730.633367
20
51.665103
11
4731.737417
21
51.478724
0
LINE
8
Layer 1
10
4731.737417
20
51.478724
11
4732.483048
21
50.976933
0
LINE
8
Layer 1
10
4732.483048
20
50.976933
11
4732.898761
21
50.274426
0
LINE
8
Layer 1
10
4732.898761
20
50.274426
11
4733.042130
21
49.442887
0
LINE
8
Layer 1
10
4733.042130
20
49.442887
11
4732.884368
21
48.539664
0
LINE
8
Layer 1
10
4732.884368
20
48.539664
11
4732.497159
21
47.808483
0
LINE
8
Layer 1
10
4732.497159
20
47.808483
11
4731.995368
21
47.163324
0
LINE
8
Layer 1
10
4731.995368
20
47.163324
11
4731.493577
21
46.518165
0
LINE
8
Layer 1
10
4731.493577
20
46.518165
11
4731.106651
21
45.801321
0
LINE
8
Layer 1
10
4731.106651
20
45.801321
11
4730.963282
21
44.912435
0
LINE
8
Layer 1
10
4730.963282
20
44.912435
11
4730.963282
21
44.754729
0
LINE
8
Layer 1
10
4730.963282
20
44.754729
11
4730.977393
21
44.597023
0
LINE
8
Layer 1
10
4730.977393
20
44.597023
11
4729.860000
21
44.597100
0
LINE
8
Layer 1
10
4729.860000
20
44.597100
11
4729.817102
21
45.199249
0
LINE
8
Layer 1
10
4729.817102
20
45.199249
11
4729.946077
21
46.073799
0
LINE
8
Layer 1
10
4729.946077
20
46.073799
11
4730.290106
21
46.776306
0
LINE
8
Layer 1
10
4730.290106
20
46.776306
11
4730.748999
21
47.364118
0
LINE
8
Layer 1
10
4730.748999
20
47.364118
11
4731.193499
21
47.923256
0
LINE
8
Layer 1
10
4731.193499
20
47.923256
11
4731.537528
21
48.554079
0
LINE
8
Layer 1
10
4731.537528
20
48.554079
11
4731.680897
21
49.342607
0
LINE
8
Layer 1
10
4731.680897
20
49.342607
11
4731.602016
21
49.862319
0
LINE
8
Layer 1
10
4731.602016
20
49.862319
11
4731.365373
21
50.245830
0
LINE
8
Layer 1
10
4731.365373
20
50.245830
11
4730.989101
21
50.493141
0
LINE
8
Layer 1
10
4730.989101
20
50.493141
11
4730.490767
21
50.575578
0
LINE
8
Layer 1
10
4730.490767
20
50.575578
11
4730.490000
21
50.575500
0
LINE
8
Layer 1
10
4731.336102
20
42.159750
11
4731.092262
21
41.571938
0
LINE
8
Layer 1
10
4731.092262
20
41.571938
11
4730.475889
21
41.313874
0
LINE
8
Layer 1
10
4730.475889
20
41.313874
11
4729.859234
21
41.571938
0
LINE
8
Layer 1
10
4729.859234
20
41.571938
11
4729.629788
21
42.159750
0
LINE
8
Layer 1
10
4729.629788
20
42.159750
11
4729.859234
21
42.761899
0
LINE
8
Layer 1
10
4729.859234
20
42.761899
11
4730.475889
21
43.019963
0
LINE
8
Layer 1
10
4730.475889
20
43.019963
11
4731.092262
21
42.761899
0
LINE
8
Layer 1
10
4731.092262
20
42.761899
11
4731.336102
21
42.159750
0
LINE
8
Layer 1
10
4731.336102
20
42.159750
11
4731.336102
21
42.159750
0
LINE
8
Layer 1
10
4894.180000
20
42.116800
11
4893.276607
21
42.274506
0
LINE
8
Layer 1
10
4893.276607
20
42.274506
11
4892.717525
21
42.675939
0
LINE
8
Layer 1
10
4892.717525
20
42.675939
11
4892.115545
21
42.288843
0
LINE
8
Layer 1
10
4892.115545
20
42.288843
11
4891.441599
21
42.174148
0
LINE
8
Layer 1
10
4891.441599
20
42.174148
11
4890.420099
21
42.385617
0
LINE
8
Layer 1
10
4890.420099
20
42.385617
11
4889.678279
21
43.020024
0
LINE
8
Layer 1
10
4889.678279
20
43.020024
11
4889.226583
21
44.063032
0
LINE
8
Layer 1
10
4889.226583
20
44.063032
11
4889.076017
21
45.500304
0
LINE
8
Layer 1
10
4889.076017
20
45.500304
11
4889.244504
21
46.873061
0
LINE
8
Layer 1
10
4889.244504
20
46.873061
11
4889.749963
21
47.923234
0
LINE
8
Layer 1
10
4889.749963
20
47.923234
11
4890.574264
21
48.600651
0
LINE
8
Layer 1
10
4890.574264
20
48.600651
11
4891.671053
21
48.826457
0
LINE
8
Layer 1
10
4891.671053
20
48.826457
11
4892.746323
21
48.697425
0
LINE
8
Layer 1
10
4892.746323
20
48.697425
11
4893.491671
21
48.468035
0
LINE
8
Layer 1
10
4893.491671
20
48.468035
11
4893.490000
21
44.253000
0
LINE
8
Layer 1
10
4893.490000
20
44.253000
11
4893.633369
21
43.378450
0
LINE
8
Layer 1
10
4893.633369
20
43.378450
11
4893.844895
21
43.184902
0
LINE
8
Layer 1
10
4893.844895
20
43.184902
11
4894.192733
21
43.120386
0
LINE
8
Layer 1
10
4894.192733
20
43.120386
11
4894.690784
21
43.317518
0
LINE
8
Layer 1
10
4894.690784
20
43.317518
11
4895.009766
21
43.908914
0
LINE
8
Layer 1
10
4895.009766
20
43.908914
11
4895.192646
21
44.869486
0
LINE
8
Layer 1
10
4895.192646
20
44.869486
11
4895.253606
21
46.174144
0
LINE
8
Layer 1
10
4895.253606
20
46.174144
11
4895.038553
21
47.937584
0
LINE
8
Layer 1
10
4895.038553
20
47.937584
11
4894.773335
21
48.701023
0
LINE
8
Layer 1
10
4894.773335
20
48.701023
11
4894.379000
21
49.356934
0
LINE
8
Layer 1
10
4894.379000
20
49.356934
11
4893.866415
21
49.905320
0
LINE
8
Layer 1
10
4893.866415
20
49.905320
11
4893.217660
21
50.317505
0
LINE
8
Layer 1
10
4893.217660
20
50.317505
11
4892.439927
21
50.575569
0
LINE
8
Layer 1
10
4892.439927
20
50.575569
11
4891.511630
21
50.661590
0
LINE
8
Layer 1
10
4891.511630
20
50.661590
11
4890.662143
21
50.575569
0
LINE
8
Layer 1
10
4890.662143
20
50.575569
11
4889.891680
21
50.317505
0
LINE
8
Layer 1
10
4889.891680
20
50.317505
11
4889.210609
21
49.890983
0
LINE
8
Layer 1
10
4889.210609
20
49.890983
11
4888.629870
21
49.299585
0
LINE
8
Layer 1
10
4888.629870
20
49.299585
11
4888.171047
21
48.564820
0
LINE
8
Layer 1
10
4888.171047
20
48.564820
11
4887.826948
21
47.679515
0
LINE
8
Layer 1
10
4887.826948
20
47.679515
11
4887.611894
21
46.650845
0
LINE
8
Layer 1
10
4887.611894
20
46.650845
11
4887.540210
21
45.485975
0
LINE
8
Layer 1
10
4887.540210
20
45.485975
11
4887.608366
21
44.306765
0
LINE
8
Layer 1
10
4887.608366
20
44.306765
11
4887.812836
21
43.263755
0
LINE
8
Layer 1
10
4887.812836
20
43.263755
11
4888.142542
21
42.378452
0
LINE
8
Layer 1
10
4888.142542
20
42.378452
11
4888.586971
21
41.643685
0
LINE
8
Layer 1
10
4888.586971
20
41.643685
11
4889.142524
21
41.066626
0
LINE
8
Layer 1
10
4889.142524
20
41.066626
11
4889.805601
21
40.654440
0
LINE
8
Layer 1
10
4889.805601
20
40.654440
11
4890.579807
21
40.396376
0
LINE
8
Layer 1
10
4890.579807
20
40.396376
11
4891.439951
21
40.310355
0
LINE
8
Layer 1
10
4891.439951
20
40.310355
11
4892.544001
21
40.425050
0
LINE
8
Layer 1
10
4892.544001
20
40.425050
11
4893.160374
21
40.597093
0
LINE
8
Layer 1
10
4893.160374
20
40.597093
11
4893.318136
21
39.607848
0
LINE
8
Layer 1
10
4893.318136
20
39.607848
11
4893.017005
21
39.521827
0
LINE
8
Layer 1
10
4893.017005
20
39.521827
11
4892.572505
21
39.421469
0
LINE
8
Layer 1
10
4892.572505
20
39.421469
11
4892.013423
21
39.335447
0
LINE
8
Layer 1
10
4892.013423
20
39.335447
11
4891.425555
21
39.306774
0
LINE
8
Layer 1
10
4891.425555
20
39.306774
11
4890.368280
21
39.399963
0
LINE
8
Layer 1
10
4890.368280
20
39.399963
11
4889.403995
21
39.679533
0
LINE
8
Layer 1
10
4889.403995
20
39.679533
11
4888.547451
21
40.138314
0
LINE
8
Layer 1
10
4888.547451
20
40.138314
11
4887.812825
21
40.797813
0
LINE
8
Layer 1
10
4887.812825
20
40.797813
11
4887.214162
21
41.647272
0
LINE
8
Layer 1
10
4887.214162
20
41.647272
11
4886.766065
21
42.704613
0
LINE
8
Layer 1
10
4886.766065
20
42.704613
11
4886.486454
21
43.987760
0
LINE
8
Layer 1
10
4886.486454
20
43.987760
11
4886.393250
21
45.485963
0
LINE
8
Layer 1
10
4886.393250
20
45.485963
11
4886.490052
21
46.937570
0
LINE
8
Layer 1
10
4886.490052
20
46.937570
11
4886.780459
21
48.195633
0
LINE
8
Layer 1
10
4886.780459
20
48.195633
11
4887.253534
21
49.256563
0
LINE
8
Layer 1
10
4887.253534
20
49.256563
11
4887.870119
21
50.116773
0
LINE
8
Layer 1
10
4887.870119
20
50.116773
11
4888.619135
21
50.794191
0
LINE
8
Layer 1
10
4888.619135
20
50.794191
11
4889.490069
21
51.278063
0
LINE
8
Layer 1
10
4889.490069
20
51.278063
11
4890.454210
21
51.568385
0
LINE
8
Layer 1
10
4890.454210
20
51.568385
11
4891.482839
21
51.665159
0
LINE
8
Layer 1
10
4891.482839
20
51.665159
11
4892.558247
21
51.568385
0
LINE
8
Layer 1
10
4892.558247
20
51.568385
11
4893.518789
21
51.278063
0
LINE
8
Layer 1
10
4893.518789
20
51.278063
11
4894.364609
21
50.815698
0
LINE
8
Layer 1
10
4894.364609
20
50.815698
11
4895.067059
21
50.174123
0
LINE
8
Layer 1
10
4895.067059
20
50.174123
11
4895.637006
21
49.378426
0
LINE
8
Layer 1
10
4895.637006
20
49.378426
11
4896.056529
21
48.425023
0
LINE
8
Layer 1
10
4896.056529
20
48.425023
11
4896.314551
21
47.339003
0
LINE
8
Layer 1
10
4896.314551
20
47.339003
11
4896.400558
21
46.116783
0
LINE
8
Layer 1
10
4896.400558
20
46.116783
11
4896.257189
21
44.389190
0
LINE
8
Layer 1
10
4896.257189
20
44.389190
11
4895.827083
21
43.134713
0
LINE
8
Layer 1
10
4895.827083
20
43.134713
11
4895.128161
21
42.371273
0
LINE
8
Layer 1
10
4895.128161
20
42.371273
11
4894.178343
21
42.116793
0
LINE
8
Layer 1
10
4894.178343
20
42.116793
11
4894.180000
21
42.116800
0
LINE
8
Layer 1
10
4891.584970
20
43.206400
11
4892.330601
21
43.464464
0
LINE
8
Layer 1
10
4892.330601
20
43.464464
11
4892.273028
21
43.865897
0
LINE
8
Layer 1
10
4892.273028
20
43.865897
11
4892.258917
21
44.267330
0
LINE
8
Layer 1
10
4892.258917
20
44.267330
11
4892.260000
21
47.708200
0
LINE
8
Layer 1
10
4892.260000
20
47.708200
11
4892.044947
21
47.765547
0
LINE
8
Layer 1
10
4892.044947
20
47.765547
11
4891.700636
21
47.794221
0
LINE
8
Layer 1
10
4891.700636
20
47.794221
11
4891.102185
21
47.654437
0
LINE
8
Layer 1
10
4891.102185
20
47.654437
11
4890.682946
21
47.235083
0
LINE
8
Layer 1
10
4890.682946
20
47.235083
11
4890.446303
21
46.521824
0
LINE
8
Layer 1
10
4890.446303
20
46.521824
11
4890.367422
21
45.500323
0
LINE
8
Layer 1
10
4890.367422
20
45.500323
11
4890.435508
21
44.557676
0
LINE
8
Layer 1
10
4890.435508
20
44.557676
11
4890.639766
21
43.822913
0
LINE
8
Layer 1
10
4890.639766
20
43.822913
11
4891.012511
21
43.360549
0
LINE
8
Layer 1
10
4891.012511
20
43.360549
11
4891.586056
21
43.206427
0
LINE
8
Layer 1
10
4891.586056
20
43.206427
11
4891.584970
21
43.206400
0
LINE
8
Layer 1
10
5053.730000
20
51.435800
11
5054.403946
21
49.256590
0
LINE
8
Layer 1
10
5054.403946
20
49.256590
11
5055.063217
21
46.962690
0
LINE
8
Layer 1
10
5055.063217
20
46.962690
11
5055.708376
21
44.410730
0
LINE
8
Layer 1
10
5055.708376
20
44.410730
11
5056.367929
21
41.500340
0
LINE
8
Layer 1
10
5056.367929
20
41.500340
11
5055.080000
21
41.500300
0
LINE
8
Layer 1
10
5055.080000
20
41.500300
11
5054.836442
21
42.776280
0
LINE
8
Layer 1
10
5054.836442
20
42.776280
11
5054.592602
21
44.037930
0
LINE
8
Layer 1
10
5054.592602
20
44.037930
11
5051.470000
21
44.037900
0
LINE
8
Layer 1
10
5051.470000
20
44.037900
11
5051.211767
21
42.776250
0
LINE
8
Layer 1
10
5051.211767
20
42.776250
11
5050.982321
21
41.500270
0
LINE
8
Layer 1
10
5050.982321
20
41.500270
11
5049.730000
21
41.500300
0
LINE
8
Layer 1
10
5049.730000
20
41.500300
11
5050.375159
21
44.410690
0
LINE
8
Layer 1
10
5050.375159
20
44.410690
11
5051.020318
21
46.962650
0
LINE
8
Layer 1
10
5051.020318
20
46.962650
11
5051.679871
21
49.256550
0
LINE
8
Layer 1
10
5051.679871
20
49.256550
11
5052.367928
21
51.435760
0
LINE
8
Layer 1
10
5052.367928
20
51.435760
11
5053.730000
21
51.435800
0
LINE
8
Layer 1
10
5053.027549
20
49.973440
11
5052.339210
21
47.579180
0
LINE
8
Layer 1
10
5052.339210
20
47.579180
11
5051.708444
21
45.113240
0
LINE
8
Layer 1
10
5051.708444
20
45.113240
11
5054.330000
21
45.113200
0
LINE
8
Layer 1
10
5054.330000
20
45.113200
11
5053.713345
21
47.579140
0
LINE
8
Layer 1
10
5053.713345
20
47.579140
11
5053.025288
21
49.973400
0
LINE
8
Layer 1
10
5053.025288
20
49.973400
11
5053.027549
21
49.973440
0
LINE
8
Layer 1
10
5211.290000
20
47.206400
11
5212.180000
21
47.206400
0
LINE
8
Layer 1
10
5212.180000
20
47.206400
11
5212.957753
21
47.306758
0
LINE
8
Layer 1
10
5212.957753
20
47.306758
11
5213.513290
21
47.607833
0
LINE
8
Layer 1
10
5213.513290
20
47.607833
11
5213.846613
21
48.109623
0
LINE
8
Layer 1
10
5213.846613
20
48.109623
11
5213.957720
21
48.812130
0
LINE
8
Layer 1
10
5213.957720
20
48.812130
11
5213.799958
21
49.629332
0
LINE
8
Layer 1
10
5213.799958
20
49.629332
11
5213.412749
21
50.131123
0
LINE
8
Layer 1
10
5213.412749
20
50.131123
11
5212.839274
21
50.389187
0
LINE
8
Layer 1
10
5212.839274
20
50.389187
11
5212.165610
21
50.460871
0
LINE
8
Layer 1
10
5212.165610
20
50.460871
11
5211.721110
21
50.446534
0
LINE
8
Layer 1
10
5211.721110
20
50.446534
11
5211.291004
21
50.403524
0
LINE
8
Layer 1
10
5211.291004
20
50.403524
11
5211.290000
21
47.206400
0
LINE
8
Layer 1
10
5211.290000
20
46.174140
11
5211.290000
21
42.589900
0
LINE
8
Layer 1
10
5211.290000
20
42.589900
11
5211.820577
21
42.518216
0
LINE
8
Layer 1
10
5211.820577
20
42.518216
11
5212.350872
21
42.489542
0
LINE
8
Layer 1
10
5212.350872
20
42.489542
11
5213.110896
21
42.575563
0
LINE
8
Layer 1
10
5213.110896
20
42.575563
11
5213.727269
21
42.862301
0
LINE
8
Layer 1
10
5213.727269
20
42.862301
11
5214.142982
21
43.407102
0
LINE
8
Layer 1
10
5214.142982
20
43.407102
11
5214.300744
21
44.281652
0
LINE
8
Layer 1
10
5214.300744
20
44.281652
11
5214.178895
21
45.073765
0
LINE
8
Layer 1
10
5214.178895
20
45.073765
11
5213.813347
21
45.672332
0
LINE
8
Layer 1
10
5213.813347
20
45.672332
11
5213.203959
21
46.048675
0
LINE
8
Layer 1
10
5213.203959
20
46.048675
11
5212.322367
21
46.174123
0
LINE
8
Layer 1
10
5212.322367
20
46.174123
11
5211.290000
21
46.174140
0
LINE
8
Layer 1
10
5209.999680
20
51.292410
11
5211.017650
21
51.464453
0
LINE
8
Layer 1
10
5211.017650
20
51.464453
11
5212.064130
21
51.536137
0
LINE
8
Layer 1
10
5212.064130
20
51.536137
11
5213.282760
21
51.407105
0
LINE
8
Layer 1
10
5213.282760
20
51.407105
11
5214.315130
21
50.991336
0
LINE
8
Layer 1
10
5214.315130
20
50.991336
11
5215.017581
21
50.217145
0
LINE
8
Layer 1
10
5215.017581
20
50.217145
11
5215.221839
21
49.683097
0
LINE
8
Layer 1
10
5215.221839
20
49.683097
11
5215.289925
21
49.027185
0
LINE
8
Layer 1
10
5215.289925
20
49.027185
11
5215.196721
21
48.217152
0
LINE
8
Layer 1
10
5215.196721
20
48.217152
11
5214.917110
21
47.564825
0
LINE
8
Layer 1
10
5214.917110
20
47.564825
11
5214.490743
21
47.077372
0
LINE
8
Layer 1
10
5214.490743
20
47.077372
11
5213.956709
21
46.733286
0
LINE
8
Layer 1
10
5213.956709
20
46.733286
11
5214.623387
21
46.371280
0
LINE
8
Layer 1
10
5214.623387
20
46.371280
11
5215.160949
21
45.858736
0
LINE
8
Layer 1
10
5215.160949
20
45.858736
11
5215.515702
21
45.159813
0
LINE
8
Layer 1
10
5215.515702
20
45.159813
11
5215.633953
21
44.238666
0
LINE
8
Layer 1
10
5215.633953
20
44.238666
11
5215.569465
21
43.525406
0
LINE
8
Layer 1
10
5215.569465
20
43.525406
11
5215.376002
21
42.934006
0
LINE
8
Layer 1
10
5215.376002
20
42.934006
11
5214.673551
21
42.059456
0
LINE
8
Layer 1
10
5214.673551
20
42.059456
11
5213.569501
21
41.572002
0
LINE
8
Layer 1
10
5213.569501
20
41.572002
11
5212.178991
21
41.428633
0
LINE
8
Layer 1
10
5212.178991
20
41.428633
11
5211.132231
21
41.485981
0
LINE
8
Layer 1
10
5211.132231
20
41.485981
11
5209.999671
21
41.658024
0
LINE
8
Layer 1
10
5209.999671
20
41.658024
11
5209.999680
21
51.292410
0
LINE
8
Layer 1
10
5372.800000
20
41.285200
11
5371.976599
21
41.366741
0
LINE
8
Layer 1
10
5371.976599
20
41.366741
11
5371.255328
21
41.611365
0
LINE
8
Layer 1
10
5371.255328
20
41.611365
11
5370.636184
21
42.019071
0
LINE
8
Layer 1
10
5370.636184
20
42.019071
11
5370.119170
21
42.589860
0
LINE
8
Layer 1
10
5370.119170
20
42.589860
11
5369.711465
21
43.330899
0
LINE
8
Layer 1
10
5369.711465
20
43.330899
11
5369.420247
21
44.249355
0
LINE
8
Layer 1
10
5369.420247
20
44.249355
11
5369.187273
21
46.618520
0
LINE
8
Layer 1
10
5369.187273
20
46.618520
11
5369.251761
21
47.901673
0
LINE
8
Layer 1
10
5369.251761
20
47.901673
11
5369.445224
21
48.969770
0
LINE
8
Layer 1
10
5369.445224
20
48.969770
11
5369.767804
21
49.840736
0
LINE
8
Layer 1
10
5369.767804
20
49.840736
11
5370.190855
21
50.532490
0
LINE
8
Layer 1
10
5370.190855
20
50.532490
11
5370.706897
21
51.048618
0
LINE
8
Layer 1
10
5370.706897
20
51.048618
11
5371.309015
21
51.392703
0
LINE
8
Layer 1
10
5371.309015
20
51.392703
11
5372.714195
21
51.665104
0
LINE
8
Layer 1
10
5372.714195
20
51.665104
11
5373.889645
21
51.493061
0
LINE
8
Layer 1
10
5373.889645
20
51.493061
11
5374.778644
21
51.091628
0
LINE
8
Layer 1
10
5374.778644
20
51.091628
11
5374.391435
21
50.016358
0
LINE
8
Layer 1
10
5374.391435
20
50.016358
11
5373.646087
21
50.389117
0
LINE
8
Layer 1
10
5373.646087
20
50.389117
11
5372.742694
21
50.532486
0
LINE
8
Layer 1
10
5372.742694
20
50.532486
11
5371.753436
21
50.292343
0
LINE
8
Layer 1
10
5371.753436
20
50.292343
11
5371.079564
21
49.571915
0
LINE
8
Layer 1
10
5371.079564
20
49.571915
11
5370.692637
21
48.360448
0
LINE
8
Layer 1
10
5370.692637
20
48.360448
11
5370.563662
21
46.618515
0
LINE
8
Layer 1
10
5370.563662
20
46.618515
11
5370.699834
21
44.829990
0
LINE
8
Layer 1
10
5370.699834
20
44.829990
11
5371.108350
21
43.507415
0
LINE
8
Layer 1
10
5371.108350
20
43.507415
11
5371.423715
21
43.030715
0
LINE
8
Layer 1
10
5371.423715
20
43.030715
11
5371.825124
21
42.690215
0
LINE
8
Layer 1
10
5371.825124
20
42.690215
11
5372.312575
21
42.485915
0
LINE
8
Layer 1
10
5372.312575
20
42.485915
11
5372.886070
21
42.417815
0
LINE
8
Layer 1
10
5372.886070
20
42.417815
11
5373.832360
21
42.561184
0
LINE
8
Layer 1
10
5373.832360
20
42.561184
11
5374.549204
21
42.933943
0
LINE
8
Layer 1
10
5374.549204
20
42.933943
11
5374.907626
21
41.916023
0
LINE
8
Layer 1
10
5374.907626
20
41.916023
11
5374.033020
21
41.471580
0
LINE
8
Layer 1
10
5374.033020
20
41.471580
11
5372.799990
21
41.285201
0
LINE
8
Layer 1
10
5372.799990
20
41.285201
11
5372.800000
21
41.285200
0
LINE
8
Layer 1
10
5534.730000
20
46.475200
11
5534.654717
21
45.188465
0
LINE
8
Layer 1
10
5534.654717
20
45.188465
11
5534.428869
21
44.109620
0
LINE
8
Layer 1
10
5534.428869
20
44.109620
11
5534.074045
21
43.238654
0
LINE
8
Layer 1
10
5534.074045
20
43.238654
11
5533.583050
21
42.546900
0
LINE
8
Layer 1
10
5533.583050
20
42.546900
11
5532.977401
21
42.027188
0
LINE
8
Layer 1
10
5532.977401
20
42.027188
11
5532.249830
21
41.672350
0
LINE
8
Layer 1
10
5532.249830
20
41.672350
11
5530.515010
21
41.399949
0
LINE
8
Layer 1
10
5530.515010
20
41.399949
11
5528.450560
21
41.658013
0
LINE
8
Layer 1
10
5528.450560
20
41.658013
11
5528.450000
21
51.292400
0
LINE
8
Layer 1
10
5528.450000
20
51.292400
11
5529.510870
21
51.478779
0
LINE
8
Layer 1
10
5529.510870
20
51.478779
11
5530.500058
21
51.550463
0
LINE
8
Layer 1
10
5530.500058
20
51.550463
11
5532.249268
21
51.278062
0
LINE
8
Layer 1
10
5532.249268
20
51.278062
11
5532.976837
21
50.923224
0
LINE
8
Layer 1
10
5532.976837
20
50.923224
11
5533.582488
21
50.403512
0
LINE
8
Layer 1
10
5533.582488
20
50.403512
11
5534.073484
21
49.708173
0
LINE
8
Layer 1
10
5534.073484
20
49.708173
11
5534.428307
21
48.826452
0
LINE
8
Layer 1
10
5534.428307
20
48.826452
11
5534.654155
21
47.758354
0
LINE
8
Layer 1
10
5534.654155
20
47.758354
11
5534.729438
21
46.475202
0
LINE
8
Layer 1
10
5534.729438
20
46.475202
11
5534.730000
21
46.475200
0
LINE
8
Layer 1
10
5533.353600
20
46.475200
11
5533.195838
21
48.281650
0
LINE
8
Layer 1
10
5533.195838
20
48.281650
11
5532.708441
21
49.500280
0
LINE
8
Layer 1
10
5532.708441
20
49.500280
11
5532.324972
21
49.908881
0
LINE
8
Layer 1
10
5532.324972
20
49.908881
11
5531.833835
21
50.188450
0
LINE
8
Layer 1
10
5531.833835
20
50.188450
11
5530.557905
21
50.403503
0
LINE
8
Layer 1
10
5530.557905
20
50.403503
11
5530.156585
21
50.389166
0
LINE
8
Layer 1
10
5530.156585
20
50.389166
11
5529.740872
21
50.346155
0
LINE
8
Layer 1
10
5529.740872
20
50.346155
11
5529.740000
21
42.604200
0
LINE
8
Layer 1
10
5529.740000
20
42.604200
11
5530.155713
21
42.561189
0
LINE
8
Layer 1
10
5530.155713
20
42.561189
11
5530.542639
21
42.546852
0
LINE
8
Layer 1
10
5530.542639
20
42.546852
11
5531.832959
21
42.761905
0
LINE
8
Layer 1
10
5531.832959
20
42.761905
11
5532.313301
21
43.037890
0
LINE
8
Layer 1
10
5532.313301
20
43.037890
11
5532.693172
21
43.435738
0
LINE
8
Layer 1
10
5532.693172
20
43.435738
11
5533.194963
21
44.654368
0
LINE
8
Layer 1
10
5533.194963
20
44.654368
11
5533.352725
21
46.475148
0
LINE
8
Layer 1
10
5533.352725
20
46.475148
11
5533.353600
21
46.475200
0
LINE
8
Layer 1
10
5688.860000
20
41.500300
11
5688.860000
21
51.435800
0
LINE
8
Layer 1
10
5688.860000
20
51.435800
11
5693.320000
21
51.435800
0
LINE
8
Layer 1
10
5693.320000
20
51.435800
11
5693.320000
21
50.331800
0
LINE
8
Layer 1
10
5693.320000
20
50.331800
11
5690.150000
21
50.331800
0
LINE
8
Layer 1
10
5690.150000
20
50.331800
11
5690.150000
21
47.249400
0
LINE
8
Layer 1
10
5690.150000
20
47.249400
11
5693.020000
21
47.249400
0
LINE
8
Layer 1
10
5693.020000
20
47.249400
11
5693.020000
21
46.174100
0
LINE
8
Layer 1
10
5693.020000
20
46.174100
11
5690.150000
21
46.174100
0
LINE
8
Layer 1
10
5690.150000
20
46.174100
11
5690.150000
21
42.604200
0
LINE
8
Layer 1
10
5690.150000
20
42.604200
11
5693.550000
21
42.604200
0
LINE
8
Layer 1
10
5693.550000
20
42.604200
11
5693.550000
21
41.500300
0
LINE
8
Layer 1
10
5693.550000
20
41.500300
11
5688.860000
21
41.500300
0
LINE
8
Layer 1
10
5847.540000
20
41.500300
11
5847.540000
21
51.435800
0
LINE
8
Layer 1
10
5847.540000
20
51.435800
11
5852.000000
21
51.435800
0
LINE
8
Layer 1
10
5852.000000
20
51.435800
11
5852.000000
21
50.331800
0
LINE
8
Layer 1
10
5852.000000
20
50.331800
11
5848.830000
21
50.331800
0
LINE
8
Layer 1
10
5848.830000
20
50.331800
11
5848.830000
21
47.206400
0
LINE
8
Layer 1
10
5848.830000
20
47.206400
11
5851.640000
21
47.206400
0
LINE
8
Layer 1
10
5851.640000
20
47.206400
11
5851.640000
21
46.131100
0
LINE
8
Layer 1
10
5851.640000
20
46.131100
11
5848.830000
21
46.131100
0
LINE
8
Layer 1
10
5848.830000
20
46.131100
11
5848.830000
21
41.500300
0
LINE
8
Layer 1
10
5848.830000
20
41.500300
11
5847.540000
21
41.500300
0
LINE
8
Layer 1
10
6005.370000
20
46.475200
11
6005.434558
21
47.776270
0
LINE
8
Layer 1
10
6005.434558
20
47.776270
11
6005.628233
21
48.869460
0
LINE
8
Layer 1
10
6005.628233
20
48.869460
11
6005.940018
21
49.765515
0
LINE
8
Layer 1
10
6005.940018
20
49.765515
11
6006.359470
21
50.475190
0
LINE
8
Layer 1
10
6006.359470
20
50.475190
11
6006.893433
21
51.016407
0
LINE
8
Layer 1
10
6006.893433
20
51.016407
11
6007.520530
21
51.378413
0
LINE
8
Layer 1
10
6007.520530
20
51.378413
11
6008.248239
21
51.593466
0
LINE
8
Layer 1
10
6008.248239
20
51.593466
11
6009.054690
21
51.665151
0
LINE
8
Layer 1
10
6009.054690
20
51.665151
11
6010.230430
21
51.478772
0
LINE
8
Layer 1
10
6010.230430
20
51.478772
11
6011.090643
21
51.077339
0
LINE
8
Layer 1
10
6011.090643
20
51.077339
11
6010.689041
21
50.002069
0
LINE
8
Layer 1
10
6010.689041
20
50.002069
11
6009.972197
21
50.374828
0
LINE
8
Layer 1
10
6009.972197
20
50.374828
11
6009.083480
21
50.532534
0
LINE
8
Layer 1
10
6009.083480
20
50.532534
11
6008.011742
21
50.278054
0
LINE
8
Layer 1
10
6008.011742
20
50.278054
11
6007.607636
21
49.959954
0
LINE
8
Layer 1
10
6007.607636
20
49.959954
11
6007.291370
21
49.514614
0
LINE
8
Layer 1
10
6007.291370
20
49.514614
11
6006.882642
21
48.252969
0
LINE
8
Layer 1
10
6006.882642
20
48.252969
11
6006.746399
21
46.475194
0
LINE
8
Layer 1
10
6006.746399
20
46.475194
11
6006.904161
21
44.611404
0
LINE
8
Layer 1
10
6006.904161
20
44.611404
11
6007.377165
21
43.349754
0
LINE
8
Layer 1
10
6007.377165
20
43.349754
11
6008.108402
21
42.632910
0
LINE
8
Layer 1
10
6008.108402
20
42.632910
11
6009.069086
21
42.403520
0
LINE
8
Layer 1
10
6009.069086
20
42.403520
11
6009.828828
21
42.503878
0
LINE
8
Layer 1
10
6009.828828
20
42.503878
11
6009.830000
21
46.389200
0
LINE
8
Layer 1
10
6009.830000
20
46.389200
11
6011.120000
21
46.389200
0
LINE
8
Layer 1
10
6011.120000
20
46.389200
11
6011.120000
21
41.715400
0
LINE
8
Layer 1
10
6011.120000
20
41.715400
11
6010.159599
21
41.399989
0
LINE
8
Layer 1
10
6010.159599
20
41.399989
11
6008.955079
21
41.270957
0
LINE
8
Layer 1
10
6008.955079
20
41.270957
11
6008.209589
21
41.346226
0
LINE
8
Layer 1
10
6008.209589
20
41.346226
11
6007.521389
21
41.572031
0
LINE
8
Layer 1
10
6007.521389
20
41.572031
11
6006.905016
21
41.966295
0
LINE
8
Layer 1
10
6006.905016
20
41.966295
11
6006.374439
21
42.518265
0
LINE
8
Layer 1
10
6006.374439
20
42.518265
11
6005.951600
21
43.245862
0
LINE
8
Layer 1
10
6005.951600
20
43.245862
11
6005.629091
21
44.138335
0
LINE
8
Layer 1
10
6005.629091
20
44.138335
11
6005.370858
21
46.475245
0
LINE
8
Layer 1
10
6005.370858
20
46.475245
11
6005.370000
21
46.475200
0
LINE
8
Layer 1
10
6170.010000
20
51.435800
11
6171.300000
21
51.435800
0
LINE
8
Layer 1
10
6171.300000
20
51.435800
11
6171.300000
21
41.500300
0
LINE
8
Layer 1
10
6171.300000
20
41.500300
11
6170.010000
21
41.500300
0
LINE
8
Layer 1
10
6170.010000
20
41.500300
11
6170.010000
21
46.116800
0
LINE
8
Layer 1
10
6170.010000
20
46.116800
11
6166.740000
21
46.116800
0
LINE
8
Layer 1
10
6166.740000
20
46.116800
11
6166.740000
21
41.500300
0
LINE
8
Layer 1
10
6166.740000
20
41.500300
11
6165.450000
21
41.500300
0
LINE
8
Layer 1
10
6165.450000
20
41.500300
11
6165.450000
21
51.435800
0
LINE
8
Layer 1
10
6165.450000
20
51.435800
11
6166.740000
21
51.435800
0
LINE
8
Layer 1
10
6166.740000
20
51.435800
11
6166.740000
21
47.235100
0
LINE
8
Layer 1
10
6166.740000
20
47.235100
11
6170.010000
21
47.235100
0
LINE
8
Layer 1
10
6170.010000
20
47.235100
11
6170.010000
21
51.435800
0
LINE
8
Layer 1
10
6325.850000
20
51.435800
11
6327.140000
21
51.435800
0
LINE
8
Layer 1
10
6327.140000
20
51.435800
11
6327.140000
21
41.500300
0
LINE
8
Layer 1
10
6327.140000
20
41.500300
11
6325.850000
21
41.500300
0
LINE
8
Layer 1
10
6325.850000
20
41.500300
11
6325.850000
21
51.435800
0
LINE
8
Layer 1
10
6485.010000
20
44.138300
11
6484.866631
21
42.948340
0
LINE
8
Layer 1
10
6484.866631
20
42.948340
11
6484.436525
21
42.059454
0
LINE
8
Layer 1
10
6484.436525
20
42.059454
11
6483.662390
21
41.485979
0
LINE
8
Layer 1
10
6483.662390
20
41.485979
11
6482.501050
21
41.285263
0
LINE
8
Layer 1
10
6482.501050
20
41.285263
11
6481.454570
21
41.457306
0
LINE
8
Layer 1
10
6481.454570
20
41.457306
11
6480.551177
21
41.916086
0
LINE
8
Layer 1
10
6480.551177
20
41.916086
11
6480.981283
21
42.934006
0
LINE
8
Layer 1
10
6480.981283
20
42.934006
11
6481.626442
21
42.575584
0
LINE
8
Layer 1
10
6481.626442
20
42.575584
11
6482.429364
21
42.417878
0
LINE
8
Layer 1
10
6482.429364
20
42.417878
11
6482.959941
21
42.489562
0
LINE
8
Layer 1
10
6482.959941
20
42.489562
11
6483.375654
21
42.747626
0
LINE
8
Layer 1
10
6483.375654
20
42.747626
11
6483.633605
21
43.278090
0
LINE
8
Layer 1
10
6483.633605
20
43.278090
11
6483.719683
21
44.138303
0
LINE
8
Layer 1
10
6483.719683
20
44.138303
11
6483.720000
21
51.435800
0
LINE
8
Layer 1
10
6483.720000
20
51.435800
11
6485.010000
21
51.435800
0
LINE
8
Layer 1
10
6485.010000
20
51.435800
11
6485.010000
21
44.138300
0
LINE
8
Layer 1
10
6645.160000
20
51.435800
11
6644.443156
21
50.360530
0
LINE
8
Layer 1
10
6644.443156
20
50.360530
11
6643.640234
21
49.141900
0
LINE
8
Layer 1
10
6643.640234
20
49.141900
11
6642.794415
21
47.923270
0
LINE
8
Layer 1
10
6642.794415
20
47.923270
11
6641.991493
21
46.804990
0
LINE
8
Layer 1
10
6641.991493
20
46.804990
11
6642.923390
21
45.715390
0
LINE
8
Layer 1
10
6642.923390
20
45.715390
11
6643.912578
21
44.339050
0
LINE
8
Layer 1
10
6643.912578
20
44.339050
11
6644.830364
21
42.876690
0
LINE
8
Layer 1
10
6644.830364
20
42.876690
11
6645.518421
21
41.500350
0
LINE
8
Layer 1
10
6645.518421
20
41.500350
11
6644.070000
21
41.500300
0
LINE
8
Layer 1
10
6644.070000
20
41.500300
11
6643.367549
21
42.847970
0
LINE
8
Layer 1
10
6643.367549
20
42.847970
11
6642.536123
21
44.166960
0
LINE
8
Layer 1
10
6642.536123
20
44.166960
11
6641.647124
21
45.356920
0
LINE
8
Layer 1
10
6641.647124
20
45.356920
11
6640.772518
21
46.274480
0
LINE
8
Layer 1
10
6640.772518
20
46.274480
11
6640.770000
21
41.500300
0
LINE
8
Layer 1
10
6640.770000
20
41.500300
11
6639.480000
21
41.500300
0
LINE
8
Layer 1
10
6639.480000
20
41.500300
11
6639.480000
21
51.435800
0
LINE
8
Layer 1
10
6639.480000
20
51.435800
11
6640.770000
21
51.435800
0
LINE
8
Layer 1
10
6640.770000
20
51.435800
11
6640.770000
21
47.048700
0
LINE
8
Layer 1
10
6640.770000
20
47.048700
11
6641.558528
21
48.123970
0
LINE
8
Layer 1
10
6641.558528
20
48.123970
11
6642.375843
21
49.328270
0
LINE
8
Layer 1
10
6642.375843
20
49.328270
11
6643.149978
21
50.475220
0
LINE
8
Layer 1
10
6643.149978
20
50.475220
11
6643.752240
21
51.435791
0
LINE
8
Layer 1
10
6643.752240
20
51.435791
11
6645.160000
21
51.435800
0
LINE
8
Layer 1
10
6803.440000
20
42.604200
11
6803.440000
21
41.500300
0
LINE
8
Layer 1
10
6803.440000
20
41.500300
11
6799.010000
21
41.500300
0
LINE
8
Layer 1
10
6799.010000
20
41.500300
11
6799.010000
21
51.435800
0
LINE
8
Layer 1
10
6799.010000
20
51.435800
11
6800.300000
21
51.435800
0
LINE
8
Layer 1
10
6800.300000
20
51.435800
11
6800.300000
21
42.604200
0
LINE
8
Layer 1
10
6800.300000
20
42.604200
11
6803.440000
21
42.604200
0
LINE
8
Layer 1
10
6960.580000
20
42.876600
11
6959.992414
21
44.855090
0
LINE
8
Layer 1
10
6959.992414
20
44.855090
11
6959.404546
21
46.632860
0
LINE
8
Layer 1
10
6959.404546
20
46.632860
11
6958.873969
21
48.166910
0
LINE
8
Layer 1
10
6958.873969
20
48.166910
11
6958.400965
21
49.371210
0
LINE
8
Layer 1
10
6958.400965
20
49.371210
11
6958.300494
21
47.564760
0
LINE
8
Layer 1
10
6958.300494
20
47.564760
11
6958.228810
21
45.557600
0
LINE
8
Layer 1
10
6958.228810
20
45.557600
11
6958.171519
21
43.478750
0
LINE
8
Layer 1
10
6958.171519
20
43.478750
11
6958.142732
21
41.500260
0
LINE
8
Layer 1
10
6958.142732
20
41.500260
11
6956.910000
21
41.500300
0
LINE
8
Layer 1
10
6956.910000
20
41.500300
11
6956.995795
21
44.095270
0
LINE
8
Layer 1
10
6956.995795
20
44.095270
11
6957.096266
21
46.675910
0
LINE
8
Layer 1
10
6957.096266
20
46.675910
11
6957.239636
21
49.156190
0
LINE
8
Layer 1
10
6957.239636
20
49.156190
11
6957.425903
21
51.435750
0
LINE
8
Layer 1
10
6957.425903
20
51.435750
11
6958.700000
21
51.435800
0
LINE
8
Layer 1
10
6958.700000
20
51.435800
11
6959.287586
21
49.959100
0
LINE
8
Layer 1
10
6959.287586
20
49.959100
11
6959.947139
21
48.181330
0
LINE
8
Layer 1
10
6959.947139
20
48.181330
11
6960.606692
21
46.317540
0
LINE
8
Layer 1
10
6960.606692
20
46.317540
11
6961.151380
21
44.611450
0
LINE
8
Layer 1
10
6961.151380
20
44.611450
11
6961.681957
21
46.317540
0
LINE
8
Layer 1
10
6961.681957
20
46.317540
11
6962.312723
21
48.181330
0
LINE
8
Layer 1
10
6962.312723
20
48.181330
11
6962.957882
21
49.959100
0
LINE
8
Layer 1
10
6962.957882
20
49.959100
11
6963.545750
21
51.435800
0
LINE
8
Layer 1
10
6963.545750
20
51.435800
11
6964.820000
21
51.435800
0
LINE
8
Layer 1
10
6964.820000
20
51.435800
11
6964.992155
21
49.156240
0
LINE
8
Layer 1
10
6964.992155
20
49.156240
11
6965.135524
21
46.675960
0
LINE
8
Layer 1
10
6965.135524
20
46.675960
11
6965.250106
21
44.095320
0
LINE
8
Layer 1
10
6965.250106
20
44.095320
11
6965.336184
21
41.500350
0
LINE
8
Layer 1
10
6965.336184
20
41.500350
11
6964.100000
21
41.500300
0
LINE
8
Layer 1
10
6964.100000
20
41.500300
11
6964.042709
21
43.493130
0
LINE
8
Layer 1
10
6964.042709
20
43.493130
11
6963.985418
21
45.586310
0
LINE
8
Layer 1
10
6963.985418
20
45.586310
11
6963.913733
21
47.636480
0
LINE
8
Layer 1
10
6963.913733
20
47.636480
11
6963.813262
21
49.471600
0
LINE
8
Layer 1
10
6963.813262
20
49.471600
11
6963.483627
21
48.568377
0
LINE
8
Layer 1
10
6963.483627
20
48.568377
11
6963.082025
21
47.407087
0
LINE
8
Layer 1
10
6963.082025
20
47.407087
11
6962.651919
21
46.102427
0
LINE
8
Layer 1
10
6962.651919
20
46.102427
11
6962.236206
21
44.826447
0
LINE
8
Layer 1
10
6962.236206
20
44.826447
11
6961.892177
21
43.693837
0
LINE
8
Layer 1
10
6961.892177
20
43.693837
11
6961.662731
21
42.876635
0
LINE
8
Layer 1
10
6961.662731
20
42.876635
11
6960.580000
21
42.876600
0
LINE
8
Layer 1
10
7124.540000
20
41.500300
11
7123.751472
21
43.321080
0
LINE
8
Layer 1
10
7123.751472
20
43.321080
11
7122.833686
21
45.299570
0
LINE
8
Layer 1
10
7122.833686
20
45.299570
11
7121.858891
21
47.278060
0
LINE
8
Layer 1
10
7121.858891
20
47.278060
11
7120.869703
21
49.113180
0
LINE
8
Layer 1
10
7120.869703
20
49.113180
11
7120.870000
21
41.500300
0
LINE
8
Layer 1
10
7120.870000
20
41.500300
11
7119.670000
21
41.500300
0
LINE
8
Layer 1
10
7119.670000
20
41.500300
11
7119.670000
21
51.435800
0
LINE
8
Layer 1
10
7119.670000
20
51.435800
11
7120.740000
21
51.435800
0
LINE
8
Layer 1
10
7120.740000
20
51.435800
11
7121.786480
21
49.615020
0
LINE
8
Layer 1
10
7121.786480
20
49.615020
11
7122.761275
21
47.765560
0
LINE
8
Layer 1
10
7122.761275
20
47.765560
11
7123.621488
21
45.973450
0
LINE
8
Layer 1
10
7123.621488
20
45.973450
11
7124.381512
21
44.310370
0
LINE
8
Layer 1
10
7124.381512
20
44.310370
11
7124.390000
21
51.435800
0
LINE
8
Layer 1
10
7124.390000
20
51.435800
11
7125.590000
21
51.435800
0
LINE
8
Layer 1
10
7125.590000
20
51.435800
11
7125.590000
21
41.500300
0
LINE
8
Layer 1
10
7125.590000
20
41.500300
11
7124.540000
21
41.500300
0
LINE
8
Layer 1
10
7286.800000
20
46.460900
11
7286.584947
21
44.339040
0
LINE
8
Layer 1
10
7286.584947
20
44.339040
11
7286.323186
21
43.457323
0
LINE
8
Layer 1
10
7286.323186
20
43.457323
11
7285.939788
21
42.704640
0
LINE
8
Layer 1
10
7285.939788
20
42.704640
11
7285.448723
21
42.106076
0
LINE
8
Layer 1
10
7285.448723
20
42.106076
11
7284.835738
21
41.658050
0
LINE
8
Layer 1
10
7284.835738
20
41.658050
11
7284.115297
21
41.378481
0
LINE
8
Layer 1
10
7284.115297
20
41.378481
11
7283.273078
21
41.285291
0
LINE
8
Layer 1
10
7283.273078
20
41.285291
11
7282.427117
21
41.378481
0
LINE
8
Layer 1
10
7282.427117
20
41.378481
11
7281.696018
21
41.658050
0
LINE
8
Layer 1
10
7281.696018
20
41.658050
11
7281.090229
21
42.106077
0
LINE
8
Layer 1
10
7281.090229
20
42.106077
11
7280.591968
21
42.704640
0
LINE
8
Layer 1
10
7280.591968
20
42.704640
11
7279.946809
21
44.339040
0
LINE
8
Layer 1
10
7279.946809
20
44.339040
11
7279.731756
21
46.460900
0
LINE
8
Layer 1
10
7279.731756
20
46.460900
11
7279.946809
21
48.582760
0
LINE
8
Layer 1
10
7279.946809
20
48.582760
11
7280.215625
21
49.471646
0
LINE
8
Layer 1
10
7280.215625
20
49.471646
11
7280.591968
21
50.217160
0
LINE
8
Layer 1
10
7280.591968
20
50.217160
11
7281.090231
21
50.826477
0
LINE
8
Layer 1
10
7281.090231
20
50.826477
11
7281.696018
21
51.278090
0
LINE
8
Layer 1
10
7281.696018
20
51.278090
11
7282.427115
21
51.568412
0
LINE
8
Layer 1
10
7282.427115
20
51.568412
11
7283.273078
21
51.665186
0
LINE
8
Layer 1
10
7283.273078
20
51.665186
11
7284.115298
21
51.568412
0
LINE
8
Layer 1
10
7284.115298
20
51.568412
11
7284.835738
21
51.278090
0
LINE
8
Layer 1
10
7284.835738
20
51.278090
11
7285.448723
21
50.826478
0
LINE
8
Layer 1
10
7285.448723
20
50.826478
11
7285.939788
21
50.217160
0
LINE
8
Layer 1
10
7285.939788
20
50.217160
11
7286.323186
21
49.471643
0
LINE
8
Layer 1
10
7286.323186
20
49.471643
11
7286.584947
21
48.582760
0
LINE
8
Layer 1
10
7286.584947
20
48.582760
11
7286.800000
21
46.460900
0
LINE
8
Layer 1
10
7286.800000
20
46.460900
11
7286.800000
21
46.460900
0
LINE
8
Layer 1
10
7285.423600
20
46.460900
11
7285.308736
21
48.109640
0
LINE
8
Layer 1
10
7285.308736
20
48.109640
11
7284.936203
21
49.385620
0
LINE
8
Layer 1
10
7284.936203
20
49.385620
11
7284.262257
21
50.231496
0
LINE
8
Layer 1
10
7284.262257
20
50.231496
11
7283.814300
21
50.457301
0
LINE
8
Layer 1
10
7283.814300
20
50.457301
11
7283.273069
21
50.532570
0
LINE
8
Layer 1
10
7283.273069
20
50.532570
11
7282.728240
21
50.457301
0
LINE
8
Layer 1
10
7282.728240
20
50.457301
11
7282.269489
21
50.231496
0
LINE
8
Layer 1
10
7282.269489
20
50.231496
11
7281.609936
21
49.385620
0
LINE
8
Layer 1
10
7281.609936
20
49.385620
11
7281.222727
21
48.109640
0
LINE
8
Layer 1
10
7281.222727
20
48.109640
11
7281.108145
21
46.460900
0
LINE
8
Layer 1
10
7281.108145
20
46.460900
11
7281.222727
21
44.812160
0
LINE
8
Layer 1
10
7281.222727
20
44.812160
11
7281.609936
21
43.536180
0
LINE
8
Layer 1
10
7281.609936
20
43.536180
11
7282.269489
21
42.704641
0
LINE
8
Layer 1
10
7282.269489
20
42.704641
11
7282.728241
21
42.489587
0
LINE
8
Layer 1
10
7282.728241
20
42.489587
11
7283.273069
21
42.417903
0
LINE
8
Layer 1
10
7283.273069
20
42.417903
11
7283.814300
21
42.489587
0
LINE
8
Layer 1
10
7283.814300
20
42.489587
11
7284.262257
21
42.704641
0
LINE
8
Layer 1
10
7284.262257
20
42.704641
11
7284.936203
21
43.536180
0
LINE
8
Layer 1
10
7284.936203
20
43.536180
11
7285.308736
21
44.812160
0
LINE
8
Layer 1
10
7285.308736
20
44.812160
11
7285.423600
21
46.460900
0
LINE
8
Layer 1
10
7285.423600
20
46.460900
11
7285.423600
21
46.460900
0
LINE
8
Layer 1
10
7440.950000
20
51.292400
11
7442.914270
21
51.536127
0
LINE
8
Layer 1
10
7442.914270
20
51.536127
11
7444.261880
21
51.349748
0
LINE
8
Layer 1
10
7444.261880
20
51.349748
11
7445.308360
21
50.790610
0
LINE
8
Layer 1
10
7445.308360
20
50.790610
11
7445.699096
21
50.360504
0
LINE
8
Layer 1
10
7445.699096
20
50.360504
11
7445.982306
21
49.815702
0
LINE
8
Layer 1
10
7445.982306
20
49.815702
11
7446.226146
21
48.367682
0
LINE
8
Layer 1
10
7446.226146
20
48.367682
11
7445.982306
21
46.890982
0
LINE
8
Layer 1
10
7445.982306
20
46.890982
11
7445.294249
21
45.901737
0
LINE
8
Layer 1
10
7445.294249
20
45.901737
11
7444.218979
21
45.356936
0
LINE
8
Layer 1
10
7444.218979
20
45.356936
11
7442.842579
21
45.184893
0
LINE
8
Layer 1
10
7442.842579
20
45.184893
11
7442.240000
21
45.184900
0
LINE
8
Layer 1
10
7442.240000
20
45.184900
11
7442.240000
21
41.500300
0
LINE
8
Layer 1
10
7442.240000
20
41.500300
11
7440.950000
21
41.500300
0
LINE
8
Layer 1
10
7440.950000
20
41.500300
11
7440.950000
21
51.292400
0
LINE
8
Layer 1
10
7442.240320
20
46.317500
11
7442.750000
21
46.317500
0
LINE
8
Layer 1
10
7442.750000
20
46.317500
11
7443.624606
21
46.417858
0
LINE
8
Layer 1
10
7443.624606
20
46.417858
11
7444.298270
21
46.776280
0
LINE
8
Layer 1
10
7444.298270
20
46.776280
11
7444.714265
21
47.407103
0
LINE
8
Layer 1
10
7444.714265
20
47.407103
11
7444.857634
21
48.367674
0
LINE
8
Layer 1
10
7444.857634
20
48.367674
11
7444.714265
21
49.328245
0
LINE
8
Layer 1
10
7444.714265
20
49.328245
11
7444.312663
21
49.959068
0
LINE
8
Layer 1
10
7444.312663
20
49.959068
11
7443.710683
21
50.303153
0
LINE
8
Layer 1
10
7443.710683
20
50.303153
11
7442.922155
21
50.403511
0
LINE
8
Layer 1
10
7442.922155
20
50.403511
11
7442.233816
21
50.360500
0
LINE
8
Layer 1
10
7442.233816
20
50.360500
11
7442.240320
21
46.317500
0
LINE
8
Layer 1
10
7606.710000
20
46.460900
11
7606.538127
21
44.582770
0
LINE
8
Layer 1
10
7606.538127
20
44.582770
11
7606.050447
21
43.063060
0
LINE
8
Layer 1
10
7606.050447
20
43.063060
11
7605.204628
21
41.959120
0
LINE
8
Layer 1
10
7605.204628
20
41.959120
11
7604.645476
21
41.597114
0
LINE
8
Layer 1
10
7604.645476
20
41.597114
11
7604.000388
21
41.371308
0
LINE
8
Layer 1
10
7604.000388
20
41.371308
11
7604.176071
21
40.837259
0
LINE
8
Layer 1
10
7604.176071
20
40.837259
11
7604.645547
21
40.439411
0
LINE
8
Layer 1
10
7604.645547
20
40.439411
11
7606.236997
21
39.923283
0
LINE
8
Layer 1
10
7606.236997
20
39.923283
11
7605.935866
21
38.919703
0
LINE
8
Layer 1
10
7605.935866
20
38.919703
11
7604.831816
21
39.206441
0
LINE
8
Layer 1
10
7604.831816
20
39.206441
11
7603.885808
21
39.622210
0
LINE
8
Layer 1
10
7603.885808
20
39.622210
11
7603.168964
21
40.281706
0
LINE
8
Layer 1
10
7603.168964
20
40.281706
11
7602.752969
21
41.313966
0
LINE
8
Layer 1
10
7602.752969
20
41.313966
11
7602.004022
21
41.478840
0
LINE
8
Layer 1
10
7602.004022
20
41.478840
11
7601.362459
21
41.801420
0
LINE
8
Layer 1
10
7601.362459
20
41.801420
11
7600.835550
21
42.281705
0
LINE
8
Layer 1
10
7600.835550
20
42.281705
11
7600.401775
21
42.891020
0
LINE
8
Layer 1
10
7600.401775
20
42.891020
11
7599.828300
21
44.468080
0
LINE
8
Layer 1
10
7599.828300
20
44.468080
11
7599.642033
21
46.460910
0
LINE
8
Layer 1
10
7599.642033
20
46.460910
11
7599.857086
21
48.582770
0
LINE
8
Layer 1
10
7599.857086
20
48.582770
11
7600.125902
21
49.471655
0
LINE
8
Layer 1
10
7600.125902
20
49.471655
11
7600.502245
21
50.217170
0
LINE
8
Layer 1
10
7600.502245
20
50.217170
11
7601.000437
21
50.826487
0
LINE
8
Layer 1
10
7601.000437
20
50.826487
11
7601.606015
21
51.278100
0
LINE
8
Layer 1
10
7601.606015
20
51.278100
11
7602.337253
21
51.568422
0
LINE
8
Layer 1
10
7602.337253
20
51.568422
11
7603.183075
21
51.665196
0
LINE
8
Layer 1
10
7603.183075
20
51.665196
11
7604.025509
21
51.568422
0
LINE
8
Layer 1
10
7604.025509
20
51.568422
11
7604.746025
21
51.278100
0
LINE
8
Layer 1
10
7604.746025
20
51.278100
11
7605.358799
21
50.826488
0
LINE
8
Layer 1
10
7605.358799
20
50.826488
11
7605.849795
21
50.217170
0
LINE
8
Layer 1
10
7605.849795
20
50.217170
11
7606.233335
21
49.471653
0
LINE
8
Layer 1
10
7606.233335
20
49.471653
11
7606.494954
21
48.582770
0
LINE
8
Layer 1
10
7606.494954
20
48.582770
11
7606.710007
21
46.460910
0
LINE
8
Layer 1
10
7606.710007
20
46.460910
11
7606.710000
21
46.460900
0
LINE
8
Layer 1
10
7605.333600
20
46.460900
11
7605.219018
21
48.109640
0
LINE
8
Layer 1
10
7605.219018
20
48.109640
11
7604.846203
21
49.385620
0
LINE
8
Layer 1
10
7604.846203
20
49.385620
11
7604.172539
21
50.231496
0
LINE
8
Layer 1
10
7604.172539
20
50.231496
11
7603.724371
21
50.457301
0
LINE
8
Layer 1
10
7603.724371
20
50.457301
11
7603.183069
21
50.532570
0
LINE
8
Layer 1
10
7603.183069
20
50.532570
11
7602.638381
21
50.457301
0
LINE
8
Layer 1
10
7602.638381
20
50.457301
11
7602.179489
21
50.231496
0
LINE
8
Layer 1
10
7602.179489
20
50.231496
11
7601.520218
21
49.385620
0
LINE
8
Layer 1
10
7601.520218
20
49.385620
11
7601.133009
21
48.109640
0
LINE
8
Layer 1
10
7601.133009
20
48.109640
11
7601.018427
21
46.460900
0
LINE
8
Layer 1
10
7601.018427
20
46.460900
11
7601.133009
21
44.812160
0
LINE
8
Layer 1
10
7601.133009
20
44.812160
11
7601.520218
21
43.536180
0
LINE
8
Layer 1
10
7601.520218
20
43.536180
11
7602.179489
21
42.704641
0
LINE
8
Layer 1
10
7602.179489
20
42.704641
11
7602.638382
21
42.489587
0
LINE
8
Layer 1
10
7602.638382
20
42.489587
11
7603.183069
21
42.417903
0
LINE
8
Layer 1
10
7603.183069
20
42.417903
11
7603.724370
21
42.489587
0
LINE
8
Layer 1
10
7603.724370
20
42.489587
11
7604.172539
21
42.704641
0
LINE
8
Layer 1
10
7604.172539
20
42.704641
11
7604.846203
21
43.536180
0
LINE
8
Layer 1
10
7604.846203
20
43.536180
11
7605.219018
21
44.812160
0
LINE
8
Layer 1
10
7605.219018
20
44.812160
11
7605.333600
21
46.460900
0
LINE
8
Layer 1
10
7605.333600
20
46.460900
11
7605.333600
21
46.460900
0
LINE
8
Layer 1
10
7760.850000
20
51.292400
11
7762.785480
21
51.536127
0
LINE
8
Layer 1
10
7762.785480
20
51.536127
11
7764.133090
21
51.364084
0
LINE
8
Layer 1
10
7764.133090
20
51.364084
11
7765.165460
21
50.819283
0
LINE
8
Layer 1
10
7765.165460
20
50.819283
11
7765.824731
21
49.858712
0
LINE
8
Layer 1
10
7765.824731
20
49.858712
11
7766.068571
21
48.439362
0
LINE
8
Layer 1
10
7766.068571
20
48.439362
11
7765.968241
21
47.503879
0
LINE
8
Layer 1
10
7765.968241
20
47.503879
11
7765.667251
21
46.761952
0
LINE
8
Layer 1
10
7765.667251
20
46.761952
11
7765.208359
21
46.206398
0
LINE
8
Layer 1
10
7765.208359
20
46.206398
11
7764.606101
21
45.801381
0
LINE
8
Layer 1
10
7764.606101
20
45.801381
11
7765.036207
21
45.012853
0
LINE
8
Layer 1
10
7765.036207
20
45.012853
11
7765.581178
21
43.923253
0
LINE
8
Layer 1
10
7765.581178
20
43.923253
11
7766.125866
21
42.704623
0
LINE
8
Layer 1
10
7766.125866
20
42.704623
11
7766.584759
21
41.500323
0
LINE
8
Layer 1
10
7766.584759
20
41.500323
11
7765.300000
21
41.500300
0
LINE
8
Layer 1
10
7765.300000
20
41.500300
11
7764.898398
21
42.475208
0
LINE
8
Layer 1
10
7764.898398
20
42.475208
11
7764.411001
21
43.550478
0
LINE
8
Layer 1
10
7764.411001
20
43.550478
11
7763.894817
21
44.582738
0
LINE
8
Layer 1
10
7763.894817
20
44.582738
11
7763.436206
21
45.428614
0
LINE
8
Layer 1
10
7763.436206
20
45.428614
11
7762.962920
21
45.385603
0
LINE
8
Layer 1
10
7762.962920
20
45.385603
11
7762.475523
21
45.371266
0
LINE
8
Layer 1
10
7762.475523
20
45.371266
11
7762.110000
21
45.371300
0
LINE
8
Layer 1
10
7762.110000
20
45.371300
11
7762.110000
21
41.500300
0
LINE
8
Layer 1
10
7762.110000
20
41.500300
11
7760.850000
21
41.500300
0
LINE
8
Layer 1
10
7760.850000
20
41.500300
11
7760.850000
21
51.292400
0
LINE
8
Layer 1
10
7762.111530
20
46.432200
11
7762.660000
21
46.432200
0
LINE
8
Layer 1
10
7762.660000
20
46.432200
11
7763.534464
21
46.543311
0
LINE
8
Layer 1
10
7763.534464
20
46.543311
11
7764.179480
21
46.876643
0
LINE
8
Layer 1
10
7764.179480
20
46.876643
11
7764.577413
21
47.496713
0
LINE
8
Layer 1
10
7764.577413
20
47.496713
11
7764.710057
21
48.439363
0
LINE
8
Layer 1
10
7764.710057
20
48.439363
11
7764.566688
21
49.371260
0
LINE
8
Layer 1
10
7764.566688
20
49.371260
11
7764.179479
21
49.973409
0
LINE
8
Layer 1
10
7764.179479
20
49.973409
11
7763.577499
21
50.303157
0
LINE
8
Layer 1
10
7763.577499
20
50.303157
11
7762.803364
21
50.403515
0
LINE
8
Layer 1
10
7762.803364
20
50.403515
11
7762.115025
21
50.360504
0
LINE
8
Layer 1
10
7762.115025
20
50.360504
11
7762.111530
21
46.432200
0
LINE
8
Layer 1
10
7921.590000
20
42.389200
11
7922.274600
21
42.496727
0
LINE
8
Layer 1
10
7922.274600
20
42.496727
11
7922.780130
21
42.819306
0
LINE
8
Layer 1
10
7922.780130
20
42.819306
11
7923.102709
21
43.324682
0
LINE
8
Layer 1
10
7923.102709
20
43.324682
11
7923.210236
21
43.980596
0
LINE
8
Layer 1
10
7923.210236
20
43.980596
11
7923.080978
21
44.668766
0
LINE
8
Layer 1
10
7923.080978
20
44.668766
11
7922.736949
21
45.213567
0
LINE
8
Layer 1
10
7922.736949
20
45.213567
11
7922.263945
21
45.658010
0
LINE
8
Layer 1
10
7922.263945
20
45.658010
11
7921.704863
21
46.059443
0
LINE
8
Layer 1
10
7921.704863
20
46.059443
11
7921.016524
21
46.546897
0
LINE
8
Layer 1
10
7921.016524
20
46.546897
11
7920.356971
21
47.149046
0
LINE
8
Layer 1
10
7920.356971
20
47.149046
11
7919.883967
21
47.951911
0
LINE
8
Layer 1
10
7919.883967
20
47.951911
11
7919.697700
21
49.027181
0
LINE
8
Layer 1
10
7919.697700
20
49.027181
11
7919.898360
21
50.116781
0
LINE
8
Layer 1
10
7919.898360
20
50.116781
11
7920.471835
21
50.948320
0
LINE
8
Layer 1
10
7920.471835
20
50.948320
11
7921.346441
21
51.478784
0
LINE
8
Layer 1
10
7921.346441
20
51.478784
11
7922.450211
21
51.665163
0
LINE
8
Layer 1
10
7922.450211
20
51.665163
11
7923.511081
21
51.521794
0
LINE
8
Layer 1
10
7923.511081
20
51.521794
11
7924.328396
21
51.177709
0
LINE
8
Layer 1
10
7924.328396
20
51.177709
11
7923.927076
21
50.159789
0
LINE
8
Layer 1
10
7923.927076
20
50.159789
11
7923.267523
21
50.460863
0
LINE
8
Layer 1
10
7923.267523
20
50.460863
11
7922.536286
21
50.575558
0
LINE
8
Layer 1
10
7922.536286
20
50.575558
11
7921.901920
21
50.478784
0
LINE
8
Layer 1
10
7921.901920
20
50.478784
11
7921.403726
21
50.188462
0
LINE
8
Layer 1
10
7921.403726
20
50.188462
11
7921.091941
21
49.726097
0
LINE
8
Layer 1
10
7921.091941
20
49.726097
11
7920.988013
21
49.084522
0
LINE
8
Layer 1
10
7920.988013
20
49.084522
11
7921.116988
21
48.382015
0
LINE
8
Layer 1
10
7921.116988
20
48.382015
11
7921.475410
21
47.837214
0
LINE
8
Layer 1
10
7921.475410
20
47.837214
11
7921.991594
21
47.392771
0
LINE
8
Layer 1
10
7921.991594
20
47.392771
11
7922.622360
21
46.977002
0
LINE
8
Layer 1
10
7922.622360
20
46.977002
11
7923.296024
21
46.503885
0
LINE
8
Layer 1
10
7923.296024
20
46.503885
11
7923.912679
21
45.901736
0
LINE
8
Layer 1
10
7923.912679
20
45.901736
11
7924.371290
21
45.113208
0
LINE
8
Layer 1
10
7924.371290
20
45.113208
11
7924.557839
21
44.052278
0
LINE
8
Layer 1
10
7924.557839
20
44.052278
11
7924.385684
21
42.991348
0
LINE
8
Layer 1
10
7924.385684
20
42.991348
11
7923.840996
21
42.102462
0
LINE
8
Layer 1
10
7923.840996
20
42.102462
11
7922.923492
21
41.500313
0
LINE
8
Layer 1
10
7922.923492
20
41.500313
11
7921.633172
21
41.285260
0
LINE
8
Layer 1
10
7921.633172
20
41.285260
11
7920.428652
21
41.442966
0
LINE
8
Layer 1
10
7920.428652
20
41.442966
11
7919.511148
21
41.858735
0
LINE
8
Layer 1
10
7919.511148
20
41.858735
11
7919.912750
21
42.890995
0
LINE
8
Layer 1
10
7919.912750
20
42.890995
11
7920.672492
21
42.518236
0
LINE
8
Layer 1
10
7920.672492
20
42.518236
11
7921.589996
21
42.389204
0
LINE
8
Layer 1
10
7921.589996
20
42.389204
11
7921.590000
21
42.389200
0
LINE
8
Layer 1
10
8082.930000
20
51.435800
11
8082.930000
21
50.331800
0
LINE
8
Layer 1
10
8082.930000
20
50.331800
11
8080.730000
21
50.331800
0
LINE
8
Layer 1
10
8080.730000
20
50.331800
11
8080.730000
21
41.500300
0
LINE
8
Layer 1
10
8080.730000
20
41.500300
11
8079.440000
21
41.500300
0
LINE
8
Layer 1
10
8079.440000
20
41.500300
11
8079.440000
21
50.331800
0
LINE
8
Layer 1
10
8079.440000
20
50.331800
11
8077.230000
21
50.331800
0
LINE
8
Layer 1
10
8077.230000
20
50.331800
11
8077.230000
21
51.435800
0
LINE
8
Layer 1
10
8077.230000
20
51.435800
11
8082.930000
21
51.435800
0
LINE
8
Layer 1
10
8239.170000
20
41.285200
11
8237.951505
21
41.482332
0
LINE
8
Layer 1
10
8237.951505
20
41.482332
11
8237.077040
21
42.073728
0
LINE
8
Layer 1
10
8237.077040
20
42.073728
11
8236.560786
21
43.091647
0
LINE
8
Layer 1
10
8236.560786
20
43.091647
11
8236.388701
21
44.568348
0
LINE
8
Layer 1
10
8236.388701
20
44.568348
11
8236.390000
21
51.435800
0
LINE
8
Layer 1
10
8236.390000
20
51.435800
11
8237.680000
21
51.435800
0
LINE
8
Layer 1
10
8237.680000
20
51.435800
11
8237.680000
21
44.683100
0
LINE
8
Layer 1
10
8237.680000
20
44.683100
11
8237.762480
21
43.690272
0
LINE
8
Layer 1
10
8237.762480
20
43.690272
11
8238.009918
21
42.977010
0
LINE
8
Layer 1
10
8238.009918
20
42.977010
11
8238.472198
21
42.557657
0
LINE
8
Layer 1
10
8238.472198
20
42.557657
11
8239.199768
21
42.417872
0
LINE
8
Layer 1
10
8239.199768
20
42.417872
11
8239.945327
21
42.561241
0
LINE
8
Layer 1
10
8239.945327
20
42.561241
11
8240.404008
21
42.991347
0
LINE
8
Layer 1
10
8240.404008
20
42.991347
11
8240.651447
21
43.708191
0
LINE
8
Layer 1
10
8240.651447
20
43.708191
11
8240.733926
21
44.683097
0
LINE
8
Layer 1
10
8240.733926
20
44.683097
11
8240.730000
21
51.435800
0
LINE
8
Layer 1
10
8240.730000
20
51.435800
11
8242.030000
21
51.435800
0
LINE
8
Layer 1
10
8242.030000
20
51.435800
11
8242.030000
21
44.568400
0
LINE
8
Layer 1
10
8242.030000
20
44.568400
11
8241.850789
21
43.109625
0
LINE
8
Layer 1
10
8241.850789
20
43.109625
11
8241.313156
21
42.088120
0
LINE
8
Layer 1
10
8241.313156
20
42.088120
11
8240.420629
21
41.485971
0
LINE
8
Layer 1
10
8240.420629
20
41.485971
11
8239.176736
21
41.285255
0
LINE
8
Layer 1
10
8239.176736
20
41.285255
11
8239.170000
21
41.285200
0
LINE
8
Layer 1
10
8398.150000
20
41.500300
11
8397.490447
21
43.665170
0
LINE
8
Layer 1
10
8397.490447
20
43.665170
11
8396.830894
21
45.973410
0
LINE
8
Layer 1
10
8396.830894
20
45.973410
11
8396.200128
21
48.511040
0
LINE
8
Layer 1
10
8396.200128
20
48.511040
11
8395.569362
21
51.435760
0
LINE
8
Layer 1
10
8395.569362
20
51.435760
11
8396.920000
21
51.435800
0
LINE
8
Layer 1
10
8396.920000
20
51.435800
11
8397.335713
21
49.213580
0
LINE
8
Layer 1
10
8397.335713
20
49.213580
11
8397.823110
21
47.034370
0
LINE
8
Layer 1
10
8397.823110
20
47.034370
11
8398.339294
21
44.941190
0
LINE
8
Layer 1
10
8398.339294
20
44.941190
11
8398.869871
21
43.034390
0
LINE
8
Layer 1
10
8398.869871
20
43.034390
11
8399.385773
21
44.941190
0
LINE
8
Layer 1
10
8399.385773
20
44.941190
11
8399.916350
21
47.034370
0
LINE
8
Layer 1
10
8399.916350
20
47.034370
11
8400.403747
21
49.213580
0
LINE
8
Layer 1
10
8400.403747
20
49.213580
11
8400.819460
21
51.435800
0
LINE
8
Layer 1
10
8400.819460
20
51.435800
11
8402.120000
21
51.435800
0
LINE
8
Layer 1
10
8402.120000
20
51.435800
11
8401.489234
21
48.511080
0
LINE
8
Layer 1
10
8401.489234
20
48.511080
11
8400.844075
21
45.973450
0
LINE
8
Layer 1
10
8400.844075
20
45.973450
11
8400.198916
21
43.665210
0
LINE
8
Layer 1
10
8400.198916
20
43.665210
11
8399.539363
21
41.500340
0
LINE
8
Layer 1
10
8399.539363
20
41.500340
11
8398.150000
21
41.500300
0
LINE
8
Layer 1
10
8560.620000
20
50.260100
11
8561.021602
21
48.439320
0
LINE
8
Layer 1
10
8561.021602
20
48.439320
11
8561.465819
21
46.532520
0
LINE
8
Layer 1
10
8561.465819
20
46.532520
11
8561.953499
21
44.697400
0
LINE
8
Layer 1
10
8561.953499
20
44.697400
11
8562.412110
21
43.077330
0
LINE
8
Layer 1
10
8562.412110
20
43.077330
11
8562.742028
21
44.855100
0
LINE
8
Layer 1
10
8562.742028
20
44.855100
11
8563.042877
21
46.919610
0
LINE
8
Layer 1
10
8563.042877
20
46.919610
11
8563.329615
21
49.141830
0
LINE
8
Layer 1
10
8563.329615
20
49.141830
11
8563.544668
21
51.435730
0
LINE
8
Layer 1
10
8563.544668
20
51.435730
11
8564.810000
21
51.435800
0
LINE
8
Layer 1
10
8564.810000
20
51.435800
11
8564.064369
21
46.131160
0
LINE
8
Layer 1
10
8564.064369
20
46.131160
11
8563.118079
21
41.500350
0
LINE
8
Layer 1
10
8563.118079
20
41.500350
11
8561.810000
21
41.500300
0
LINE
8
Layer 1
10
8561.810000
20
41.500300
11
8561.336714
21
43.063020
0
LINE
8
Layer 1
10
8561.336714
20
43.063020
11
8560.849317
21
44.840790
0
LINE
8
Layer 1
10
8560.849317
20
44.840790
11
8560.376313
21
46.718920
0
LINE
8
Layer 1
10
8560.376313
20
46.718920
11
8559.960318
21
48.554040
0
LINE
8
Layer 1
10
8559.960318
20
48.554040
11
8559.544605
21
46.718920
0
LINE
8
Layer 1
10
8559.544605
20
46.718920
11
8559.071601
21
44.840790
0
LINE
8
Layer 1
10
8559.071601
20
44.840790
11
8558.569810
21
43.063020
0
LINE
8
Layer 1
10
8558.569810
20
43.063020
11
8558.110917
21
41.500300
0
LINE
8
Layer 1
10
8558.110917
20
41.500300
11
8556.810000
21
41.500300
0
LINE
8
Layer 1
10
8556.810000
20
41.500300
11
8555.849599
21
46.131110
0
LINE
8
Layer 1
10
8555.849599
20
46.131110
11
8555.118362
21
51.435750
0
LINE
8
Layer 1
10
8555.118362
20
51.435750
11
8556.420000
21
51.435800
0
LINE
8
Layer 1
10
8556.420000
20
51.435800
11
8556.635053
21
49.141900
0
LINE
8
Layer 1
10
8556.635053
20
49.141900
11
8556.907397
21
46.919680
0
LINE
8
Layer 1
10
8556.907397
20
46.919680
11
8557.222921
21
44.855170
0
LINE
8
Layer 1
10
8557.222921
20
44.855170
11
8557.552556
21
43.077400
0
LINE
8
Layer 1
10
8557.552556
20
43.077400
11
8558.011449
21
44.697470
0
LINE
8
Layer 1
10
8558.011449
20
44.697470
11
8558.484453
21
46.532590
0
LINE
8
Layer 1
10
8558.484453
20
46.532590
11
8558.943346
21
48.439390
0
LINE
8
Layer 1
10
8558.943346
20
48.439390
11
8559.344666
21
50.260170
0
LINE
8
Layer 1
10
8559.344666
20
50.260170
11
8560.620000
21
50.260100
0
LINE
8
Layer 1
10
8720.880000
20
47.794200
11
8722.586030
21
51.435770
0
LINE
8
Layer 1
10
8722.586030
20
51.435770
11
8723.870000
21
51.435800
0
LINE
8
Layer 1
10
8723.870000
20
51.435800
11
8721.604890
21
46.819330
0
LINE
8
Layer 1
10
8721.604890
20
46.819330
11
8722.235656
21
45.471660
0
LINE
8
Layer 1
10
8722.235656
20
45.471660
11
8722.895209
21
44.080980
0
LINE
8
Layer 1
10
8722.895209
20
44.080980
11
8723.511582
21
42.733310
0
LINE
8
Layer 1
10
8723.511582
20
42.733310
11
8724.013373
21
41.500340
0
LINE
8
Layer 1
10
8724.013373
20
41.500340
11
8722.740000
21
41.500300
0
LINE
8
Layer 1
10
8722.740000
20
41.500300
11
8722.367185
21
42.432197
0
LINE
8
Layer 1
10
8722.367185
20
42.432197
11
8721.908292
21
43.478787
0
LINE
8
Layer 1
10
8721.908292
20
43.478787
11
8721.392390
21
44.554057
0
LINE
8
Layer 1
10
8721.392390
20
44.554057
11
8720.876206
21
45.629327
0
LINE
8
Layer 1
10
8720.876206
20
45.629327
11
8720.345629
21
44.554057
0
LINE
8
Layer 1
10
8720.345629
20
44.554057
11
8719.829445
21
43.478787
0
LINE
8
Layer 1
10
8719.829445
20
43.478787
11
8719.370834
21
42.432197
0
LINE
8
Layer 1
10
8719.370834
20
42.432197
11
8719.026805
21
41.500300
0
LINE
8
Layer 1
10
8719.026805
20
41.500300
11
8717.780000
21
41.500300
0
LINE
8
Layer 1
10
8717.780000
20
41.500300
11
8718.267397
21
42.704600
0
LINE
8
Layer 1
10
8718.267397
20
42.704600
11
8718.869659
21
44.023590
0
LINE
8
Layer 1
10
8718.869659
20
44.023590
11
8719.500425
21
45.399930
0
LINE
8
Layer 1
10
8719.500425
20
45.399930
11
8720.131191
21
46.718920
0
LINE
8
Layer 1
10
8720.131191
20
46.718920
11
8717.837291
21
51.435750
0
LINE
8
Layer 1
10
8717.837291
20
51.435750
11
8719.160000
21
51.435800
0
LINE
8
Layer 1
10
8719.160000
20
51.435800
11
8720.880000
21
47.794200
0
LINE
8
Layer 1
10
8882.830000
20
51.435800
11
8882.285312
21
50.002110
0
LINE
8
Layer 1
10
8882.285312
20
50.002110
11
8881.668657
21
48.453730
0
LINE
8
Layer 1
10
8881.668657
20
48.453730
11
8880.994993
21
46.905350
0
LINE
8
Layer 1
10
8880.994993
20
46.905350
11
8880.306654
21
45.428650
0
LINE
8
Layer 1
10
8880.306654
20
45.428650
11
8880.310000
21
41.500300
0
LINE
8
Layer 1
10
8880.310000
20
41.500300
11
8879.020000
21
41.500300
0
LINE
8
Layer 1
10
8879.020000
20
41.500300
11
8879.020000
21
45.342600
0
LINE
8
Layer 1
10
8879.020000
20
45.342600
11
8878.317549
21
46.833640
0
LINE
8
Layer 1
10
8878.317549
20
46.833640
11
8877.629492
21
48.410700
0
LINE
8
Layer 1
10
8877.629492
20
48.410700
11
8876.998444
21
49.973420
0
LINE
8
Layer 1
10
8876.998444
20
49.973420
11
8876.453756
21
51.435780
0
LINE
8
Layer 1
10
8876.453756
20
51.435780
11
8877.850000
21
51.435800
0
LINE
8
Layer 1
10
8877.850000
20
51.435800
11
8878.695819
21
49.041540
0
LINE
8
Layer 1
10
8878.695819
20
49.041540
11
8879.670614
21
46.690290
0
LINE
8
Layer 1
10
8879.670614
20
46.690290
11
8880.645691
21
49.041540
0
LINE
8
Layer 1
10
8880.645691
20
49.041540
11
8881.491510
21
51.435800
0
LINE
8
Layer 1
10
8881.491510
20
51.435800
11
8882.830000
21
51.435800
0
LINE
8
Layer 1
10
9040.610000
20
50.417800
11
9039.649316
21
48.625690
0
LINE
8
Layer 1
10
9039.649316
20
48.625690
11
9038.588446
21
46.518170
0
LINE
8
Layer 1
10
9038.588446
20
46.518170
11
9037.599258
21
44.410650
0
LINE
8
Layer 1
10
9037.599258
20
44.410650
11
9036.839516
21
42.604200
0
LINE
8
Layer 1
10
9036.839516
20
42.604200
11
9040.710000
21
42.604200
0
LINE
8
Layer 1
10
9040.710000
20
42.604200
11
9040.710000
21
41.500300
0
LINE
8
Layer 1
10
9040.710000
20
41.500300
11
9035.460000
21
41.500300
0
LINE
8
Layer 1
10
9035.460000
20
41.500300
11
9035.460000
21
42.288800
0
LINE
8
Layer 1
10
9035.460000
20
42.288800
11
9035.961791
21
43.550450
0
LINE
8
Layer 1
10
9035.961791
20
43.550450
11
9036.578164
21
44.969800
0
LINE
8
Layer 1
10
9036.578164
20
44.969800
11
9037.252110
21
46.460840
0
LINE
8
Layer 1
10
9037.252110
20
46.460840
11
9037.954561
21
47.908860
0
LINE
8
Layer 1
10
9037.954561
20
47.908860
11
9038.628507
21
49.227850
0
LINE
8
Layer 1
10
9038.628507
20
49.227850
11
9039.230487
21
50.331790
0
LINE
8
Layer 1
10
9039.230487
20
50.331790
11
9035.650000
21
50.331800
0
LINE
8
Layer 1
10
9035.650000
20
50.331800
11
9035.650000
21
51.435800
0
LINE
8
Layer 1
10
9035.650000
20
51.435800
11
9040.610000
21
51.435800
0
LINE
8
Layer 1
10
9040.610000
20
51.435800
11
9040.610000
21
50.417800
0
LINE
8
Layer 1
10
9194.690000
20
52.726100
11
9197.290000
21
52.726100
0
LINE
8
Layer 1
10
9197.290000
20
52.726100
11
9197.290000
21
51.751200
0
LINE
8
Layer 1
10
9197.290000
20
51.751200
11
9195.870000
21
51.751200
0
LINE
8
Layer 1
10
9195.870000
20
51.751200
11
9195.870000
21
39.822900
0
LINE
8
Layer 1
10
9195.870000
20
39.822900
11
9197.290000
21
39.822900
0
LINE
8
Layer 1
10
9197.290000
20
39.822900
11
9197.290000
21
38.848000
0
LINE
8
Layer 1
10
9197.290000
20
38.848000
11
9194.690000
21
38.848000
0
LINE
8
Layer 1
10
9194.690000
20
38.848000
11
9194.690000
21
52.726100
0
LINE
8
Layer 1
10
9349.140000
20
52.726100
11
9350.290000
21
52.726100
0
LINE
8
Layer 1
10
9350.290000
20
52.726100
11
9353.759360
21
38.848000
0
LINE
8
Layer 1
10
9353.759360
20
38.848000
11
9352.610000
21
38.848000
0
LINE
8
Layer 1
10
9352.610000
20
38.848000
11
9349.140000
21
52.726100
0
LINE
8
Layer 1
10
9508.200000
20
38.848000
11
9505.610000
21
38.848000
0
LINE
8
Layer 1
10
9505.610000
20
38.848000
11
9505.610000
21
39.822900
0
LINE
8
Layer 1
10
9505.610000
20
39.822900
11
9507.030000
21
39.822900
0
LINE
8
Layer 1
10
9507.030000
20
39.822900
11
9507.030000
21
51.751200
0
LINE
8
Layer 1
10
9507.030000
20
51.751200
11
9505.610000
21
51.751200
0
LINE
8
Layer 1
10
9505.610000
20
51.751200
11
9505.610000
21
52.726100
0
LINE
8
Layer 1
10
9505.610000
20
52.726100
11
9508.200000
21
52.726100
0
LINE
8
Layer 1
10
9508.200000
20
52.726100
11
9508.200000
21
38.848000
0
LINE
8
Layer 1
10
9665.390000
20
51.435800
11
9667.440340
21
46.389220
0
LINE
8
Layer 1
10
9667.440340
20
46.389220
11
9666.407970
21
45.973451
0
LINE
8
Layer 1
10
9666.407970
20
45.973451
11
9664.788020
21
50.059461
0
LINE
8
Layer 1
10
9664.788020
20
50.059461
11
9663.167780
21
45.973451
0
LINE
8
Layer 1
10
9663.167780
20
45.973451
11
9662.121300
21
46.389220
0
LINE
8
Layer 1
10
9662.121300
20
46.389220
11
9664.171360
21
51.435800
0
LINE
8
Layer 1
10
9664.171360
20
51.435800
11
9665.390000
21
51.435800
0
LINE
8
Layer 1
10
9819.930000
20
39.937600
11
9825.310000
21
39.937600
0
LINE
8
Layer 1
10
9825.310000
20
39.937600
11
9825.310000
21
38.891000
0
LINE
8
Layer 1
10
9825.310000
20
38.891000
11
9819.930000
21
38.891000
0
LINE
8
Layer 1
10
9819.930000
20
38.891000
11
9819.930000
21
39.937600
0
LINE
8
Layer 1
10
9978.670000
20
52.654400
11
9980.361640
21
50.374840
0
LINE
8
Layer 1
10
9980.361640
20
50.374840
11
9979.745267
21
49.844376
0
LINE
8
Layer 1
10
9979.745267
20
49.844376
11
9977.795397
21
51.908886
0
LINE
8
Layer 1
10
9977.795397
20
51.908886
11
9978.670000
21
52.654400
0
LINE
8
Layer 1
10
10135.300000
20
48.869500
11
10136.088528
21
49.113227
0
LINE
8
Layer 1
10
10136.088528
20
49.113227
11
10136.991638
21
49.213585
0
LINE
8
Layer 1
10
10136.991638
20
49.213585
11
10137.902085
21
49.055879
0
LINE
8
Layer 1
10
10137.902085
20
49.055879
11
10138.626268
21
48.582762
0
LINE
8
Layer 1
10
10138.626268
20
48.582762
11
10139.099342
21
47.790649
0
LINE
8
Layer 1
10
10139.099342
20
47.790649
11
10139.257034
21
46.647282
0
LINE
8
Layer 1
10
10139.257034
20
46.647282
11
10139.200000
21
41.658000
0
LINE
8
Layer 1
10
10139.200000
20
41.658000
11
10138.139130
21
41.428610
0
LINE
8
Layer 1
10
10138.139130
20
41.428610
11
10137.092370
21
41.342589
0
LINE
8
Layer 1
10
10137.092370
20
41.342589
11
10136.117575
21
41.471621
0
LINE
8
Layer 1
10
10136.117575
20
41.471621
11
10135.329047
21
41.887390
0
LINE
8
Layer 1
10
10135.329047
20
41.887390
11
10134.798470
21
42.604234
0
LINE
8
Layer 1
10
10134.798470
20
42.604234
11
10134.597810
21
43.679504
0
LINE
8
Layer 1
10
10134.597810
20
43.679504
11
10134.769965
21
44.697424
0
LINE
8
Layer 1
10
10134.769965
20
44.697424
11
10135.271756
21
45.428605
0
LINE
8
Layer 1
10
10135.271756
20
45.428605
11
10136.017104
21
45.873048
0
LINE
8
Layer 1
10
10136.017104
20
45.873048
11
10136.949001
21
46.030754
0
LINE
8
Layer 1
10
10136.949001
20
46.030754
11
10137.995761
21
45.916059
0
LINE
8
Layer 1
10
10137.995761
20
45.916059
11
10138.000000
21
46.604200
0
LINE
8
Layer 1
10
10138.000000
20
46.604200
11
10137.917520
21
47.310292
0
LINE
8
Layer 1
10
10137.917520
20
47.310292
11
10137.670082
21
47.765490
0
LINE
8
Layer 1
10
10137.670082
20
47.765490
11
10137.283085
21
48.012801
0
LINE
8
Layer 1
10
10137.283085
20
48.012801
11
10136.752578
21
48.095238
0
LINE
8
Layer 1
10
10136.752578
20
48.095238
11
10136.121812
21
48.023554
0
LINE
8
Layer 1
10
10136.121812
20
48.023554
11
10135.505157
21
47.822838
0
LINE
8
Layer 1
10
10135.505157
20
47.822838
11
10135.300000
21
48.869500
0
LINE
8
Layer 1
10
10135.887868
20
43.693890
11
10135.973875
21
43.120415
0
LINE
8
Layer 1
10
10135.973875
20
43.120415
11
10136.231897
21
42.718982
0
LINE
8
Layer 1
10
10136.231897
20
42.718982
11
10136.647610
21
42.482424
0
LINE
8
Layer 1
10
10136.647610
20
42.482424
11
10137.206692
21
42.403571
0
LINE
8
Layer 1
10
10137.206692
20
42.403571
11
10138.052794
21
42.503929
0
LINE
8
Layer 1
10
10138.052794
20
42.503929
11
10138.000000
21
44.898100
0
LINE
8
Layer 1
10
10138.000000
20
44.898100
11
10137.153898
21
45.012795
0
LINE
8
Layer 1
10
10137.153898
20
45.012795
11
10136.637996
21
44.941111
0
LINE
8
Layer 1
10
10136.637996
20
44.941111
11
10136.207890
21
44.726058
0
LINE
8
Layer 1
10
10136.207890
20
44.726058
11
10135.935264
21
44.324625
0
LINE
8
Layer 1
10
10135.935264
20
44.324625
11
10135.835075
21
43.693802
0
LINE
8
Layer 1
10
10135.835075
20
43.693802
11
10135.887868
21
43.693890
0
LINE
8
Layer 1
10
10294.700000
20
42.503900
11
10295.086926
21
42.417879
0
LINE
8
Layer 1
10
10295.086926
20
42.417879
11
10295.431237
21
42.403542
0
LINE
8
Layer 1
10
10295.431237
20
42.403542
11
10296.155137
21
42.568416
0
LINE
8
Layer 1
10
10296.155137
20
42.568416
11
10296.663987
21
43.063038
0
LINE
8
Layer 1
10
10296.663987
20
43.063038
11
10296.975983
21
43.955509
0
LINE
8
Layer 1
10
10296.975983
20
43.955509
11
10297.079982
21
45.285258
0
LINE
8
Layer 1
10
10297.079982
20
45.285258
11
10296.979511
21
46.632928
0
LINE
8
Layer 1
10
10296.979511
20
46.632928
11
10296.678380
21
47.507478
0
LINE
8
Layer 1
10
10296.678380
20
47.507478
11
10296.219769
21
47.980595
0
LINE
8
Layer 1
10
10296.219769
20
47.980595
11
10295.588721
21
48.123964
0
LINE
8
Layer 1
10
10295.588721
20
48.123964
11
10294.700004
21
47.894574
0
LINE
8
Layer 1
10
10294.700004
20
47.894574
11
10294.700000
21
42.503900
0
LINE
8
Layer 1
10
10294.700000
20
48.969830
11
10295.158611
21
49.141873
0
LINE
8
Layer 1
10
10295.158611
20
49.141873
11
10295.732086
21
49.213557
0
LINE
8
Layer 1
10
10295.732086
20
49.213557
11
10296.384582
21
49.141873
0
LINE
8
Layer 1
10
10296.384582
20
49.141873
11
10296.936606
21
48.926819
0
LINE
8
Layer 1
10
10296.936606
20
48.926819
11
10297.391760
21
48.593487
0
LINE
8
Layer 1
10
10297.391760
20
48.593487
11
10297.753639
21
48.138291
0
LINE
8
Layer 1
10
10297.753639
20
48.138291
11
10298.212532
21
46.905321
0
LINE
8
Layer 1
10
10298.212532
20
46.905321
11
10298.370294
21
45.285251
0
LINE
8
Layer 1
10
10298.370294
20
45.285251
11
10298.191083
21
43.543319
0
LINE
8
Layer 1
10
10298.191083
20
43.543319
11
10297.653450
21
42.303181
0
LINE
8
Layer 1
10
10297.653450
20
42.303181
11
10297.251036
21
41.870387
0
LINE
8
Layer 1
10
10297.251036
20
41.870387
11
10296.746528
21
41.561248
0
LINE
8
Layer 1
10
10296.746528
20
41.561248
11
10295.431230
21
41.313936
0
LINE
8
Layer 1
10
10295.431230
20
41.313936
11
10294.384470
21
41.428631
0
LINE
8
Layer 1
10
10294.384470
20
41.428631
11
10293.466966
21
41.701032
0
LINE
8
Layer 1
10
10293.466966
20
41.701032
11
10293.500000
21
52.410700
0
LINE
8
Layer 1
10
10293.500000
20
52.410700
11
10294.733030
21
52.625753
0
LINE
8
Layer 1
10
10294.733030
20
52.625753
11
10294.700000
21
48.969830
0
LINE
8
Layer 1
10
10454.600000
20
41.313900
11
10453.890353
21
41.389168
0
LINE
8
Layer 1
10
10453.890353
20
41.389168
11
10453.309680
21
41.614974
0
LINE
8
Layer 1
10
10453.309680
20
41.614974
11
10452.463861
21
42.432176
0
LINE
8
Layer 1
10
10452.463861
20
42.432176
11
10452.004968
21
43.679486
0
LINE
8
Layer 1
10
10452.004968
20
43.679486
11
10451.875993
21
45.242206
0
LINE
8
Layer 1
10
10451.875993
20
45.242206
11
10452.044409
21
46.901698
0
LINE
8
Layer 1
10
10452.044409
20
46.901698
11
10452.549657
21
48.152596
0
LINE
8
Layer 1
10
10452.549657
20
48.152596
11
10452.936830
21
48.616753
0
LINE
8
Layer 1
10
10452.936830
20
48.616753
11
10453.410012
21
48.948293
0
LINE
8
Layer 1
10
10453.410012
20
48.948293
11
10454.614397
21
49.213526
0
LINE
8
Layer 1
10
10454.614397
20
49.213526
11
10455.359745
21
49.113168
0
LINE
8
Layer 1
10
10455.359745
20
49.113168
11
10455.976400
21
48.855104
0
LINE
8
Layer 1
10
10455.976400
20
48.855104
11
10455.660876
21
47.837184
0
LINE
8
Layer 1
10
10455.660876
20
47.837184
11
10455.191329
21
48.052237
0
LINE
8
Layer 1
10
10455.191329
20
48.052237
11
10454.671688
21
48.123922
0
LINE
8
Layer 1
10
10454.671688
20
48.123922
11
10453.997883
21
47.948295
0
LINE
8
Layer 1
10
10453.997883
20
47.948295
11
10453.524738
21
47.421415
0
LINE
8
Layer 1
10
10453.524738
20
47.421415
11
10453.255922
21
46.525359
0
LINE
8
Layer 1
10
10453.255922
20
46.525359
11
10453.166316
21
45.242205
0
LINE
8
Layer 1
10
10453.166316
20
45.242205
11
10453.238000
21
44.095255
0
LINE
8
Layer 1
10
10453.238000
20
44.095255
11
10453.481558
21
43.206369
0
LINE
8
Layer 1
10
10453.481558
20
43.206369
11
10453.954844
21
42.618557
0
LINE
8
Layer 1
10
10453.954844
20
42.618557
11
10454.714586
21
42.403504
0
LINE
8
Layer 1
10
10454.714586
20
42.403504
11
10455.273668
21
42.475188
0
LINE
8
Layer 1
10
10455.273668
20
42.475188
11
10455.761348
21
42.690241
0
LINE
8
Layer 1
10
10455.761348
20
42.690241
11
10456.033692
21
41.729670
0
LINE
8
Layer 1
10
10456.033692
20
41.729670
11
10455.417037
21
41.442932
0
LINE
8
Layer 1
10
10455.417037
20
41.442932
11
10454.600004
21
41.313900
0
LINE
8
Layer 1
10
10454.600004
20
41.313900
11
10454.600000
21
41.313900
0
LINE
8
Layer 1
10
10612.800000
20
47.894500
11
10611.911283
21
48.123890
0
LINE
8
Layer 1
10
10611.911283
20
48.123890
11
10611.280517
21
47.980521
0
LINE
8
Layer 1
10
10611.280517
20
47.980521
11
10610.807231
21
47.507404
0
LINE
8
Layer 1
10
10610.807231
20
47.507404
11
10610.520493
21
46.632854
0
LINE
8
Layer 1
10
10610.520493
20
46.632854
11
10610.420304
21
45.285184
0
LINE
8
Layer 1
10
10610.420304
20
45.285184
11
10610.520634
21
43.955439
0
LINE
8
Layer 1
10
10610.520634
20
43.955439
11
10610.821624
21
43.062964
0
LINE
8
Layer 1
10
10610.821624
20
43.062964
11
10611.341335
21
42.568342
0
LINE
8
Layer 1
10
10611.341335
20
42.568342
11
10612.069044
21
42.403468
0
LINE
8
Layer 1
10
10612.069044
20
42.403468
11
10612.413073
21
42.417805
0
LINE
8
Layer 1
10
10612.413073
20
42.417805
11
10612.799999
21
42.503826
0
LINE
8
Layer 1
10
10612.799999
20
42.503826
11
10612.800000
21
47.894500
0
LINE
8
Layer 1
10
10612.800000
20
52.410620
11
10614.033030
21
52.625673
0
LINE
8
Layer 1
10
10614.033030
20
52.625673
11
10614.000000
21
41.701000
0
LINE
8
Layer 1
10
10614.000000
20
41.701000
11
10613.082496
21
41.428599
0
LINE
8
Layer 1
10
10613.082496
20
41.428599
11
10612.036016
21
41.313904
0
LINE
8
Layer 1
10
10612.036016
20
41.313904
11
10610.698991
21
41.561215
0
LINE
8
Layer 1
10
10610.698991
20
41.561215
11
10610.189122
21
41.870354
0
LINE
8
Layer 1
10
10610.189122
20
41.870354
11
10609.785016
21
42.303149
0
LINE
8
Layer 1
10
10609.785016
20
42.303149
11
10609.268973
21
43.543289
0
LINE
8
Layer 1
10
10609.268973
20
43.543289
11
10609.096959
21
45.285219
0
LINE
8
Layer 1
10
10609.096959
20
45.285219
11
10609.240328
21
46.905289
0
LINE
8
Layer 1
10
10609.240328
20
46.905289
11
10609.713332
21
48.138259
0
LINE
8
Layer 1
10
10609.713332
20
48.138259
11
10610.544758
21
48.926787
0
LINE
8
Layer 1
10
10610.544758
20
48.926787
11
10611.093186
21
49.141840
0
LINE
8
Layer 1
10
10611.093186
20
49.141840
11
10611.734888
21
49.213525
0
LINE
8
Layer 1
10
10611.734888
20
49.213525
11
10612.293970
21
49.141841
0
LINE
8
Layer 1
10
10612.293970
20
49.141841
11
10612.766974
21
48.969798
0
LINE
8
Layer 1
10
10612.766974
20
48.969798
11
10612.800000
21
52.410620
0
LINE
8
Layer 1
10
10769.200000
20
44.898100
11
10769.300189
21
43.894520
0
LINE
8
Layer 1
10
10769.300189
20
43.894520
11
10769.572815
21
43.105992
0
LINE
8
Layer 1
10
10769.572815
20
43.105992
11
10770.088717
21
42.589864
0
LINE
8
Layer 1
10
10770.088717
20
42.589864
11
10770.920425
21
42.403485
0
LINE
8
Layer 1
10
10770.920425
20
42.403485
11
10771.680167
21
42.518180
0
LINE
8
Layer 1
10
10771.680167
20
42.518180
11
10772.196351
21
42.733233
0
LINE
8
Layer 1
10
10772.196351
20
42.733233
11
10772.425797
21
41.743988
0
LINE
8
Layer 1
10
10772.425797
20
41.743988
11
10771.795031
21
41.471587
0
LINE
8
Layer 1
10
10771.795031
20
41.471587
11
10770.762661
21
41.313881
0
LINE
8
Layer 1
10
10770.762661
20
41.313881
11
10770.035092
21
41.385565
0
LINE
8
Layer 1
10
10770.035092
20
41.385565
11
10769.429441
21
41.600619
0
LINE
8
Layer 1
10
10769.429441
20
41.600619
11
10768.554835
21
42.403484
0
LINE
8
Layer 1
10
10768.554835
20
42.403484
11
10768.081549
21
43.636454
0
LINE
8
Layer 1
10
10768.081549
20
43.636454
11
10767.938180
21
45.213514
0
LINE
8
Layer 1
10
10767.938180
20
45.213514
11
10768.110265
21
47.012794
0
LINE
8
Layer 1
10
10768.110265
20
47.012794
11
10768.626519
21
48.252934
0
LINE
8
Layer 1
10
10768.626519
20
48.252934
11
10769.425700
21
48.973362
0
LINE
8
Layer 1
10
10769.425700
20
48.973362
11
10770.447129
21
49.213505
0
LINE
8
Layer 1
10
10770.447129
20
49.213505
11
10771.536859
21
48.973362
0
LINE
8
Layer 1
10
10771.536859
20
48.973362
11
10771.941864
21
48.673184
0
LINE
8
Layer 1
10
10771.941864
20
48.673184
11
10772.253629
21
48.252934
0
LINE
8
Layer 1
10
10772.253629
20
48.252934
11
10772.651562
21
47.098816
0
LINE
8
Layer 1
10
10772.651562
20
47.098816
11
10772.784206
21
45.557604
0
LINE
8
Layer 1
10
10772.784206
20
45.557604
11
10772.784206
21
45.227856
0
LINE
8
Layer 1
10
10772.784206
20
45.227856
11
10772.770095
21
44.898108
0
LINE
8
Layer 1
10
10772.770095
20
44.898108
11
10769.200000
21
44.898100
0
LINE
8
Layer 1
10
10770.447140
20
48.166910
11
10769.913176
21
48.012788
0
LINE
8
Layer 1
10
10769.913176
20
48.012788
11
10769.544030
21
47.550424
0
LINE
8
Layer 1
10
10769.544030
20
47.550424
11
10769.214395
21
45.901684
0
LINE
8
Layer 1
10
10769.214395
20
45.901684
11
10771.500000
21
45.901700
0
LINE
8
Layer 1
10
10771.500000
20
45.901700
11
10771.284947
21
47.550440
0
LINE
8
Layer 1
10
10771.284947
20
47.550440
11
10770.969493
21
48.012804
0
LINE
8
Layer 1
10
10770.969493
20
48.012804
11
10770.453239
21
48.166926
0
LINE
8
Layer 1
10
10770.453239
20
48.166926
11
10770.447140
21
48.166910
0
LINE
8
Layer 1
10
10929.000000
20
52.625700
11
10929.730955
21
52.539679
0
LINE
8
Layer 1
10
10929.730955
20
52.539679
11
10930.247139
21
52.353300
0
LINE
8
Layer 1
10
10930.247139
20
52.353300
11
10929.989188
21
51.378392
0
LINE
8
Layer 1
10
10929.989188
20
51.378392
11
10929.573475
21
51.521761
0
LINE
8
Layer 1
10
10929.573475
20
51.521761
11
10929.114582
21
51.579108
0
LINE
8
Layer 1
10
10929.114582
20
51.579108
11
10928.569894
21
51.464413
0
LINE
8
Layer 1
10
10928.569894
20
51.464413
11
10928.239976
21
51.149002
0
LINE
8
Layer 1
10
10928.239976
20
51.149002
11
10928.082214
21
50.661548
0
LINE
8
Layer 1
10
10928.082214
20
50.661548
11
10928.039316
21
50.073736
0
LINE
8
Layer 1
10
10928.039316
20
50.073736
11
10928.000000
21
49.027200
0
LINE
8
Layer 1
10
10928.000000
20
49.027200
11
10929.900000
21
49.027200
0
LINE
8
Layer 1
10
10929.900000
20
49.027200
11
10929.900000
21
47.966200
0
LINE
8
Layer 1
10
10929.900000
20
47.966200
11
10928.000000
21
47.966200
0
LINE
8
Layer 1
10
10928.000000
20
47.966200
11
10928.000000
21
41.500300
0
LINE
8
Layer 1
10
10928.000000
20
41.500300
11
10926.800000
21
41.500300
0
LINE
8
Layer 1
10
10926.800000
20
41.500300
11
10926.800000
21
50.073800
0
LINE
8
Layer 1
10
10926.800000
20
50.073800
11
10926.936243
21
51.152648
0
LINE
8
Layer 1
10
10926.936243
20
51.152648
11
10927.344971
21
51.951930
0
LINE
8
Layer 1
10
10927.344971
20
51.951930
11
10928.029500
21
52.457305
0
LINE
8
Layer 1
10
10928.029500
20
52.457305
11
10928.993711
21
52.625763
0
LINE
8
Layer 1
10
10928.993711
20
52.625763
11
10929.000000
21
52.625700
0
LINE
8
Layer 1
10
11087.800000
20
41.715400
11
11087.584947
21
40.367730
0
LINE
8
Layer 1
10
11087.584947
20
40.367730
11
11087.025865
21
39.464507
0
LINE
8
Layer 1
10
11087.025865
20
39.464507
11
11086.180046
21
38.962716
0
LINE
8
Layer 1
10
11086.180046
20
38.962716
11
11085.162076
21
38.805010
0
LINE
8
Layer 1
10
11085.162076
20
38.805010
11
11084.244572
21
38.905368
0
LINE
8
Layer 1
10
11084.244572
20
38.905368
11
11083.398470
21
39.206442
0
LINE
8
Layer 1
10
11083.398470
20
39.206442
11
11083.656703
21
40.238702
0
LINE
8
Layer 1
10
11083.656703
20
40.238702
11
11084.287469
21
39.980638
0
LINE
8
Layer 1
10
11084.287469
20
39.980638
11
11085.061604
21
39.865943
0
LINE
8
Layer 1
10
11085.061604
20
39.865943
11
11085.688842
21
39.966301
0
LINE
8
Layer 1
10
11085.688842
20
39.966301
11
11086.165654
21
40.267376
0
LINE
8
Layer 1
10
11086.165654
20
40.267376
11
11086.466644
21
40.812178
0
LINE
8
Layer 1
10
11086.466644
20
40.812178
11
11086.566974
21
41.643716
0
LINE
8
Layer 1
10
11086.566974
20
41.643716
11
11086.500000
21
42.002100
0
LINE
8
Layer 1
10
11086.500000
20
42.002100
11
11086.012603
21
41.830057
0
LINE
8
Layer 1
10
11086.012603
20
41.830057
11
11085.424735
21
41.772709
0
LINE
8
Layer 1
10
11085.424735
20
41.772709
11
11084.256335
21
42.002099
0
LINE
8
Layer 1
10
11084.256335
20
42.002099
11
11083.446355
21
42.690269
0
LINE
8
Layer 1
10
11083.446355
20
42.690269
11
11082.983864
21
43.812130
0
LINE
8
Layer 1
10
11082.983864
20
43.812130
11
11082.829700
21
45.313919
0
LINE
8
Layer 1
10
11082.829700
20
45.313919
11
11082.987462
21
46.933989
0
LINE
8
Layer 1
10
11082.987462
20
46.933989
11
11083.503646
21
48.166959
0
LINE
8
Layer 1
10
11083.503646
20
48.166959
11
11083.912233
21
48.618571
0
LINE
8
Layer 1
10
11083.912233
20
48.618571
11
11084.421150
21
48.941150
0
LINE
8
Layer 1
10
11084.421150
20
48.941150
11
11085.041191
21
49.145451
0
LINE
8
Layer 1
10
11085.041191
20
49.145451
11
11085.783150
21
49.213552
0
LINE
8
Layer 1
10
11085.783150
20
49.213552
11
11086.815520
21
49.098857
0
LINE
8
Layer 1
10
11086.815520
20
49.098857
11
11087.733024
21
48.826456
0
LINE
8
Layer 1
10
11087.733024
20
48.826456
11
11087.800000
21
41.715400
0
LINE
8
Layer 1
10
11086.566970
20
48.023630
11
11086.180044
21
48.095314
0
LINE
8
Layer 1
10
11086.180044
20
48.095314
11
11085.835733
21
48.123988
0
LINE
8
Layer 1
10
11085.835733
20
48.123988
11
11085.090244
21
47.959114
0
LINE
8
Layer 1
10
11085.090244
20
47.959114
11
11084.574203
21
47.464492
0
LINE
8
Layer 1
10
11084.574203
20
47.464492
11
11084.283796
21
46.597112
0
LINE
8
Layer 1
10
11084.283796
20
46.597112
11
11084.186994
21
45.313962
0
LINE
8
Layer 1
10
11084.186994
20
45.313962
11
11084.283796
21
44.163427
0
LINE
8
Layer 1
10
11084.283796
20
44.163427
11
11084.574203
21
43.407162
0
LINE
8
Layer 1
10
11084.574203
20
43.407162
11
11085.043820
21
42.998561
0
LINE
8
Layer 1
10
11085.043820
20
42.998561
11
11085.678253
21
42.862361
0
LINE
8
Layer 1
10
11085.678253
20
42.862361
11
11086.136864
21
42.919709
0
LINE
8
Layer 1
10
11086.136864
20
42.919709
11
11086.566970
21
43.077415
0
LINE
8
Layer 1
10
11086.566970
20
43.077415
11
11086.566970
21
48.023630
0
LINE
8
Layer 1
10
11242.100000
20
41.500300
11
11242.100000
21
52.410700
0
LINE
8
Layer 1
10
11242.100000
20
52.410700
11
11243.333030
21
52.625753
0
LINE
8
Layer 1
10
11243.333030
20
52.625753
11
11243.400000
21
48.984200
0
LINE
8
Layer 1
10
11243.400000
20
48.984200
11
11243.987868
21
49.127569
0
LINE
8
Layer 1
10
11243.987868
20
49.127569
11
11244.647421
21
49.184916
0
LINE
8
Layer 1
10
11244.647421
20
49.184916
11
11245.536138
21
49.027211
0
LINE
8
Layer 1
10
11245.536138
20
49.027211
11
11246.252982
21
48.525420
0
LINE
8
Layer 1
10
11246.252982
20
48.525420
11
11246.740662
21
47.550512
0
LINE
8
Layer 1
10
11246.740662
20
47.550512
11
11246.926929
21
46.045142
0
LINE
8
Layer 1
10
11246.926929
20
46.045142
11
11246.900000
21
41.500300
0
LINE
8
Layer 1
10
11246.900000
20
41.500300
11
11245.700000
21
41.500300
0
LINE
8
Layer 1
10
11245.700000
20
41.500300
11
11245.700000
21
45.944700
0
LINE
8
Layer 1
10
11245.700000
20
45.944700
11
11245.628316
21
46.912440
0
LINE
8
Layer 1
10
11245.628316
20
46.912440
11
11245.413262
21
47.579100
0
LINE
8
Layer 1
10
11245.413262
20
47.579100
11
11245.001076
21
47.966196
0
LINE
8
Layer 1
10
11245.001076
20
47.966196
11
11244.337992
21
48.095228
0
LINE
8
Layer 1
10
11244.337992
20
48.095228
11
11243.406095
21
47.951859
0
LINE
8
Layer 1
10
11243.406095
20
47.951859
11
11243.400000
21
41.500300
0
LINE
8
Layer 1
10
11243.400000
20
41.500300
11
11242.100000
21
41.500300
0
LINE
8
Layer 1
10
11402.400000
20
41.500300
11
11401.200000
21
41.500300
0
LINE
8
Layer 1
10
11401.200000
20
41.500300
11
11401.200000
21
49.027200
0
LINE
8
Layer 1
10
11401.200000
20
49.027200
11
11402.400000
21
49.027200
0
LINE
8
Layer 1
10
11402.400000
20
49.027200
11
11402.400000
21
41.500300
0
LINE
8
Layer 1
10
11401.783345
20
50.360490
11
11401.209870
21
50.575543
0
LINE
8
Layer 1
10
11401.209870
20
50.575543
11
11400.980706
21
51.177692
0
LINE
8
Layer 1
10
11400.980706
20
51.177692
11
11401.209870
21
51.765504
0
LINE
8
Layer 1
10
11401.209870
20
51.765504
11
11401.783345
21
51.994894
0
LINE
8
Layer 1
10
11401.783345
20
51.994894
11
11402.342709
21
51.765504
0
LINE
8
Layer 1
10
11402.342709
20
51.765504
11
11402.586267
21
51.177692
0
LINE
8
Layer 1
10
11402.586267
20
51.177692
11
11402.342709
21
50.575543
0
LINE
8
Layer 1
10
11402.342709
20
50.575543
11
11401.783345
21
50.360490
0
LINE
8
Layer 1
10
11401.783345
20
50.360490
11
11401.783345
21
50.360490
0
LINE
8
Layer 1
10
11558.000000
20
41.098900
11
11557.863828
21
40.041555
0
LINE
8
Layer 1
10
11557.863828
20
40.041555
11
11557.455312
21
39.335460
0
LINE
8
Layer 1
10
11557.455312
20
39.335460
11
11556.820806
21
38.937612
0
LINE
8
Layer 1
10
11556.820806
20
38.937612
11
11556.007232
21
38.804996
0
LINE
8
Layer 1
10
11556.007232
20
38.804996
11
11555.161413
21
38.948365
0
LINE
8
Layer 1
10
11555.161413
20
38.948365
11
11555.333286
21
39.994955
0
LINE
8
Layer 1
10
11555.333286
20
39.994955
11
11555.591519
21
39.951944
0
LINE
8
Layer 1
10
11555.591519
20
39.951944
11
11555.878257
21
39.923271
0
LINE
8
Layer 1
10
11555.878257
20
39.923271
11
11556.236679
21
39.980618
0
LINE
8
Layer 1
10
11556.236679
20
39.980618
11
11556.523417
21
40.166997
0
LINE
8
Layer 1
10
11556.523417
20
40.166997
11
11556.695290
21
40.554093
0
LINE
8
Layer 1
10
11556.695290
20
40.554093
11
11556.766974
21
41.170579
0
LINE
8
Layer 1
10
11556.766974
20
41.170579
11
11556.800000
21
49.027200
0
LINE
8
Layer 1
10
11556.800000
20
49.027200
11
11558.000000
21
49.027200
0
LINE
8
Layer 1
10
11558.000000
20
49.027200
11
11558.000000
21
41.098900
0
LINE
8
Layer 1
10
11557.383627
20
50.360520
11
11556.810152
21
50.575573
0
LINE
8
Layer 1
10
11556.810152
20
50.575573
11
11556.580706
21
51.177722
0
LINE
8
Layer 1
10
11556.580706
20
51.177722
11
11556.810152
21
51.765534
0
LINE
8
Layer 1
10
11556.810152
20
51.765534
11
11557.383627
21
51.994924
0
LINE
8
Layer 1
10
11557.383627
20
51.994924
11
11557.942709
21
51.765534
0
LINE
8
Layer 1
10
11557.942709
20
51.765534
11
11558.186267
21
51.177722
0
LINE
8
Layer 1
10
11558.186267
20
51.177722
11
11557.942709
21
50.575573
0
LINE
8
Layer 1
10
11557.942709
20
50.575573
11
11557.383627
21
50.360520
0
LINE
8
Layer 1
10
11557.383627
20
50.360520
11
11557.383627
21
50.360520
0
LINE
8
Layer 1
10
11717.000000
20
49.027200
11
11715.838940
21
47.134730
0
LINE
8
Layer 1
10
11715.838940
20
47.134730
11
11714.749280
21
45.543340
0
LINE
8
Layer 1
10
11714.749280
20
45.543340
11
11715.451731
21
44.640117
0
LINE
8
Layer 1
10
11715.451731
20
44.640117
11
11716.139788
21
43.593527
0
LINE
8
Layer 1
10
11716.139788
20
43.593527
11
11716.756443
21
42.518257
0
LINE
8
Layer 1
10
11716.756443
20
42.518257
11
11717.243840
21
41.500337
0
LINE
8
Layer 1
10
11717.243840
20
41.500337
11
11715.900000
21
41.500300
0
LINE
8
Layer 1
10
11715.900000
20
41.500300
11
11715.398209
21
42.489545
0
LINE
8
Layer 1
10
11715.398209
20
42.489545
11
11714.795947
21
43.493125
0
LINE
8
Layer 1
10
11714.795947
20
43.493125
11
11714.165181
21
44.439359
0
LINE
8
Layer 1
10
11714.165181
20
44.439359
11
11713.577313
21
45.184877
0
LINE
8
Layer 1
10
11713.577313
20
45.184877
11
11713.600000
21
41.500300
0
LINE
8
Layer 1
10
11713.600000
20
41.500300
11
11712.400000
21
41.500300
0
LINE
8
Layer 1
10
11712.400000
20
41.500300
11
11712.400000
21
52.410700
0
LINE
8
Layer 1
10
11712.400000
20
52.410700
11
11713.633030
21
52.625753
0
LINE
8
Layer 1
10
11713.633030
20
52.625753
11
11713.600000
21
45.787000
0
LINE
8
Layer 1
10
11713.600000
20
45.787000
11
11714.144971
21
46.561191
0
LINE
8
Layer 1
10
11714.144971
20
46.561191
11
11714.732557
21
47.421404
0
LINE
8
Layer 1
10
11714.732557
20
47.421404
11
11715.277528
21
48.281617
0
LINE
8
Layer 1
10
11715.277528
20
48.281617
11
11715.707634
21
49.027135
0
LINE
8
Layer 1
10
11715.707634
20
49.027135
11
11717.000000
21
49.027200
0
LINE
8
Layer 1
10
11872.600000
20
41.356900
11
11871.689623
21
41.500269
0
LINE
8
Layer 1
10
11871.689623
20
41.500269
11
11871.080230
21
41.873028
0
LINE
8
Layer 1
10
11871.080230
20
41.873028
11
11870.736272
21
42.518189
0
LINE
8
Layer 1
10
11870.736272
20
42.518189
11
11870.621619
21
43.450088
0
LINE
8
Layer 1
10
11870.621619
20
43.450088
11
11870.600000
21
52.410700
0
LINE
8
Layer 1
10
11870.600000
20
52.410700
11
11871.832750
21
52.625753
0
LINE
8
Layer 1
10
11871.832750
20
52.625753
11
11871.900000
21
43.421400
0
LINE
8
Layer 1
10
11871.900000
20
43.421400
11
11872.100942
21
42.690219
0
LINE
8
Layer 1
10
11872.100942
20
42.690219
11
11872.803393
21
42.389145
0
LINE
8
Layer 1
10
11872.803393
20
42.389145
11
11872.600000
21
41.356900
0
LINE
8
Layer 1
10
12026.300000
20
48.812100
11
12027.389660
21
49.070164
0
LINE
8
Layer 1
10
12027.389660
20
49.070164
11
12028.464930
21
49.184859
0
LINE
8
Layer 1
10
12028.464930
20
49.184859
11
12029.368040
21
49.055827
0
LINE
8
Layer 1
10
12029.368040
20
49.055827
11
12030.099277
21
48.625721
0
LINE
8
Layer 1
10
12030.099277
20
48.625721
11
12030.902199
21
49.027154
0
LINE
8
Layer 1
10
12030.902199
20
49.027154
11
12031.848489
21
49.184860
0
LINE
8
Layer 1
10
12031.848489
20
49.184860
11
12032.780386
21
49.027154
0
LINE
8
Layer 1
10
12032.780386
20
49.027154
11
12033.511623
21
48.525363
0
LINE
8
Layer 1
10
12033.511623
20
48.525363
11
12033.984627
21
47.550455
0
LINE
8
Layer 1
10
12033.984627
20
47.550455
11
12034.156782
21
46.045085
0
LINE
8
Layer 1
10
12034.156782
20
46.045085
11
12034.100000
21
41.500300
0
LINE
8
Layer 1
10
12034.100000
20
41.500300
11
12032.900000
21
41.500300
0
LINE
8
Layer 1
10
12032.900000
20
41.500300
11
12032.900000
21
45.944700
0
LINE
8
Layer 1
10
12032.900000
20
45.944700
11
12032.835442
21
46.912440
0
LINE
8
Layer 1
10
12032.835442
20
46.912440
11
12032.641767
21
47.579100
0
LINE
8
Layer 1
10
12032.641767
20
47.579100
11
12032.269093
21
47.966196
0
LINE
8
Layer 1
10
12032.269093
20
47.966196
11
12031.666972
21
48.095228
0
LINE
8
Layer 1
10
12031.666972
20
48.095228
11
12031.107890
21
47.994870
0
LINE
8
Layer 1
10
12031.107890
20
47.994870
11
12030.591706
21
47.722469
0
LINE
8
Layer 1
10
12030.591706
20
47.722469
11
12030.763861
21
46.976951
0
LINE
8
Layer 1
10
12030.763861
20
46.976951
11
12030.821152
21
46.045054
0
LINE
8
Layer 1
10
12030.821152
20
46.045054
11
12030.800000
21
41.500300
0
LINE
8
Layer 1
10
12030.800000
20
41.500300
11
12029.600000
21
41.500300
0
LINE
8
Layer 1
10
12029.600000
20
41.500300
11
12029.600000
21
45.944700
0
LINE
8
Layer 1
10
12029.600000
20
45.944700
11
12029.535512
21
46.912440
0
LINE
8
Layer 1
10
12029.535512
20
46.912440
11
12029.342049
21
47.579100
0
LINE
8
Layer 1
10
12029.342049
20
47.579100
11
12028.969163
21
47.966196
0
LINE
8
Layer 1
10
12028.969163
20
47.966196
11
12028.366972
21
48.095228
0
LINE
8
Layer 1
10
12028.366972
20
48.095228
11
12027.521153
21
47.951859
0
LINE
8
Layer 1
10
12027.521153
20
47.951859
11
12027.500000
21
41.500300
0
LINE
8
Layer 1
10
12027.500000
20
41.500300
11
12026.300000
21
41.500300
0
LINE
8
Layer 1
10
12026.300000
20
41.500300
11
12026.300000
21
48.812100
0
LINE
8
Layer 1
10
12188.400000
20
48.812100
11
12189.546950
21
49.070164
0
LINE
8
Layer 1
10
12189.546950
20
49.070164
11
12190.679790
21
49.184859
0
LINE
8
Layer 1
10
12190.679790
20
49.184859
11
12191.697480
21
49.027153
0
LINE
8
Layer 1
10
12191.697480
20
49.027153
11
12192.471897
21
48.525362
0
LINE
8
Layer 1
10
12192.471897
20
48.525362
11
12192.973688
21
47.550454
0
LINE
8
Layer 1
10
12192.973688
20
47.550454
11
12193.159955
21
46.045084
0
LINE
8
Layer 1
10
12193.159955
20
46.045084
11
12193.200000
21
41.500300
0
LINE
8
Layer 1
10
12193.200000
20
41.500300
11
12191.900000
21
41.500300
0
LINE
8
Layer 1
10
12191.900000
20
41.500300
11
12191.900000
21
45.944700
0
LINE
8
Layer 1
10
12191.900000
20
45.944700
11
12191.828315
21
46.912440
0
LINE
8
Layer 1
10
12191.828315
20
46.912440
11
12191.613262
21
47.579100
0
LINE
8
Layer 1
10
12191.613262
20
47.579100
11
12191.201075
21
47.966196
0
LINE
8
Layer 1
10
12191.201075
20
47.966196
11
12190.537992
21
48.095228
0
LINE
8
Layer 1
10
12190.537992
20
48.095228
11
12189.606095
21
47.951859
0
LINE
8
Layer 1
10
12189.606095
20
47.951859
11
12189.600000
21
41.500300
0
LINE
8
Layer 1
10
12189.600000
20
41.500300
11
12188.400000
21
41.500300
0
LINE
8
Layer 1
10
12188.400000
20
41.500300
11
12188.400000
21
48.812100
0
LINE
8
Layer 1
10
12352.300000
20
45.256600
11
12352.142238
21
43.636530
0
LINE
8
Layer 1
10
12352.142238
20
43.636530
11
12351.654841
21
42.403560
0
LINE
8
Layer 1
10
12351.654841
20
42.403560
11
12350.837526
21
41.600695
0
LINE
8
Layer 1
10
12350.837526
20
41.600695
11
12350.303492
21
41.385641
0
LINE
8
Layer 1
10
12350.303492
20
41.385641
11
12349.676186
21
41.313957
0
LINE
8
Layer 1
10
12349.676186
20
41.313957
11
12349.045491
21
41.385641
0
LINE
8
Layer 1
10
12349.045491
20
41.385641
11
12348.500736
21
41.600695
0
LINE
8
Layer 1
10
12348.500736
20
41.600695
11
12347.669028
21
42.403560
0
LINE
8
Layer 1
10
12347.669028
20
42.403560
11
12347.196024
21
43.636530
0
LINE
8
Layer 1
10
12347.196024
20
43.636530
11
12347.038262
21
45.256600
0
LINE
8
Layer 1
10
12347.038262
20
45.256600
11
12347.196024
21
46.862330
0
LINE
8
Layer 1
10
12347.196024
20
46.862330
11
12347.669028
21
48.109640
0
LINE
8
Layer 1
10
12347.669028
20
48.109640
11
12348.500736
21
48.926842
0
LINE
8
Layer 1
10
12348.500736
20
48.926842
11
12349.045494
21
49.141895
0
LINE
8
Layer 1
10
12349.045494
20
49.141895
11
12349.676186
21
49.213580
0
LINE
8
Layer 1
10
12349.676186
20
49.213580
11
12350.303494
21
49.141895
0
LINE
8
Layer 1
10
12350.303494
20
49.141895
11
12350.837526
21
48.926842
0
LINE
8
Layer 1
10
12350.837526
20
48.926842
11
12351.292750
21
48.579172
0
LINE
8
Layer 1
10
12351.292750
20
48.579172
11
12351.654841
21
48.109640
0
LINE
8
Layer 1
10
12351.654841
20
48.109640
11
12352.142238
21
46.862330
0
LINE
8
Layer 1
10
12352.142238
20
46.862330
11
12352.300000
21
45.256600
0
LINE
8
Layer 1
10
12352.300000
20
45.256600
11
12352.300000
21
45.256600
0
LINE
8
Layer 1
10
12351.009680
20
45.256600
11
12350.937996
21
46.403550
0
LINE
8
Layer 1
10
12350.937996
20
46.403550
11
12350.708550
21
47.306773
0
LINE
8
Layer 1
10
12350.708550
20
47.306773
11
12350.292837
21
47.894585
0
LINE
8
Layer 1
10
12350.292837
20
47.894585
11
12349.676182
21
48.109638
0
LINE
8
Layer 1
10
12349.676182
20
48.109638
11
12349.045416
21
47.894585
0
LINE
8
Layer 1
10
12349.045416
20
47.894585
11
12348.629703
21
47.306773
0
LINE
8
Layer 1
10
12348.629703
20
47.306773
11
12348.400257
21
46.403550
0
LINE
8
Layer 1
10
12348.400257
20
46.403550
11
12348.328572
21
45.256600
0
LINE
8
Layer 1
10
12348.328572
20
45.256600
11
12348.400257
21
44.095310
0
LINE
8
Layer 1
10
12348.400257
20
44.095310
11
12348.629703
21
43.206424
0
LINE
8
Layer 1
10
12348.629703
20
43.206424
11
12349.045416
21
42.618612
0
LINE
8
Layer 1
10
12349.045416
20
42.618612
11
12349.676182
21
42.417896
0
LINE
8
Layer 1
10
12349.676182
20
42.417896
11
12350.292837
21
42.618612
0
LINE
8
Layer 1
10
12350.292837
20
42.618612
11
12350.708550
21
43.206424
0
LINE
8
Layer 1
10
12350.708550
20
43.206424
11
12350.937996
21
44.095310
0
LINE
8
Layer 1
10
12350.937996
20
44.095310
11
12351.009680
21
45.256600
0
LINE
8
Layer 1
10
12351.009680
20
45.256600
11
12351.009680
21
45.256600
0
LINE
8
Layer 1
10
12507.500000
20
42.632900
11
12508.388717
21
42.403510
0
LINE
8
Layer 1
10
12508.388717
20
42.403510
11
12509.019765
21
42.546879
0
LINE
8
Layer 1
10
12509.019765
20
42.546879
11
12509.478376
21
43.019996
0
LINE
8
Layer 1
10
12509.478376
20
43.019996
11
12509.779507
21
43.894546
0
LINE
8
Layer 1
10
12509.779507
20
43.894546
11
12509.879978
21
45.242216
0
LINE
8
Layer 1
10
12509.879978
20
45.242216
11
12509.779577
21
46.568376
0
LINE
8
Layer 1
10
12509.779577
20
46.568376
11
12509.478376
21
47.450096
0
LINE
8
Layer 1
10
12509.478376
20
47.450096
11
12508.973128
21
47.955471
0
LINE
8
Layer 1
10
12508.973128
20
47.955471
11
12508.231236
21
48.123929
0
LINE
8
Layer 1
10
12508.231236
20
48.123929
11
12507.886925
21
48.095255
0
LINE
8
Layer 1
10
12507.886925
20
48.095255
11
12507.499999
21
48.023571
0
LINE
8
Layer 1
10
12507.499999
20
48.023571
11
12507.500000
21
42.632900
0
LINE
8
Layer 1
10
12507.500000
20
38.847960
11
12506.200000
21
38.848000
0
LINE
8
Layer 1
10
12506.200000
20
38.848000
11
12506.200000
21
48.826400
0
LINE
8
Layer 1
10
12506.200000
20
48.826400
11
12507.103110
21
49.098801
0
LINE
8
Layer 1
10
12507.103110
20
49.098801
11
12508.149870
21
49.213496
0
LINE
8
Layer 1
10
12508.149870
20
49.213496
11
12508.881036
21
49.145396
0
LINE
8
Layer 1
10
12508.881036
20
49.145396
11
12509.497480
21
48.941095
0
LINE
8
Layer 1
10
12509.497480
20
48.941095
11
12510.013593
21
48.607762
0
LINE
8
Layer 1
10
12510.013593
20
48.607762
11
12510.414984
21
48.152567
0
LINE
8
Layer 1
10
12510.414984
20
48.152567
11
12510.931168
21
46.905257
0
LINE
8
Layer 1
10
12510.931168
20
46.905257
11
12511.103323
21
45.227847
0
LINE
8
Layer 1
10
12511.103323
20
45.227847
11
12510.949159
21
43.546850
0
LINE
8
Layer 1
10
12510.949159
20
43.546850
11
12510.486668
21
42.317457
0
LINE
8
Layer 1
10
12510.486668
20
42.317457
11
12510.137277
21
41.878391
0
LINE
8
Layer 1
10
12510.137277
20
41.878391
11
12509.691083
21
41.564772
0
LINE
8
Layer 1
10
12509.691083
20
41.564772
11
12508.508288
21
41.313877
0
LINE
8
Layer 1
10
12508.508288
20
41.313877
11
12507.920420
21
41.385561
0
LINE
8
Layer 1
10
12507.920420
20
41.385561
11
12507.433023
21
41.557604
0
LINE
8
Layer 1
10
12507.433023
20
41.557604
11
12507.500000
21
38.847960
0
LINE
8
Layer 1
10
12668.300000
20
48.023600
11
12667.912791
21
48.095284
0
LINE
8
Layer 1
10
12667.912791
20
48.095284
11
12667.568762
21
48.123958
0
LINE
8
Layer 1
10
12667.568762
20
48.123958
11
12666.823203
21
47.955500
0
LINE
8
Layer 1
10
12666.823203
20
47.955500
11
12666.306952
21
47.450125
0
LINE
8
Layer 1
10
12666.306952
20
47.450125
11
12666.016757
21
46.568407
0
LINE
8
Layer 1
10
12666.016757
20
46.568407
11
12665.920026
21
45.242245
0
LINE
8
Layer 1
10
12665.920026
20
45.242245
11
12666.020215
21
43.894575
0
LINE
8
Layer 1
10
12666.020215
20
43.894575
11
12666.306953
21
43.020025
0
LINE
8
Layer 1
10
12666.306953
20
43.020025
11
12666.780239
21
42.546908
0
LINE
8
Layer 1
10
12666.780239
20
42.546908
11
12667.411005
21
42.403539
0
LINE
8
Layer 1
10
12667.411005
20
42.403539
11
12668.300004
21
42.632929
0
LINE
8
Layer 1
10
12668.300004
20
42.632929
11
12668.300000
21
48.023600
0
LINE
8
Layer 1
10
12668.300000
20
41.557670
11
12667.812320
21
41.385627
0
LINE
8
Layer 1
10
12667.812320
20
41.385627
11
12667.224734
21
41.313943
0
LINE
8
Layer 1
10
12667.224734
20
41.313943
11
12666.038271
21
41.564838
0
LINE
8
Layer 1
10
12666.038271
20
41.564838
11
12665.587493
21
41.878456
0
LINE
8
Layer 1
10
12665.587493
20
41.878456
11
12665.231684
21
42.317523
0
LINE
8
Layer 1
10
12665.231684
20
42.317523
11
12664.780199
21
43.546910
0
LINE
8
Layer 1
10
12664.780199
20
43.546910
11
12664.629704
21
45.227913
0
LINE
8
Layer 1
10
12664.629704
20
45.227913
11
12664.787466
21
46.905323
0
LINE
8
Layer 1
10
12664.787466
20
46.905323
11
12665.303368
21
48.152633
0
LINE
8
Layer 1
10
12665.303368
20
48.152633
11
12665.712026
21
48.607829
0
LINE
8
Layer 1
10
12665.712026
20
48.607829
11
12666.221154
21
48.941161
0
LINE
8
Layer 1
10
12666.221154
20
48.941161
11
12666.841195
21
49.145461
0
LINE
8
Layer 1
10
12666.841195
20
49.145461
11
12667.583154
21
49.213562
0
LINE
8
Layer 1
10
12667.583154
20
49.213562
11
12668.615244
21
49.098867
0
LINE
8
Layer 1
10
12668.615244
20
49.098867
11
12669.532748
21
48.826466
0
LINE
8
Layer 1
10
12669.532748
20
48.826466
11
12669.500000
21
38.848000
0
LINE
8
Layer 1
10
12669.500000
20
38.848000
11
12668.300000
21
38.848000
0
LINE
8
Layer 1
10
12668.300000
20
38.848000
11
12668.300000
21
41.557670
0
LINE
8
Layer 1
10
12827.200000
20
47.908900
11
12826.167910
21
48.109616
0
LINE
8
Layer 1
10
12826.167910
20
48.109616
11
12825.178440
21
47.923237
0
LINE
8
Layer 1
10
12825.178440
20
47.923237
11
12825.100000
21
41.500300
0
LINE
8
Layer 1
10
12825.100000
20
41.500300
11
12823.900000
21
41.500300
0
LINE
8
Layer 1
10
12823.900000
20
41.500300
11
12823.900000
21
48.697400
0
LINE
8
Layer 1
10
12823.900000
20
48.697400
11
12824.846008
21
49.027148
0
LINE
8
Layer 1
10
12824.846008
20
49.027148
11
12826.036138
21
49.170517
0
LINE
8
Layer 1
10
12826.036138
20
49.170517
11
12826.724195
21
49.127506
0
LINE
8
Layer 1
10
12826.724195
20
49.127506
11
12827.369354
21
48.969800
0
LINE
8
Layer 1
10
12827.369354
20
48.969800
11
12827.200000
21
47.908900
0
LINE
8
Layer 1
10
12981.800000
20
42.374800
11
12982.276814
21
42.450069
0
LINE
8
Layer 1
10
12982.276814
20
42.450069
11
12982.617315
21
42.675874
0
LINE
8
Layer 1
10
12982.617315
20
42.675874
11
12982.832368
21
43.037880
0
LINE
8
Layer 1
10
12982.832368
20
43.037880
11
12982.904053
21
43.493076
0
LINE
8
Layer 1
10
12982.904053
20
43.493076
11
12982.789471
21
44.023540
0
LINE
8
Layer 1
10
12982.789471
20
44.023540
11
12982.488340
21
44.424973
0
LINE
8
Layer 1
10
12982.488340
20
44.424973
11
12982.058234
21
44.726047
0
LINE
8
Layer 1
10
12982.058234
20
44.726047
11
12981.570837
21
45.027121
0
LINE
8
Layer 1
10
12981.570837
20
45.027121
11
12981.097551
21
45.356869
0
LINE
8
Layer 1
10
12981.097551
20
45.356869
11
12980.681838
21
45.801312
0
LINE
8
Layer 1
10
12980.681838
20
45.801312
11
12980.395100
21
46.374787
0
LINE
8
Layer 1
10
12980.395100
20
46.374787
11
12980.294629
21
47.134642
0
LINE
8
Layer 1
10
12980.294629
20
47.134642
11
12980.437998
21
47.976933
0
LINE
8
Layer 1
10
12980.437998
20
47.976933
11
12980.868104
21
48.640012
0
LINE
8
Layer 1
10
12980.868104
20
48.640012
11
12981.556303
21
49.070118
0
LINE
8
Layer 1
10
12981.556303
20
49.070118
11
12982.445164
21
49.213487
0
LINE
8
Layer 1
10
12982.445164
20
49.213487
11
12983.233692
21
49.098792
0
LINE
8
Layer 1
10
12983.233692
20
49.098792
11
12983.850347
21
48.869402
0
LINE
8
Layer 1
10
12983.850347
20
48.869402
11
12983.578003
21
47.880157
0
LINE
8
Layer 1
10
12983.578003
20
47.880157
11
12983.061819
21
48.095210
0
LINE
8
Layer 1
10
12983.061819
20
48.095210
11
12982.502737
21
48.166894
0
LINE
8
Layer 1
10
12982.502737
20
48.166894
11
12982.090481
21
48.098794
0
LINE
8
Layer 1
10
12982.090481
20
48.098794
11
12981.771500
21
47.894493
0
LINE
8
Layer 1
10
12981.771500
20
47.894493
11
12981.567242
21
47.575498
0
LINE
8
Layer 1
10
12981.567242
20
47.575498
11
12981.499156
21
47.134638
0
LINE
8
Layer 1
10
12981.499156
20
47.134638
11
12981.599345
21
46.632847
0
LINE
8
Layer 1
10
12981.599345
20
46.632847
11
12981.857578
21
46.260088
0
LINE
8
Layer 1
10
12981.857578
20
46.260088
11
12982.230111
21
45.959014
0
LINE
8
Layer 1
10
12982.230111
20
45.959014
11
12982.674611
21
45.686613
0
LINE
8
Layer 1
10
12982.674611
20
45.686613
11
12983.205188
21
45.342528
0
LINE
8
Layer 1
10
12983.205188
20
45.342528
11
12983.678192
21
44.898085
0
LINE
8
Layer 1
10
12983.678192
20
44.898085
11
12984.022221
21
44.310273
0
LINE
8
Layer 1
10
12984.022221
20
44.310273
11
12984.151479
21
43.507408
0
LINE
8
Layer 1
10
12984.151479
20
43.507408
11
12984.004512
21
42.614938
0
LINE
8
Layer 1
10
12984.004512
20
42.614938
11
12983.563611
21
41.916018
0
LINE
8
Layer 1
10
12983.563611
20
41.916018
11
12982.853893
21
41.464407
0
LINE
8
Layer 1
10
12982.853893
20
41.464407
11
12981.871691
21
41.313869
0
LINE
8
Layer 1
10
12981.871691
20
41.313869
11
12980.839601
21
41.471575
0
LINE
8
Layer 1
10
12980.839601
20
41.471575
11
12980.151262
21
41.758313
0
LINE
8
Layer 1
10
12980.151262
20
41.758313
11
12980.409495
21
42.776233
0
LINE
8
Layer 1
10
12980.409495
20
42.776233
11
12980.982970
21
42.518169
0
LINE
8
Layer 1
10
12980.982970
20
42.518169
11
12981.800003
21
42.374800
0
LINE
8
Layer 1
10
12981.800003
20
42.374800
11
12981.800000
21
42.374800
0
LINE
8
Layer 1
10
13138.900000
20
49.027200
11
13140.800000
21
49.027200
0
LINE
8
Layer 1
10
13140.800000
20
49.027200
11
13140.800000
21
47.966200
0
LINE
8
Layer 1
10
13140.800000
20
47.966200
11
13138.900000
21
47.966200
0
LINE
8
Layer 1
10
13138.900000
20
47.966200
11
13138.900000
21
43.822900
0
LINE
8
Layer 1
10
13138.900000
20
43.822900
11
13138.968086
21
43.163404
0
LINE
8
Layer 1
10
13138.968086
20
43.163404
11
13139.172344
21
42.733300
0
LINE
8
Layer 1
10
13139.172344
20
42.733300
11
13139.505649
21
42.507494
0
LINE
8
Layer 1
10
13139.505649
20
42.507494
11
13139.932086
21
42.432226
0
LINE
8
Layer 1
10
13139.932086
20
42.432226
11
13140.390979
21
42.503910
0
LINE
8
Layer 1
10
13140.390979
20
42.503910
11
13140.777905
21
42.675953
0
LINE
8
Layer 1
10
13140.777905
20
42.675953
11
13141.021745
21
41.686708
0
LINE
8
Layer 1
10
13141.021745
20
41.686708
11
13140.415956
21
41.428645
0
LINE
8
Layer 1
10
13140.415956
20
41.428645
11
13139.774325
21
41.342623
0
LINE
8
Layer 1
10
13139.774325
20
41.342623
11
13138.846097
21
41.489576
0
LINE
8
Layer 1
10
13138.846097
20
41.489576
11
13138.183155
21
41.930435
0
LINE
8
Layer 1
10
13138.183155
20
41.930435
11
13137.796017
21
42.726132
0
LINE
8
Layer 1
10
13137.796017
20
42.726132
11
13137.666971
21
43.908925
0
LINE
8
Layer 1
10
13137.666971
20
43.908925
11
13137.700000
21
51.048700
0
LINE
8
Layer 1
10
13137.700000
20
51.048700
11
13138.933030
21
51.263753
0
LINE
8
Layer 1
10
13138.933030
20
51.263753
11
13138.900000
21
49.027200
0
LINE
8
Layer 1
10
13299.200000
20
41.715400
11
13298.741389
21
41.572031
0
LINE
8
Layer 1
10
13298.741389
20
41.572031
11
13298.182307
21
41.471673
0
LINE
8
Layer 1
10
13298.182307
20
41.471673
11
13297.594439
21
41.385652
0
LINE
8
Layer 1
10
13297.594439
20
41.385652
11
13297.063862
21
41.342641
0
LINE
8
Layer 1
10
13297.063862
20
41.342641
11
13295.988592
21
41.486010
0
LINE
8
Layer 1
10
13295.988592
20
41.486010
11
13295.157166
21
41.959127
0
LINE
8
Layer 1
10
13295.157166
20
41.959127
11
13294.626589
21
42.891024
0
LINE
8
Layer 1
10
13294.626589
20
42.891024
11
13294.440322
21
44.396394
0
LINE
8
Layer 1
10
13294.440322
20
44.396394
11
13294.400000
21
49.027200
0
LINE
8
Layer 1
10
13294.400000
20
49.027200
11
13295.600000
21
49.027200
0
LINE
8
Layer 1
10
13295.600000
20
49.027200
11
13295.600000
21
44.439400
0
LINE
8
Layer 1
10
13295.600000
20
44.439400
11
13295.682409
21
43.496750
0
LINE
8
Layer 1
10
13295.682409
20
43.496750
11
13295.929635
21
42.876680
0
LINE
8
Layer 1
10
13295.929635
20
42.876680
11
13296.359742
21
42.543348
0
LINE
8
Layer 1
10
13296.359742
20
42.543348
11
13296.962005
21
42.432237
0
LINE
8
Layer 1
10
13296.962005
20
42.432237
11
13297.420616
21
42.446574
0
LINE
8
Layer 1
10
13297.420616
20
42.446574
11
13297.893902
21
42.546932
0
LINE
8
Layer 1
10
13297.893902
20
42.546932
11
13297.900000
21
49.027200
0
LINE
8
Layer 1
10
13297.900000
20
49.027200
11
13299.200000
21
49.027200
0
LINE
8
Layer 1
10
13299.200000
20
49.027200
11
13299.200000
21
41.715400
0
LINE
8
Layer 1
10
13455.300000
20
42.948300
11
13455.658422
21
44.295970
0
LINE
8
Layer 1
10
13455.658422
20
44.295970
11
13456.045631
21
45.887360
0
LINE
8
Layer 1
10
13456.045631
20
45.887360
11
13456.389660
21
47.536100
0
LINE
8
Layer 1
10
13456.389660
20
47.536100
11
13456.676398
21
49.027140
0
LINE
8
Layer 1
10
13456.676398
20
49.027140
11
13457.900000
21
49.027200
0
LINE
8
Layer 1
10
13457.900000
20
49.027200
11
13457.455500
21
47.034370
0
LINE
8
Layer 1
10
13457.455500
20
47.034370
11
13456.939316
21
44.969860
0
LINE
8
Layer 1
10
13456.939316
20
44.969860
11
13456.408739
21
43.063060
0
LINE
8
Layer 1
10
13456.408739
20
43.063060
11
13455.906948
21
41.500340
0
LINE
8
Layer 1
10
13455.906948
20
41.500340
11
13454.600000
21
41.500300
0
LINE
8
Layer 1
10
13454.600000
20
41.500300
11
13454.098209
21
43.063020
0
LINE
8
Layer 1
10
13454.098209
20
43.063020
11
13453.553521
21
44.969820
0
LINE
8
Layer 1
10
13453.553521
20
44.969820
11
13453.037337
21
47.034330
0
LINE
8
Layer 1
10
13453.037337
20
47.034330
11
13452.607231
21
49.027160
0
LINE
8
Layer 1
10
13452.607231
20
49.027160
11
13453.900000
21
49.027200
0
LINE
8
Layer 1
10
13453.900000
20
49.027200
11
13454.172344
21
47.536160
0
LINE
8
Layer 1
10
13454.172344
20
47.536160
11
13454.516373
21
45.887420
0
LINE
8
Layer 1
10
13454.516373
20
45.887420
11
13454.889188
21
44.296030
0
LINE
8
Layer 1
10
13454.889188
20
44.296030
11
13455.247610
21
42.948360
0
LINE
8
Layer 1
10
13455.247610
20
42.948360
11
13455.300000
21
42.948300
0
LINE
8
Layer 1
10
13613.300000
20
41.500300
11
13612.100000
21
41.500300
0
LINE
8
Layer 1
10
13612.100000
20
41.500300
11
13611.253898
21
44.898140
0
LINE
8
Layer 1
10
13611.253898
20
44.898140
11
13610.537054
21
49.027160
0
LINE
8
Layer 1
10
13610.537054
20
49.027160
11
13611.700000
21
49.027200
0
LINE
8
Layer 1
10
13611.700000
20
49.027200
11
13611.872155
21
47.579180
0
LINE
8
Layer 1
10
13611.872155
20
47.579180
11
13612.115995
21
45.887430
0
LINE
8
Layer 1
10
13612.115995
20
45.887430
11
13612.402733
21
44.210020
0
LINE
8
Layer 1
10
13612.402733
20
44.210020
11
13612.675077
21
42.833680
0
LINE
8
Layer 1
10
13612.675077
20
42.833680
11
13612.961815
21
44.238690
0
LINE
8
Layer 1
10
13612.961815
20
44.238690
11
13613.291450
21
45.944780
0
LINE
8
Layer 1
10
13613.291450
20
45.944780
11
13613.606974
21
47.636530
0
LINE
8
Layer 1
10
13613.606974
20
47.636530
11
13613.836420
21
49.027210
0
LINE
8
Layer 1
10
13613.836420
20
49.027210
11
13615.000000
21
49.027200
0
LINE
8
Layer 1
10
13615.000000
20
49.027200
11
13615.172155
21
47.650860
0
LINE
8
Layer 1
10
13615.172155
20
47.650860
11
13615.430106
21
45.944770
0
LINE
8
Layer 1
10
13615.430106
20
45.944770
11
13615.716844
21
44.238680
0
LINE
8
Layer 1
10
13615.716844
20
44.238680
11
13615.975077
21
42.833670
0
LINE
8
Layer 1
10
13615.975077
20
42.833670
11
13616.247421
21
44.224350
0
LINE
8
Layer 1
10
13616.247421
20
44.224350
11
13616.519765
21
45.901760
0
LINE
8
Layer 1
10
13616.519765
20
45.901760
11
13616.777998
21
47.579170
0
LINE
8
Layer 1
10
13616.777998
20
47.579170
11
13616.949871
21
49.027190
0
LINE
8
Layer 1
10
13616.949871
20
49.027190
11
13618.200000
21
49.027200
0
LINE
8
Layer 1
10
13618.200000
20
49.027200
11
13617.468763
21
44.898180
0
LINE
8
Layer 1
10
13617.468763
20
44.898180
11
13616.637337
21
41.500340
0
LINE
8
Layer 1
10
13616.637337
20
41.500340
11
13615.400000
21
41.500300
0
LINE
8
Layer 1
10
13615.400000
20
41.500300
11
13615.142049
21
42.632910
0
LINE
8
Layer 1
10
13615.142049
20
42.632910
11
13614.869705
21
44.123950
0
LINE
8
Layer 1
10
13614.869705
20
44.123950
11
13614.625865
21
45.701010
0
LINE
8
Layer 1
10
13614.625865
20
45.701010
11
13614.425205
21
47.163370
0
LINE
8
Layer 1
10
13614.425205
20
47.163370
11
13614.195759
21
45.701010
0
LINE
8
Layer 1
10
13614.195759
20
45.701010
11
13613.894628
21
44.123950
0
LINE
8
Layer 1
10
13613.894628
20
44.123950
11
13613.579386
21
42.632910
0
LINE
8
Layer 1
10
13613.579386
20
42.632910
11
13613.335546
21
41.500300
0
LINE
8
Layer 1
10
13613.335546
20
41.500300
11
13613.300000
21
41.500300
0
LINE
8
Layer 1
10
13774.100000
20
45.486000
11
13774.601791
21
44.539766
0
LINE
8
Layer 1
10
13774.601791
20
44.539766
11
13775.132368
21
43.521846
0
LINE
8
Layer 1
10
13775.132368
20
43.521846
11
13775.619765
21
42.489586
0
LINE
8
Layer 1
10
13775.619765
20
42.489586
11
13776.021367
21
41.500341
0
LINE
8
Layer 1
10
13776.021367
20
41.500341
11
13774.800000
21
41.500300
0
LINE
8
Layer 1
10
13774.800000
20
41.500300
11
13774.126054
21
43.077360
0
LINE
8
Layer 1
10
13774.126054
20
43.077360
11
13773.380423
21
44.496710
0
LINE
8
Layer 1
10
13773.380423
20
44.496710
11
13772.649468
21
43.077360
0
LINE
8
Layer 1
10
13772.649468
20
43.077360
11
13772.004309
21
41.500300
0
LINE
8
Layer 1
10
13772.004309
20
41.500300
11
13770.800000
21
41.500300
0
LINE
8
Layer 1
10
13770.800000
20
41.500300
11
13771.187209
21
42.475208
0
LINE
8
Layer 1
10
13771.187209
20
42.475208
11
13771.689000
21
43.507468
0
LINE
8
Layer 1
10
13771.689000
20
43.507468
11
13772.204902
21
44.511048
0
LINE
8
Layer 1
10
13772.204902
20
44.511048
11
13772.721086
21
45.457282
0
LINE
8
Layer 1
10
13772.721086
20
45.457282
11
13770.871686
21
49.027162
0
LINE
8
Layer 1
10
13770.871686
20
49.027162
11
13772.100000
21
49.027200
0
LINE
8
Layer 1
10
13772.100000
20
49.027200
11
13773.390320
21
46.475240
0
LINE
8
Layer 1
10
13773.390320
20
46.475240
11
13774.694750
21
49.027200
0
LINE
8
Layer 1
10
13774.694750
20
49.027200
11
13775.900000
21
49.027200
0
LINE
8
Layer 1
10
13775.900000
20
49.027200
11
13774.100000
21
45.486000
0
LINE
8
Layer 1
10
13931.200000
20
43.063000
11
13931.959742
21
45.944710
0
LINE
8
Layer 1
10
13931.959742
20
45.944710
11
13932.619295
21
49.027140
0
LINE
8
Layer 1
10
13932.619295
20
49.027140
11
13933.800000
21
49.027200
0
LINE
8
Layer 1
10
13933.800000
20
49.027200
11
13933.326714
21
46.962690
0
LINE
8
Layer 1
10
13933.326714
20
46.962690
11
13932.810812
21
44.998540
0
LINE
8
Layer 1
10
13932.810812
20
44.998540
11
13932.280235
21
43.206430
0
LINE
8
Layer 1
10
13932.280235
20
43.206430
11
13931.792838
21
41.686720
0
LINE
8
Layer 1
10
13931.792838
20
41.686720
11
13931.262261
21
40.339050
0
LINE
8
Layer 1
10
13931.262261
20
40.339050
11
13930.717573
21
39.450164
0
LINE
8
Layer 1
10
13930.717573
20
39.450164
11
13930.086807
21
38.962710
0
LINE
8
Layer 1
10
13930.086807
20
38.962710
11
13929.269492
21
38.805004
0
LINE
8
Layer 1
10
13929.269492
20
38.805004
11
13928.753308
21
38.876688
0
LINE
8
Layer 1
10
13928.753308
20
38.876688
11
13928.323202
21
39.005720
0
LINE
8
Layer 1
10
13928.323202
20
39.005720
11
13928.552648
21
40.009300
0
LINE
8
Layer 1
10
13928.552648
20
40.009300
11
13929.255099
21
39.851594
0
LINE
8
Layer 1
10
13929.255099
20
39.851594
11
13929.631442
21
39.926863
0
LINE
8
Layer 1
10
13929.631442
20
39.926863
11
13929.929045
21
40.152668
0
LINE
8
Layer 1
10
13929.929045
20
40.152668
11
13930.430836
21
41.055891
0
LINE
8
Layer 1
10
13930.430836
20
41.055891
11
13930.574205
21
41.414313
0
LINE
8
Layer 1
10
13930.574205
20
41.414313
11
13930.015123
21
43.063053
0
LINE
8
Layer 1
10
13930.015123
20
43.063053
11
13929.470152
21
44.969853
0
LINE
8
Layer 1
10
13929.470152
20
44.969853
11
13928.968361
21
46.991353
0
LINE
8
Layer 1
10
13928.968361
20
46.991353
11
13928.523861
21
49.027193
0
LINE
8
Layer 1
10
13928.523861
20
49.027193
11
13929.900000
21
49.027200
0
LINE
8
Layer 1
10
13929.900000
20
49.027200
11
13930.172344
21
47.550500
0
LINE
8
Layer 1
10
13930.172344
20
47.550500
11
13930.502262
21
45.944770
0
LINE
8
Layer 1
10
13930.502262
20
45.944770
11
13930.875077
21
44.382050
0
LINE
8
Layer 1
10
13930.875077
20
44.382050
11
13931.233499
21
43.063060
0
LINE
8
Layer 1
10
13931.233499
20
43.063060
11
13931.200000
21
43.063000
0
LINE
8
Layer 1
10
14090.700000
20
48.109600
11
14089.983156
21
46.847950
0
LINE
8
Layer 1
10
14089.983156
20
46.847950
11
14089.180234
21
45.342580
0
LINE
8
Layer 1
10
14089.180234
20
45.342580
11
14088.434886
21
43.837210
0
LINE
8
Layer 1
10
14088.434886
20
43.837210
11
14087.875522
21
42.561230
0
LINE
8
Layer 1
10
14087.875522
20
42.561230
11
14090.800000
21
42.561200
0
LINE
8
Layer 1
10
14090.800000
20
42.561200
11
14090.800000
21
41.500300
0
LINE
8
Layer 1
10
14090.800000
20
41.500300
11
14086.600000
21
41.500300
0
LINE
8
Layer 1
10
14086.600000
20
41.500300
11
14086.600000
21
42.389200
0
LINE
8
Layer 1
10
14086.600000
20
42.389200
11
14087.187868
21
43.794210
0
LINE
8
Layer 1
10
14087.187868
20
43.794210
11
14087.933499
21
45.342590
0
LINE
8
Layer 1
10
14087.933499
20
45.342590
11
14088.707634
21
46.804950
0
LINE
8
Layer 1
10
14088.707634
20
46.804950
11
14089.367187
21
47.966240
0
LINE
8
Layer 1
10
14089.367187
20
47.966240
11
14086.800000
21
47.966200
0
LINE
8
Layer 1
10
14086.800000
20
47.966200
11
14086.800000
21
49.027200
0
LINE
8
Layer 1
10
14086.800000
20
49.027200
11
14090.700000
21
49.027200
0
LINE
8
Layer 1
10
14090.700000
20
49.027200
11
14090.700000
21
48.109600
0
LINE
8
Layer 1
10
14243.900000
20
46.260100
11
14244.312115
21
46.414221
0
LINE
8
Layer 1
10
14244.312115
20
46.414221
11
14244.602451
21
46.761891
0
LINE
8
Layer 1
10
14244.602451
20
46.761891
11
14244.831897
21
48.023541
0
LINE
8
Layer 1
10
14244.831897
20
48.023541
11
14244.900000
21
50.489500
0
LINE
8
Layer 1
10
14244.900000
20
50.489500
11
14245.043369
21
51.539675
0
LINE
8
Layer 1
10
14245.043369
20
51.539675
11
14245.473475
21
52.224260
0
LINE
8
Layer 1
10
14245.473475
20
52.224260
11
14246.190178
21
52.600603
0
LINE
8
Layer 1
10
14246.190178
20
52.600603
11
14247.165115
21
52.726051
0
LINE
8
Layer 1
10
14247.165115
20
52.726051
11
14247.100000
21
51.765500
0
LINE
8
Layer 1
10
14247.100000
20
51.765500
11
14246.587414
21
51.686647
0
LINE
8
Layer 1
10
14246.587414
20
51.686647
11
14246.254181
21
51.450089
0
LINE
8
Layer 1
10
14246.254181
20
51.450089
11
14246.071301
21
51.062994
0
LINE
8
Layer 1
10
14246.071301
20
51.062994
11
14246.010341
21
50.503855
0
LINE
8
Layer 1
10
14246.010341
20
50.503855
11
14246.000000
21
48.052300
0
LINE
8
Layer 1
10
14246.000000
20
48.052300
11
14245.752703
21
46.647288
0
LINE
8
Layer 1
10
14245.752703
20
46.647288
11
14245.443582
21
46.149079
0
LINE
8
Layer 1
10
14245.443582
20
46.149079
11
14245.010812
21
45.787070
0
LINE
8
Layer 1
10
14245.010812
20
45.787070
11
14245.443582
21
45.425064
0
LINE
8
Layer 1
10
14245.443582
20
45.425064
11
14245.752703
21
44.926856
0
LINE
8
Layer 1
10
14245.752703
20
44.926856
11
14246.000000
21
43.521840
0
LINE
8
Layer 1
10
14246.000000
20
43.521840
11
14246.000000
21
41.070200
0
LINE
8
Layer 1
10
14246.000000
20
41.070200
11
14246.060960
21
40.511062
0
LINE
8
Layer 1
10
14246.060960
20
40.511062
11
14246.243840
21
40.123966
0
LINE
8
Layer 1
10
14246.243840
20
40.123966
11
14246.577074
21
39.887408
0
LINE
8
Layer 1
10
14246.577074
20
39.887408
11
14247.089659
21
39.808555
0
LINE
8
Layer 1
10
14247.089659
20
39.808555
11
14247.100000
21
38.848000
0
LINE
8
Layer 1
10
14247.100000
20
38.848000
11
14246.125065
21
38.973448
0
LINE
8
Layer 1
10
14246.125065
20
38.973448
11
14245.408360
21
39.349791
0
LINE
8
Layer 1
10
14245.408360
20
39.349791
11
14244.978254
21
40.034376
0
LINE
8
Layer 1
10
14244.978254
20
40.034376
11
14244.834885
21
41.084551
0
LINE
8
Layer 1
10
14244.834885
20
41.084551
11
14244.900000
21
43.550500
0
LINE
8
Layer 1
10
14244.900000
20
43.550500
11
14244.670554
21
44.797810
0
LINE
8
Layer 1
10
14244.670554
20
44.797810
11
14244.380218
21
45.156232
0
LINE
8
Layer 1
10
14244.380218
20
45.156232
11
14243.968103
21
45.313938
0
LINE
8
Layer 1
10
14243.968103
20
45.313938
11
14243.900000
21
46.260100
0
LINE
8
Layer 1
10
14400.700000
20
52.726100
11
14401.900000
21
52.726100
0
LINE
8
Layer 1
10
14401.900000
20
52.726100
11
14401.900000
21
38.848000
0
LINE
8
Layer 1
10
14401.900000
20
38.848000
11
14400.700000
21
38.848000
0
LINE
8
Layer 1
10
14400.700000
20
38.848000
11
14400.700000
21
52.726100
0
LINE
8
Layer 1
10
14558.600000
20
45.313900
11
14558.187674
21
45.156194
0
LINE
8
Layer 1
10
14558.187674
20
45.156194
11
14557.897267
21
44.797772
0
LINE
8
Layer 1
10
14557.897267
20
44.797772
11
14557.668103
21
43.550462
0
LINE
8
Layer 1
10
14557.668103
20
43.550462
11
14557.700000
21
41.084500
0
LINE
8
Layer 1
10
14557.700000
20
41.084500
11
14557.553033
21
40.034325
0
LINE
8
Layer 1
10
14557.553033
20
40.034325
11
14557.112132
21
39.349740
0
LINE
8
Layer 1
10
14557.112132
20
39.349740
11
14556.406012
21
38.973397
0
LINE
8
Layer 1
10
14556.406012
20
38.973397
11
14555.434602
21
38.847949
0
LINE
8
Layer 1
10
14555.434602
20
38.847949
11
14555.400000
21
39.808500
0
LINE
8
Layer 1
10
14555.400000
20
39.808500
11
14555.912586
21
39.887353
0
LINE
8
Layer 1
10
14555.912586
20
39.887353
11
14556.245819
21
40.123911
0
LINE
8
Layer 1
10
14556.245819
20
40.123911
11
14556.428699
21
40.511007
0
LINE
8
Layer 1
10
14556.428699
20
40.511007
11
14556.489659
21
41.070145
0
LINE
8
Layer 1
10
14556.489659
20
41.070145
11
14556.500000
21
43.521800
0
LINE
8
Layer 1
10
14556.500000
20
43.521800
11
14556.747297
21
44.926812
0
LINE
8
Layer 1
10
14556.747297
20
44.926812
11
14557.056418
21
45.425021
0
LINE
8
Layer 1
10
14557.056418
20
45.425021
11
14557.489188
21
45.787030
0
LINE
8
Layer 1
10
14557.489188
20
45.787030
11
14557.056418
21
46.149036
0
LINE
8
Layer 1
10
14557.056418
20
46.149036
11
14556.747297
21
46.647244
0
LINE
8
Layer 1
10
14556.747297
20
46.647244
11
14556.500000
21
48.052260
0
LINE
8
Layer 1
10
14556.500000
20
48.052260
11
14556.500000
21
50.503900
0
LINE
8
Layer 1
10
14556.500000
20
50.503900
11
14556.439040
21
51.063038
0
LINE
8
Layer 1
10
14556.439040
20
51.063038
11
14556.256160
21
51.450134
0
LINE
8
Layer 1
10
14556.256160
20
51.450134
11
14555.922926
21
51.686692
0
LINE
8
Layer 1
10
14555.922926
20
51.686692
11
14555.410341
21
51.765545
0
LINE
8
Layer 1
10
14555.410341
20
51.765545
11
14555.400000
21
52.726100
0
LINE
8
Layer 1
10
14555.400000
20
52.726100
11
14556.371407
21
52.600652
0
LINE
8
Layer 1
10
14556.371407
20
52.600652
11
14557.077530
21
52.224309
0
LINE
8
Layer 1
10
14557.077530
20
52.224309
11
14557.518431
21
51.539724
0
LINE
8
Layer 1
10
14557.518431
20
51.539724
11
14557.665398
21
50.489549
0
LINE
8
Layer 1
10
14557.665398
20
50.489549
11
14557.700000
21
48.023600
0
LINE
8
Layer 1
10
14557.700000
20
48.023600
11
14557.929164
21
46.761950
0
LINE
8
Layer 1
10
14557.929164
20
46.761950
11
14558.219570
21
46.414281
0
LINE
8
Layer 1
10
14558.219570
20
46.414281
11
14558.631897
21
46.260159
0
LINE
8
Layer 1
10
14558.631897
20
46.260159
11
14558.600000
21
45.313900
0
LINE
8
Layer 1
10
14713.300000
20
46.891000
11
14713.988339
21
46.718957
0
LINE
8
Layer 1
10
14713.988339
20
46.718957
11
14714.533027
21
46.346198
0
LINE
8
Layer 1
10
14714.533027
20
46.346198
11
14715.006313
21
45.973439
0
LINE
8
Layer 1
10
14715.006313
20
45.973439
11
14715.479317
21
45.815733
0
LINE
8
Layer 1
10
14715.479317
20
45.815733
11
14715.776779
21
45.887417
0
LINE
8
Layer 1
10
14715.776779
20
45.887417
11
14715.981108
21
46.102471
0
LINE
8
Layer 1
10
14715.981108
20
46.102471
11
14716.253452
21
46.847989
0
LINE
8
Layer 1
10
14716.253452
20
46.847989
11
14717.099271
21
46.589925
0
LINE
8
Layer 1
10
14717.099271
20
46.589925
11
14716.941791
21
45.930429
0
LINE
8
Layer 1
10
14716.941791
20
45.930429
11
14716.640660
21
45.328280
0
LINE
8
Layer 1
10
14716.640660
20
45.328280
11
14716.153263
21
44.869500
0
LINE
8
Layer 1
10
14716.153263
20
44.869500
11
14715.436419
21
44.697457
0
LINE
8
Layer 1
10
14715.436419
20
44.697457
11
14714.748080
21
44.855163
0
LINE
8
Layer 1
10
14714.748080
20
44.855163
11
14714.203392
21
45.227922
0
LINE
8
Layer 1
10
14714.203392
20
45.227922
11
14713.730106
21
45.600681
0
LINE
8
Layer 1
10
14713.730106
20
45.600681
11
14713.271495
21
45.772724
0
LINE
8
Layer 1
10
14713.271495
20
45.772724
11
14712.999080
21
45.701040
0
LINE
8
Layer 1
10
14712.999080
20
45.701040
11
14712.784098
21
45.485986
0
LINE
8
Layer 1
10
14712.784098
20
45.485986
11
14712.497360
21
44.740468
0
LINE
8
Layer 1
10
14712.497360
20
44.740468
11
14711.651258
21
44.998532
0
LINE
8
Layer 1
10
14711.651258
20
44.998532
11
14711.794627
21
45.643691
0
LINE
8
Layer 1
10
14711.794627
20
45.643691
11
14712.095758
21
46.260177
0
LINE
8
Layer 1
10
14712.095758
20
46.260177
11
14712.583155
21
46.704620
0
LINE
8
Layer 1
10
14712.583155
20
46.704620
11
14713.299999
21
46.890999
0
LINE
8
Layer 1
10
14713.299999
20
46.890999
11
14713.300000
21
46.891000
 0 
ENDSEC
 0 
EOF